<?xml version="1.0" encoding="us-ascii" standalone="no"?><svg xmlns="http://www.w3.org/2000/svg" xmlns:xlink="http://www.w3.org/1999/xlink" contentStyleType="text/css" height="1100.5898px" preserveAspectRatio="none" style="width:1232px;height:1100px;background:#FFFFFF;" version="1.1" viewBox="0 0 1232 1100" width="1232.118px" zoomAndPan="magnify"><defs/><g><!--cluster eventsourcing.postgresql--><g id="cluster_eventsourcing.postgresql"><path d="M5.0134,252.4397 L125.9249,252.4397 A2.2118,2.2118 0 0 1 127.3995,253.9142 L131.5282,265.5907 L686.2466,265.5907 A1.4745,1.4745 0 0 1 687.7212,267.0652 L687.7212,636.7024 A1.4745,1.4745 0 0 1 686.2466,638.1769 L5.0134,638.1769 A1.4745,1.4745 0 0 1 3.5389,636.7024 L3.5389,253.9142 A1.4745,1.4745 0 0 1 5.0134,252.4397 " fill="#DDDDDD" style="stroke:#000000;stroke-width:0.8847184986595173;"/><line style="stroke:#000000;stroke-width:0.8847184986595173;" x1="3.5389" x2="131.5282" y1="265.5907" y2="265.5907"/><text fill="#000000" font-family="sans-serif" font-size="8.2574" font-weight="bold" lengthAdjust="spacing" textLength="120.3217" x="5.8981" y="261.284">eventsourcing.postgresql</text></g><!--cluster eventsourcing.postgresql.domain--><g id="cluster_eventsourcing.postgresql.domain"><path d="M19.1689,277.8016 L177.8284,277.8016 A2.2118,2.2118 0 0 1 179.3029,279.2761 L183.4316,290.9526 L672.0912,290.9526 A1.4745,1.4745 0 0 1 673.5657,292.4271 L673.5657,622.5469 A1.4745,1.4745 0 0 1 672.0912,624.0214 L19.1689,624.0214 A1.4745,1.4745 0 0 1 17.6944,622.5469 L17.6944,279.2761 A1.4745,1.4745 0 0 1 19.1689,277.8016 " fill="none" style="stroke:#000000;stroke-width:0.8847184986595173;"/><line style="stroke:#000000;stroke-width:0.8847184986595173;" x1="17.6944" x2="183.4316" y1="290.9526" y2="290.9526"/><text fill="#000000" font-family="sans-serif" font-size="8.2574" font-weight="bold" lengthAdjust="spacing" textLength="158.0697" x="20.0536" y="286.6459">eventsourcing.postgresql.domain</text></g><!--cluster eventsourcing.postgresql.domain.command--><g id="cluster_eventsourcing.postgresql.domain.command"><path d="M258.3378,531.4209 L465.3619,531.4209 A2.2118,2.2118 0 0 1 466.8365,532.8954 L470.9651,544.5719 L471.2601,544.5719 A1.4745,1.4745 0 0 1 472.7346,546.0464 L472.7346,608.3914 A1.4745,1.4745 0 0 1 471.2601,609.866 L258.3378,609.866 A1.4745,1.4745 0 0 1 256.8633,608.3914 L256.8633,532.8954 A1.4745,1.4745 0 0 1 258.3378,531.4209 " fill="none" style="stroke:#000000;stroke-width:0.8847184986595173;"/><line style="stroke:#000000;stroke-width:0.8847184986595173;" x1="256.8633" x2="470.9651" y1="544.5719" y2="544.5719"/><text fill="#000000" font-family="sans-serif" font-size="8.2574" font-weight="bold" lengthAdjust="spacing" textLength="206.4343" x="259.2225" y="540.2652">eventsourcing.postgresql.domain.command</text></g><!--cluster eventsourcing.postgresql.domain.event--><g id="cluster_eventsourcing.postgresql.domain.event"><path d="M271.6086,303.1635 L460.3485,303.1635 A2.2118,2.2118 0 0 1 461.8231,304.6381 L465.9517,316.3145 L657.9357,316.3145 A1.4745,1.4745 0 0 1 659.4102,317.789 L659.4102,515.7909 A1.4745,1.4745 0 0 1 657.9357,517.2654 L271.6086,517.2654 A1.4745,1.4745 0 0 1 270.134,515.7909 L270.134,304.6381 A1.4745,1.4745 0 0 1 271.6086,303.1635 " fill="none" style="stroke:#000000;stroke-width:0.8847184986595173;"/><line style="stroke:#000000;stroke-width:0.8847184986595173;" x1="270.134" x2="465.9517" y1="316.3145" y2="316.3145"/><text fill="#000000" font-family="sans-serif" font-size="8.2574" font-weight="bold" lengthAdjust="spacing" textLength="188.1501" x="272.4933" y="312.0078">eventsourcing.postgresql.domain.event</text></g><!--cluster com.example.eventsourcing--><g id="cluster_com.example.eventsourcing"><path d="M722.2252,3.5389 L855.5228,3.5389 A2.2118,2.2118 0 0 1 856.9973,5.0134 L861.126,16.6898 L1226.5147,16.6898 A1.4745,1.4745 0 0 1 1227.9893,18.1644 L1227.9893,1094.9866 A1.4745,1.4745 0 0 1 1226.5147,1096.4611 L722.2252,1096.4611 A1.4745,1.4745 0 0 1 720.7507,1094.9866 L720.7507,5.0134 A1.4745,1.4745 0 0 1 722.2252,3.5389 " fill="none" style="stroke:#000000;stroke-width:0.8847184986595173;"/><line style="stroke:#000000;stroke-width:0.8847184986595173;" x1="720.7507" x2="861.126" y1="16.6898" y2="16.6898"/><text fill="#000000" font-family="sans-serif" font-size="8.2574" font-weight="bold" lengthAdjust="spacing" textLength="132.7078" x="723.1099" y="12.3832">com.example.eventsourcing</text></g><!--cluster com.example.eventsourcing.domain--><g id="cluster_com.example.eventsourcing.domain"><path d="M736.3807,28.9008 L907.4263,28.9008 A2.2118,2.2118 0 0 1 908.9008,30.3753 L913.0295,42.0518 L990,42.0518 A1.4745,1.4745 0 0 1 991.4745,43.5263 L991.4745,1080.8311 A1.4745,1.4745 0 0 1 990,1082.3056 L736.3807,1082.3056 A1.4745,1.4745 0 0 1 734.9062,1080.8311 L734.9062,30.3753 A1.4745,1.4745 0 0 1 736.3807,28.9008 " fill="none" style="stroke:#000000;stroke-width:0.8847184986595173;"/><line style="stroke:#000000;stroke-width:0.8847184986595173;" x1="734.9062" x2="913.0295" y1="42.0518" y2="42.0518"/><text fill="#000000" font-family="sans-serif" font-size="8.2574" font-weight="bold" lengthAdjust="spacing" textLength="170.4558" x="737.2654" y="37.7451">com.example.eventsourcing.domain</text></g><!--cluster com.example.eventsourcing.domain.command--><g id="cluster_com.example.eventsourcing.domain.command"><path d="M750.5362,526.7024 L969.9464,526.7024 A2.2118,2.2118 0 0 1 971.4209,528.1769 L975.5496,539.8534 L975.8445,539.8534 A1.4745,1.4745 0 0 1 977.319,541.3279 L977.319,827.2118 A1.4745,1.4745 0 0 1 975.8445,828.6863 L750.5362,828.6863 A1.4745,1.4745 0 0 1 749.0617,827.2118 L749.0617,528.1769 A1.4745,1.4745 0 0 1 750.5362,526.7024 " fill="none" style="stroke:#000000;stroke-width:0.8847184986595173;"/><line style="stroke:#000000;stroke-width:0.8847184986595173;" x1="749.0617" x2="975.5496" y1="539.8534" y2="539.8534"/><text fill="#000000" font-family="sans-serif" font-size="8.2574" font-weight="bold" lengthAdjust="spacing" textLength="218.8204" x="751.4209" y="535.5467">com.example.eventsourcing.domain.command</text></g><!--cluster com.example.eventsourcing.domain.event--><g id="cluster_com.example.eventsourcing.domain.event"><path d="M759.6783,54.2627 L960.8043,54.2627 A2.2118,2.2118 0 0 1 962.2788,55.7373 L966.4075,67.4137 L966.7024,67.4137 A1.4745,1.4745 0 0 1 968.1769,68.8882 L968.1769,511.0724 A1.4745,1.4745 0 0 1 966.7024,512.5469 L759.6783,512.5469 A1.4745,1.4745 0 0 1 758.2038,511.0724 L758.2038,55.7373 A1.4745,1.4745 0 0 1 759.6783,54.2627 " fill="none" style="stroke:#000000;stroke-width:0.8847184986595173;"/><line style="stroke:#000000;stroke-width:0.8847184986595173;" x1="758.2038" x2="966.4075" y1="67.4137" y2="67.4137"/><text fill="#000000" font-family="sans-serif" font-size="8.2574" font-weight="bold" lengthAdjust="spacing" textLength="200.5362" x="760.563" y="63.107">com.example.eventsourcing.domain.event</text></g><!--cluster com.example.eventsourcing.dto--><g id="cluster_com.example.eventsourcing.dto"><path d="M1054.2895,805.0938 L1206.4611,805.0938 A2.2118,2.2118 0 0 1 1207.9357,806.5684 L1212.0643,818.2448 L1212.3592,818.2448 A1.4745,1.4745 0 0 1 1213.8338,819.7193 L1213.8338,987.6408 A1.4745,1.4745 0 0 1 1212.3592,989.1153 L1054.2895,989.1153 A1.4745,1.4745 0 0 1 1052.815,987.6408 L1052.815,806.5684 A1.4745,1.4745 0 0 1 1054.2895,805.0938 " fill="none" style="stroke:#000000;stroke-width:0.8847184986595173;"/><line style="stroke:#000000;stroke-width:0.8847184986595173;" x1="1052.815" x2="1212.0643" y1="818.2448" y2="818.2448"/><text fill="#000000" font-family="sans-serif" font-size="8.2574" font-weight="bold" lengthAdjust="spacing" textLength="151.5818" x="1055.1743" y="813.9381">com.example.eventsourcing.dto</text></g><!--class Aggregate--><g id="elem_Aggregate"><rect codeLine="13" fill="#F1F1F1" height="134.0441" id="Aggregate" rx="1.4745" ry="1.4745" style="stroke:#181818;stroke-width:0.2949061662198391;" width="165.7373" x="32.1448" y="422.0107"/><ellipse cx="90.3887" cy="431.4477" fill="#A9DCDF" rx="6.4879" ry="6.4879" style="stroke:#181818;stroke-width:0.5898123324396782;"/><path d="M90.4533,428.7014 L89.7713,431.6965 L91.1444,431.6965 L90.4533,428.7014 Z M89.5777,427.3835 L91.338,427.3835 L93.3194,434.6917 L91.8725,434.6917 L91.4209,432.8854 L89.4856,432.8854 L89.0432,434.6917 L87.6056,434.6917 L89.5777,427.3835 Z " fill="#000000"/><text fill="#000000" font-family="sans-serif" font-size="8.2574" font-style="italic" lengthAdjust="spacing" textLength="44.2359" x="102.4799" y="434.3064">Aggregate</text><line style="stroke:#181818;stroke-width:0.2949061662198391;" x1="32.7346" x2="197.2922" y1="440.8847" y2="440.8847"/><polygon fill="none" points="38.6327,445.9857,40.992,448.3449,38.6327,450.7042,36.2735,448.3449" style="stroke:#B38D22;stroke-width:0.5898123324396782;"/><text fill="#000000" font-family="sans-serif" font-size="8.2574" lengthAdjust="spacing" textLength="77.2654" x="43.941" y="450.9086">aggregateId: UUID</text><polygon fill="none" points="38.6327,455.5978,40.992,457.957,38.6327,460.3163,36.2735,457.957" style="stroke:#B38D22;stroke-width:0.5898123324396782;"/><text fill="#000000" font-family="sans-serif" font-size="8.2574" lengthAdjust="spacing" textLength="92.6005" x="43.941" y="460.5207">changes: List&lt;Event&gt;</text><polygon fill="none" points="38.6327,465.2099,40.992,467.5691,38.6327,469.9284,36.2735,467.5691" style="stroke:#B38D22;stroke-width:0.5898123324396782;"/><text fill="#000000" font-family="sans-serif" font-size="8.2574" lengthAdjust="spacing" textLength="46.5952" x="43.941" y="470.1328">version: int</text><polygon fill="none" points="38.6327,474.822,40.992,477.1812,38.6327,479.5405,36.2735,477.1812" style="stroke:#B38D22;stroke-width:0.5898123324396782;"/><text fill="#000000" font-family="sans-serif" font-size="8.2574" lengthAdjust="spacing" textLength="67.8284" x="43.941" y="479.7449">baseVersion: int</text><line style="stroke:#181818;stroke-width:0.2949061662198391;" x1="32.7346" x2="197.2922" y1="484.0516" y2="484.0516"/><ellipse cx="38.6327" cy="492.1016" fill="#84BE84" rx="1.7694" ry="1.7694" style="stroke:#038048;stroke-width:0.5898123324396782;"/><text fill="#000000" font-family="sans-serif" font-size="8.2574" font-style="italic" lengthAdjust="spacing" textLength="114.4236" x="43.941" y="494.0755">getAggregateType(): String</text><ellipse cx="38.6327" cy="501.7137" fill="#84BE84" rx="1.7694" ry="1.7694" style="stroke:#038048;stroke-width:0.5898123324396782;"/><text fill="#000000" font-family="sans-serif" font-size="8.2574" lengthAdjust="spacing" textLength="150.4021" x="43.941" y="503.6876">loadFromHistory(List&lt;Event&gt;): void</text><ellipse cx="38.6327" cy="511.3258" fill="#84BE84" rx="1.7694" ry="1.7694" style="stroke:#038048;stroke-width:0.5898123324396782;"/><text fill="#000000" font-family="sans-serif" font-size="8.2574" lengthAdjust="spacing" textLength="104.9866" x="43.941" y="513.2997">process(Command): void</text><polygon fill="#FFFF44" points="38.6327,517.9889,40.992,520.3481,38.6327,522.7074,36.2735,520.3481" style="stroke:#B38D22;stroke-width:0.5898123324396782;"/><text fill="#000000" font-family="sans-serif" font-size="8.2574" lengthAdjust="spacing" textLength="86.1126" x="43.941" y="522.9118">getNextVersion(): int</text><polygon fill="#FFFF44" points="38.6327,527.601,40.992,529.9602,38.6327,532.3195,36.2735,529.9602" style="stroke:#B38D22;stroke-width:0.5898123324396782;"/><text fill="#000000" font-family="sans-serif" font-size="8.2574" lengthAdjust="spacing" textLength="107.9357" x="43.941" y="532.5239">applyChange(Event): void</text><rect fill="#F24D5C" height="3.5389" style="stroke:#C82930;stroke-width:0.5898123324396782;" width="3.5389" x="36.8633" y="538.3927"/><text fill="#000000" font-family="sans-serif" font-size="8.2574" lengthAdjust="spacing" textLength="75.496" x="43.941" y="542.136">apply(Event): void</text><rect fill="#F24D5C" height="3.5389" style="stroke:#C82930;stroke-width:0.5898123324396782;" width="3.5389" x="36.8633" y="548.0048"/><text fill="#000000" font-family="sans-serif" font-size="8.2574" lengthAdjust="spacing" textLength="113.244" x="43.941" y="551.7481">invoke(Object, String): void</text></g><!--class AggregateTypeMapper--><g id="elem_AggregateTypeMapper"><rect codeLine="27" fill="#F1F1F1" height="37.9231" id="AggregateTypeMapper" rx="1.4745" ry="1.4745" style="stroke:#181818;stroke-width:0.2949061662198391;" width="175.7641" x="27.1314" y="576.8365"/><ellipse cx="64.1421" cy="586.2735" fill="#B4A7E5" rx="6.4879" ry="6.4879" style="stroke:#181818;stroke-width:0.5898123324396782;"/><path d="M61.7368,583.776 L61.7368,582.5042 L66.0958,582.5042 L66.0958,583.776 L64.6397,583.776 L64.6397,588.5405 L66.0958,588.5405 L66.0958,589.8123 L61.7368,589.8123 L61.7368,588.5405 L63.1929,588.5405 L63.1929,583.776 L61.7368,583.776 Z " fill="#000000"/><text fill="#000000" font-family="sans-serif" font-size="8.2574" font-style="italic" lengthAdjust="spacing" textLength="96.7292" x="76.2332" y="589.1321">AggregateTypeMapper</text><line style="stroke:#181818;stroke-width:0.2949061662198391;" x1="27.7212" x2="202.3056" y1="595.7105" y2="595.7105"/><line style="stroke:#181818;stroke-width:0.2949061662198391;" x1="27.7212" x2="202.3056" y1="600.429" y2="600.429"/><text fill="#000000" font-family="sans-serif" font-size="8.2574" lengthAdjust="spacing" textLength="168.6863" x="30.6702" y="610.4529">getClassByAggregateType(String): Class</text></g><!--class Command--><g id="elem_Command"><rect codeLine="33" fill="#F1F1F1" height="47.5352" id="Command" rx="1.4745" ry="1.4745" style="stroke:#181818;stroke-width:0.2949061662198391;" width="109.7051" x="309.9464" y="552.3592"/><ellipse cx="340.4692" cy="561.7962" fill="#ADD1B2" rx="6.4879" ry="6.4879" style="stroke:#181818;stroke-width:0.5898123324396782;"/><path d="M342.2202,565.1232 Q341.8792,565.2983 341.5013,565.3812 Q341.1235,565.4734 340.7088,565.4734 Q339.2342,565.4734 338.4509,564.5057 Q337.6768,563.5288 337.6768,561.6857 Q337.6768,559.8425 338.4509,558.8656 Q339.2342,557.8887 340.7088,557.8887 Q341.1235,557.8887 341.5013,557.9809 Q341.8884,558.0731 342.2202,558.2482 L342.2202,559.8517 Q341.8515,559.5107 341.5013,559.3541 Q341.1511,559.1882 340.7825,559.1882 Q339.9899,559.1882 339.5845,559.8241 Q339.179,560.4507 339.179,561.6857 Q339.179,562.9206 339.5845,563.5565 Q339.9899,564.1831 340.7825,564.1831 Q341.1511,564.1831 341.5013,564.0265 Q341.8515,563.8606 342.2202,563.5196 L342.2202,565.1232 Z " fill="#000000"/><text fill="#000000" font-family="sans-serif" font-size="8.2574" lengthAdjust="spacing" textLength="43.6461" x="352.5603" y="564.6549">Command</text><line style="stroke:#181818;stroke-width:0.2949061662198391;" x1="310.5362" x2="419.0617" y1="571.2332" y2="571.2332"/><polygon fill="none" points="316.4343,576.3342,318.7936,578.6934,316.4343,581.0527,314.0751,578.6934" style="stroke:#B38D22;stroke-width:0.5898123324396782;"/><text fill="#000000" font-family="sans-serif" font-size="8.2574" lengthAdjust="spacing" textLength="94.37" x="321.7426" y="581.2572">aggregateType: String</text><polygon fill="none" points="316.4343,585.9463,318.7936,588.3055,316.4343,590.6648,314.0751,588.3055" style="stroke:#B38D22;stroke-width:0.5898123324396782;"/><text fill="#000000" font-family="sans-serif" font-size="8.2574" lengthAdjust="spacing" textLength="77.2654" x="321.7426" y="590.8693">aggregateId: UUID</text><line style="stroke:#181818;stroke-width:0.2949061662198391;" x1="310.5362" x2="419.0617" y1="595.1759" y2="595.1759"/></g><!--class Event--><g id="elem_Event"><rect codeLine="41" fill="#F1F1F1" height="66.7594" id="Event" rx="1.4745" ry="1.4745" style="stroke:#181818;stroke-width:0.2949061662198391;" width="109.1153" x="540.8579" y="324.1019"/><ellipse cx="581.1126" cy="333.5389" fill="#ADD1B2" rx="6.4879" ry="6.4879" style="stroke:#181818;stroke-width:0.5898123324396782;"/><path d="M582.8636,336.8658 Q582.5226,337.0409 582.1448,337.1238 Q581.7669,337.216 581.3522,337.216 Q579.8777,337.216 579.0943,336.2483 Q578.3202,335.2714 578.3202,333.4283 Q578.3202,331.5851 579.0943,330.6082 Q579.8777,329.6314 581.3522,329.6314 Q581.7669,329.6314 582.1448,329.7235 Q582.5318,329.8157 582.8636,329.9908 L582.8636,331.5943 Q582.495,331.2534 582.1448,331.0967 Q581.7946,330.9308 581.4259,330.9308 Q580.6334,330.9308 580.2279,331.5667 Q579.8224,332.1934 579.8224,333.4283 Q579.8224,334.6632 580.2279,335.2991 Q580.6334,335.9258 581.4259,335.9258 Q581.7946,335.9258 582.1448,335.7691 Q582.495,335.6032 582.8636,335.2622 L582.8636,336.8658 Z " fill="#000000"/><text fill="#000000" font-family="sans-serif" font-size="8.2574" lengthAdjust="spacing" textLength="23.5925" x="593.2038" y="336.3975">Event</text><line style="stroke:#181818;stroke-width:0.2949061662198391;" x1="541.4477" x2="649.3834" y1="342.9759" y2="342.9759"/><polygon fill="none" points="547.3458,348.0768,549.7051,350.4361,547.3458,352.7953,544.9866,350.4361" style="stroke:#B38D22;stroke-width:0.5898123324396782;"/><text fill="#000000" font-family="sans-serif" font-size="8.2574" lengthAdjust="spacing" textLength="77.2654" x="552.6542" y="352.9998">aggregateId: UUID</text><polygon fill="none" points="547.3458,357.6889,549.7051,360.0482,547.3458,362.4074,544.9866,360.0482" style="stroke:#B38D22;stroke-width:0.5898123324396782;"/><text fill="#000000" font-family="sans-serif" font-size="8.2574" lengthAdjust="spacing" textLength="46.5952" x="552.6542" y="362.6119">version: int</text><polygon fill="none" points="547.3458,367.301,549.7051,369.6603,547.3458,372.0195,544.9866,369.6603" style="stroke:#B38D22;stroke-width:0.5898123324396782;"/><text fill="#000000" font-family="sans-serif" font-size="8.2574" lengthAdjust="spacing" textLength="86.1126" x="552.6542" y="372.224">createdDate: Instant</text><line style="stroke:#181818;stroke-width:0.2949061662198391;" x1="541.4477" x2="649.3834" y1="376.5307" y2="376.5307"/><ellipse cx="547.3458" cy="384.5807" fill="#84BE84" rx="1.7694" ry="1.7694" style="stroke:#038048;stroke-width:0.5898123324396782;"/><text fill="#000000" font-family="sans-serif" font-size="8.2574" font-style="italic" lengthAdjust="spacing" textLength="93.7802" x="552.6542" y="386.5546">getEventType(): String</text></g><!--class EventTypeMapper--><g id="elem_EventTypeMapper"><rect codeLine="48" fill="#F1F1F1" height="37.9231" id="EventTypeMapper" rx="1.4745" ry="1.4745" style="stroke:#181818;stroke-width:0.2949061662198391;" width="155.1206" x="287.2386" y="470.0804"/><ellipse cx="324.2493" cy="479.5174" fill="#B4A7E5" rx="6.4879" ry="6.4879" style="stroke:#181818;stroke-width:0.5898123324396782;"/><path d="M321.844,477.0199 L321.844,475.7482 L326.2031,475.7482 L326.2031,477.0199 L324.747,477.0199 L324.747,481.7845 L326.2031,481.7845 L326.2031,483.0563 L321.844,483.0563 L321.844,481.7845 L323.3001,481.7845 L323.3001,477.0199 L321.844,477.0199 Z " fill="#000000"/><text fill="#000000" font-family="sans-serif" font-size="8.2574" font-style="italic" lengthAdjust="spacing" textLength="76.0858" x="336.3405" y="482.3761">EventTypeMapper</text><line style="stroke:#181818;stroke-width:0.2949061662198391;" x1="287.8284" x2="441.7694" y1="488.9544" y2="488.9544"/><line style="stroke:#181818;stroke-width:0.2949061662198391;" x1="287.8284" x2="441.7694" y1="493.6729" y2="493.6729"/><text fill="#000000" font-family="sans-serif" font-size="8.2574" lengthAdjust="spacing" textLength="148.0429" x="290.7775" y="503.6969">getClassByEventType(String): Class</text></g><!--class EventSubscriptionCheckpoint--><g id="elem_EventSubscriptionCheckpoint"><rect codeLine="52" fill="#F1F1F1" height="47.5352" id="EventSubscriptionCheckpoint" rx="1.4745" ry="1.4745" style="stroke:#181818;stroke-width:0.2949061662198391;" width="170.4558" x="279.571" y="401.3673"/><ellipse cx="301.4236" cy="410.8043" fill="#ADD1B2" rx="6.4879" ry="6.4879" style="stroke:#181818;stroke-width:0.5898123324396782;"/><path d="M303.1746,414.1312 Q302.8336,414.3063 302.4558,414.3892 Q302.0779,414.4814 301.6632,414.4814 Q300.1887,414.4814 299.4053,413.5137 Q298.6312,412.5369 298.6312,410.6937 Q298.6312,408.8505 299.4053,407.8737 Q300.1887,406.8968 301.6632,406.8968 Q302.0779,406.8968 302.4558,406.9889 Q302.8428,407.0811 303.1746,407.2562 L303.1746,408.8598 Q302.806,408.5188 302.4558,408.3621 Q302.1056,408.1962 301.7369,408.1962 Q300.9444,408.1962 300.5389,408.8321 Q300.1334,409.4588 300.1334,410.6937 Q300.1334,411.9286 300.5389,412.5645 Q300.9444,413.1912 301.7369,413.1912 Q302.1056,413.1912 302.4558,413.0345 Q302.806,412.8686 303.1746,412.5276 L303.1746,414.1312 Z " fill="#000000"/><text fill="#000000" font-family="sans-serif" font-size="8.2574" lengthAdjust="spacing" textLength="122.681" x="312.571" y="413.6629">EventSubscriptionCheckpoint</text><line style="stroke:#181818;stroke-width:0.2949061662198391;" x1="280.1609" x2="449.437" y1="420.2413" y2="420.2413"/><text fill="#000000" font-family="sans-serif" font-size="8.2574" lengthAdjust="spacing" textLength="163.378" x="283.1099" y="430.2652">lastProcessedTransactionId: BigInteger</text><text fill="#000000" font-family="sans-serif" font-size="8.2574" lengthAdjust="spacing" textLength="112.0643" x="283.1099" y="439.8773">lastProcessedEventId: long</text><line style="stroke:#181818;stroke-width:0.2949061662198391;" x1="280.1609" x2="449.437" y1="444.184" y2="444.184"/></g><!--class EventWithId--><g id="elem_EventWithId"><rect codeLine="57" fill="#F1F1F1" height="57.1473" id="EventWithId" rx="1.4745" ry="1.4745" style="stroke:#181818;stroke-width:0.2949061662198391;" width="110.8847" x="309.3566" y="323.5121"/><ellipse cx="337.2252" cy="332.9491" fill="#ADD1B2" rx="6.4879" ry="6.4879" style="stroke:#181818;stroke-width:0.5898123324396782;"/><path d="M338.9762,336.276 Q338.6352,336.4511 338.2574,336.534 Q337.8795,336.6262 337.4648,336.6262 Q335.9903,336.6262 335.2069,335.6585 Q334.4328,334.6816 334.4328,332.8385 Q334.4328,330.9953 335.2069,330.0184 Q335.9903,329.0416 337.4648,329.0416 Q337.8795,329.0416 338.2574,329.1337 Q338.6444,329.2259 338.9762,329.401 L338.9762,331.0045 Q338.6076,330.6635 338.2574,330.5069 Q337.9072,330.341 337.5385,330.341 Q336.746,330.341 336.3405,330.9769 Q335.935,331.6036 335.935,332.8385 Q335.935,334.0734 336.3405,334.7093 Q336.746,335.336 337.5385,335.336 Q337.9072,335.336 338.2574,335.1793 Q338.6076,335.0134 338.9762,334.6724 L338.9762,336.276 Z " fill="#000000"/><text fill="#000000" font-family="sans-serif" font-size="8.2574" lengthAdjust="spacing" textLength="50.134" x="349.3164" y="335.8077">EventWithId</text><line style="stroke:#181818;stroke-width:0.2949061662198391;" x1="309.9464" x2="419.6515" y1="342.3861" y2="342.3861"/><text fill="#000000" font-family="sans-serif" font-size="8.2574" lengthAdjust="spacing" textLength="31.2601" x="312.8954" y="352.41">id: long</text><text fill="#000000" font-family="sans-serif" font-size="8.2574" lengthAdjust="spacing" textLength="103.807" x="312.8954" y="362.0221">transactionId: BigInteger</text><text fill="#000000" font-family="sans-serif" font-size="8.2574" lengthAdjust="spacing" textLength="52.4933" x="312.8954" y="371.6342">event: Event</text><line style="stroke:#181818;stroke-width:0.2949061662198391;" x1="309.9464" x2="419.6515" y1="375.9409" y2="375.9409"/></g><!--class OrderAggregate--><g id="elem_OrderAggregate"><rect codeLine="70" fill="#F1F1F1" height="114.8199" id="OrderAggregate" rx="1.4745" ry="1.4745" style="stroke:#181818;stroke-width:0.2949061662198391;" width="125.63" x="800.0804" y="840.1877"/><ellipse cx="826.1796" cy="849.6247" fill="#ADD1B2" rx="6.4879" ry="6.4879" style="stroke:#181818;stroke-width:0.5898123324396782;"/><path d="M827.9306,852.9516 Q827.5896,853.1267 827.2118,853.2096 Q826.8339,853.3018 826.4192,853.3018 Q824.9447,853.3018 824.1614,852.3341 Q823.3872,851.3572 823.3872,849.5141 Q823.3872,847.6709 824.1614,846.694 Q824.9447,845.7172 826.4192,845.7172 Q826.8339,845.7172 827.2118,845.8093 Q827.5989,845.9015 827.9306,846.0766 L827.9306,847.6801 Q827.562,847.3391 827.2118,847.1825 Q826.8616,847.0166 826.493,847.0166 Q825.7004,847.0166 825.2949,847.6525 Q824.8894,848.2792 824.8894,849.5141 Q824.8894,850.749 825.2949,851.3849 Q825.7004,852.0116 826.493,852.0116 Q826.8616,852.0116 827.2118,851.8549 Q827.562,851.689 827.9306,851.348 L827.9306,852.9516 Z " fill="#000000"/><text fill="#000000" font-family="sans-serif" font-size="8.2574" lengthAdjust="spacing" textLength="68.4182" x="838.2708" y="852.4833">OrderAggregate</text><line style="stroke:#181818;stroke-width:0.2949061662198391;" x1="800.6702" x2="925.1206" y1="859.0617" y2="859.0617"/><rect fill="none" height="3.5389" style="stroke:#C82930;stroke-width:0.5898123324396782;" width="3.5389" x="804.7989" y="865.3422"/><text fill="#000000" font-family="sans-serif" font-size="8.2574" lengthAdjust="spacing" textLength="80.2145" x="811.8767" y="869.0856">status: OrderStatus</text><rect fill="none" height="3.5389" style="stroke:#C82930;stroke-width:0.5898123324396782;" width="3.5389" x="804.7989" y="874.9543"/><text fill="#000000" font-family="sans-serif" font-size="8.2574" lengthAdjust="spacing" textLength="53.6729" x="811.8767" y="878.6977">riderId: UUID</text><rect fill="none" height="3.5389" style="stroke:#C82930;stroke-width:0.5898123324396782;" width="3.5389" x="804.7989" y="884.5664"/><text fill="#000000" font-family="sans-serif" font-size="8.2574" lengthAdjust="spacing" textLength="74.9062" x="811.8767" y="888.3098">price: BigDecimal</text><rect fill="none" height="3.5389" style="stroke:#C82930;stroke-width:0.5898123324396782;" width="3.5389" x="804.7989" y="894.1785"/><text fill="#000000" font-family="sans-serif" font-size="8.2574" lengthAdjust="spacing" textLength="110.2949" x="811.8767" y="897.9219">route: List&lt;WaypointDto&gt;</text><rect fill="none" height="3.5389" style="stroke:#C82930;stroke-width:0.5898123324396782;" width="3.5389" x="804.7989" y="903.7906"/><text fill="#000000" font-family="sans-serif" font-size="8.2574" lengthAdjust="spacing" textLength="58.3914" x="811.8767" y="907.534">driverId: UUID</text><rect fill="none" height="3.5389" style="stroke:#C82930;stroke-width:0.5898123324396782;" width="3.5389" x="804.7989" y="913.4027"/><text fill="#000000" font-family="sans-serif" font-size="8.2574" lengthAdjust="spacing" textLength="81.9839" x="811.8767" y="917.1461">placedDate: Instant</text><rect fill="none" height="3.5389" style="stroke:#C82930;stroke-width:0.5898123324396782;" width="3.5389" x="804.7989" y="923.0148"/><text fill="#000000" font-family="sans-serif" font-size="8.2574" lengthAdjust="spacing" textLength="92.6005" x="811.8767" y="926.7582">acceptedDate: Instant</text><rect fill="none" height="3.5389" style="stroke:#C82930;stroke-width:0.5898123324396782;" width="3.5389" x="804.7989" y="932.6269"/><text fill="#000000" font-family="sans-serif" font-size="8.2574" lengthAdjust="spacing" textLength="98.4987" x="811.8767" y="936.3703">completedDate: Instant</text><rect fill="none" height="3.5389" style="stroke:#C82930;stroke-width:0.5898123324396782;" width="3.5389" x="804.7989" y="942.239"/><text fill="#000000" font-family="sans-serif" font-size="8.2574" lengthAdjust="spacing" textLength="94.37" x="811.8767" y="945.9824">cancelledDate: Instant</text><line style="stroke:#181818;stroke-width:0.2949061662198391;" x1="800.6702" x2="925.1206" y1="950.289" y2="950.289"/></g><!--class AggregateType--><g id="elem_AggregateType"><rect codeLine="82" fill="#F1F1F1" height="47.5352" id="AggregateType" rx="1.4745" ry="1.4745" style="stroke:#181818;stroke-width:0.2949061662198391;" width="127.9893" x="798.9008" y="975.8445"/><ellipse cx="827.9491" cy="985.2815" fill="#EB937F" rx="6.4879" ry="6.4879" style="stroke:#181818;stroke-width:0.5898123324396782;"/><path d="M830.3728,988.8204 L825.8202,988.8204 L825.8202,981.5122 L830.3728,981.5122 L830.3728,982.784 L827.2671,982.784 L827.2671,984.3599 L830.0779,984.3599 L830.0779,985.6317 L827.2671,985.6317 L827.2671,987.5486 L830.3728,987.5486 L830.3728,988.8204 Z " fill="#000000"/><text fill="#000000" font-family="sans-serif" font-size="8.2574" lengthAdjust="spacing" textLength="64.8794" x="840.0402" y="988.1401">AggregateType</text><line style="stroke:#181818;stroke-width:0.2949061662198391;" x1="799.4906" x2="926.3003" y1="994.7185" y2="994.7185"/><text fill="#000000" font-family="sans-serif" font-size="8.2574" lengthAdjust="spacing" textLength="30.0804" x="802.4397" y="1004.7424">ORDER</text><line style="stroke:#181818;stroke-width:0.2949061662198391;" x1="799.4906" x2="926.3003" y1="1009.0491" y2="1009.0491"/><ellipse cx="805.3887" cy="1017.0991" fill="#84BE84" rx="1.7694" ry="1.7694" style="stroke:#038048;stroke-width:0.5898123324396782;"/><text fill="#000000" font-family="sans-serif" font-size="8.2574" lengthAdjust="spacing" textLength="112.6542" x="810.6971" y="1019.073">getAggregateClass(): Class</text></g><!--class DefaultAggregateTypeMapper--><g id="elem_DefaultAggregateTypeMapper"><rect codeLine="87" fill="#F1F1F1" height="28.311" id="DefaultAggregateTypeMapper" rx="1.4745" ry="1.4745" style="stroke:#181818;stroke-width:0.2949061662198391;" width="146.2735" x="789.7587" y="1044.5576"/><ellipse cx="798.6059" cy="1053.9946" fill="#ADD1B2" rx="6.4879" ry="6.4879" style="stroke:#181818;stroke-width:0.5898123324396782;"/><path d="M800.3569,1057.3215 Q800.0159,1057.4966 799.6381,1057.5796 Q799.2602,1057.6717 798.8455,1057.6717 Q797.371,1057.6717 796.5876,1056.7041 Q795.8135,1055.7272 795.8135,1053.884 Q795.8135,1052.0409 796.5876,1051.064 Q797.371,1050.0871 798.8455,1050.0871 Q799.2602,1050.0871 799.6381,1050.1793 Q800.0251,1050.2714 800.3569,1050.4465 L800.3569,1052.0501 Q799.9883,1051.7091 799.6381,1051.5524 Q799.2879,1051.3866 798.9192,1051.3866 Q798.1267,1051.3866 797.7212,1052.0225 Q797.3157,1052.6491 797.3157,1053.884 Q797.3157,1055.119 797.7212,1055.7549 Q798.1267,1056.3815 798.9192,1056.3815 Q799.2879,1056.3815 799.6381,1056.2249 Q799.9883,1056.059 800.3569,1055.718 L800.3569,1057.3215 Z " fill="#000000"/><text fill="#000000" font-family="sans-serif" font-size="8.2574" lengthAdjust="spacing" textLength="127.3995" x="806.8633" y="1056.8533">DefaultAggregateTypeMapper</text><line style="stroke:#181818;stroke-width:0.2949061662198391;" x1="790.3485" x2="935.4424" y1="1063.4316" y2="1063.4316"/><line style="stroke:#181818;stroke-width:0.2949061662198391;" x1="790.3485" x2="935.4424" y1="1068.1501" y2="1068.1501"/></g><!--class PlaceOrderCommand--><g id="elem_PlaceOrderCommand"><rect codeLine="92" fill="#F1F1F1" height="57.1473" id="PlaceOrderCommand" rx="1.4745" ry="1.4745" style="stroke:#181818;stroke-width:0.2949061662198391;" width="125.63" x="800.0804" y="547.0509"/><ellipse cx="816.3592" cy="556.4879" fill="#ADD1B2" rx="6.4879" ry="6.4879" style="stroke:#181818;stroke-width:0.5898123324396782;"/><path d="M818.1103,559.8148 Q817.7693,559.9899 817.3914,560.0729 Q817.0136,560.165 816.5989,560.165 Q815.1243,560.165 814.341,559.1974 Q813.5669,558.2205 813.5669,556.3773 Q813.5669,554.5342 814.341,553.5573 Q815.1243,552.5804 816.5989,552.5804 Q817.0136,552.5804 817.3914,552.6726 Q817.7785,552.7647 818.1103,552.9398 L818.1103,554.5434 Q817.7416,554.2024 817.3914,554.0457 Q817.0412,553.8799 816.6726,553.8799 Q815.88,553.8799 815.4745,554.5158 Q815.069,555.1424 815.069,556.3773 Q815.069,557.6123 815.4745,558.2482 Q815.88,558.8748 816.6726,558.8748 Q817.0412,558.8748 817.3914,558.7182 Q817.7416,558.5523 818.1103,558.2113 L818.1103,559.8148 Z " fill="#000000"/><text fill="#000000" font-family="sans-serif" font-size="8.2574" lengthAdjust="spacing" textLength="90.2413" x="826.2681" y="559.3466">PlaceOrderCommand</text><line style="stroke:#181818;stroke-width:0.2949061662198391;" x1="800.6702" x2="925.1206" y1="565.9249" y2="565.9249"/><rect fill="none" height="3.5389" style="stroke:#C82930;stroke-width:0.5898123324396782;" width="3.5389" x="804.7989" y="572.2055"/><text fill="#000000" font-family="sans-serif" font-size="8.2574" lengthAdjust="spacing" textLength="53.6729" x="811.8767" y="575.9489">riderId: UUID</text><rect fill="none" height="3.5389" style="stroke:#C82930;stroke-width:0.5898123324396782;" width="3.5389" x="804.7989" y="581.8176"/><text fill="#000000" font-family="sans-serif" font-size="8.2574" lengthAdjust="spacing" textLength="74.9062" x="811.8767" y="585.561">price: BigDecimal</text><rect fill="none" height="3.5389" style="stroke:#C82930;stroke-width:0.5898123324396782;" width="3.5389" x="804.7989" y="591.4297"/><text fill="#000000" font-family="sans-serif" font-size="8.2574" lengthAdjust="spacing" textLength="110.2949" x="811.8767" y="595.1731">route: List&lt;WaypointDto&gt;</text><line style="stroke:#181818;stroke-width:0.2949061662198391;" x1="800.6702" x2="925.1206" y1="599.4797" y2="599.4797"/></g><!--class AdjustOrderPriceCommand--><g id="elem_AdjustOrderPriceCommand"><rect codeLine="98" fill="#F1F1F1" height="37.9231" id="AdjustOrderPriceCommand" rx="1.4745" ry="1.4745" style="stroke:#181818;stroke-width:0.2949061662198391;" width="133.2976" x="796.2466" y="683.5925"/><ellipse cx="805.0938" cy="693.0295" fill="#ADD1B2" rx="6.4879" ry="6.4879" style="stroke:#181818;stroke-width:0.5898123324396782;"/><path d="M806.8448,696.3564 Q806.5039,696.5315 806.126,696.6144 Q805.7482,696.7066 805.3334,696.7066 Q803.8589,696.7066 803.0756,695.7389 Q802.3014,694.7621 802.3014,692.9189 Q802.3014,691.0757 803.0756,690.0989 Q803.8589,689.122 805.3334,689.122 Q805.7482,689.122 806.126,689.2141 Q806.5131,689.3063 806.8448,689.4814 L806.8448,691.085 Q806.4762,690.744 806.126,690.5873 Q805.7758,690.4214 805.4072,690.4214 Q804.6146,690.4214 804.2091,691.0573 Q803.8036,691.684 803.8036,692.9189 Q803.8036,694.1538 804.2091,694.7897 Q804.6146,695.4164 805.4072,695.4164 Q805.7758,695.4164 806.126,695.2597 Q806.4762,695.0938 806.8448,694.7528 L806.8448,696.3564 Z " fill="#000000"/><text fill="#000000" font-family="sans-serif" font-size="8.2574" lengthAdjust="spacing" textLength="114.4236" x="813.3512" y="695.8881">AdjustOrderPriceCommand</text><line style="stroke:#181818;stroke-width:0.2949061662198391;" x1="796.8365" x2="928.9544" y1="702.4665" y2="702.4665"/><rect fill="none" height="3.5389" style="stroke:#C82930;stroke-width:0.5898123324396782;" width="3.5389" x="800.9651" y="708.7471"/><text fill="#000000" font-family="sans-serif" font-size="8.2574" lengthAdjust="spacing" textLength="91.4209" x="808.0429" y="712.4904">newPrice: BigDecimal</text><line style="stroke:#181818;stroke-width:0.2949061662198391;" x1="796.8365" x2="928.9544" y1="716.7971" y2="716.7971"/></g><!--class AcceptOrderCommand--><g id="elem_AcceptOrderCommand"><rect codeLine="102" fill="#F1F1F1" height="37.9231" id="AcceptOrderCommand" rx="1.4745" ry="1.4745" style="stroke:#181818;stroke-width:0.2949061662198391;" width="115.6032" x="805.0938" y="625.2011"/><ellipse cx="813.941" cy="634.6381" fill="#ADD1B2" rx="6.4879" ry="6.4879" style="stroke:#181818;stroke-width:0.5898123324396782;"/><path d="M815.692,637.965 Q815.351,638.1401 814.9732,638.223 Q814.5953,638.3152 814.1806,638.3152 Q812.7061,638.3152 811.9228,637.3475 Q811.1486,636.3706 811.1486,634.5275 Q811.1486,632.6843 811.9228,631.7074 Q812.7061,630.7306 814.1806,630.7306 Q814.5953,630.7306 814.9732,630.8227 Q815.3603,630.9149 815.692,631.09 L815.692,632.6935 Q815.3234,632.3525 814.9732,632.1959 Q814.623,632.03 814.2544,632.03 Q813.4618,632.03 813.0563,632.6659 Q812.6508,633.2926 812.6508,634.5275 Q812.6508,635.7624 813.0563,636.3983 Q813.4618,637.025 814.2544,637.025 Q814.623,637.025 814.9732,636.8683 Q815.3234,636.7024 815.692,636.3614 L815.692,637.965 Z " fill="#000000"/><text fill="#000000" font-family="sans-serif" font-size="8.2574" lengthAdjust="spacing" textLength="96.7292" x="822.1984" y="637.4967">AcceptOrderCommand</text><line style="stroke:#181818;stroke-width:0.2949061662198391;" x1="805.6836" x2="920.1072" y1="644.0751" y2="644.0751"/><rect fill="none" height="3.5389" style="stroke:#C82930;stroke-width:0.5898123324396782;" width="3.5389" x="809.8123" y="650.3556"/><text fill="#000000" font-family="sans-serif" font-size="8.2574" lengthAdjust="spacing" textLength="58.3914" x="816.8901" y="654.099">driverId: UUID</text><line style="stroke:#181818;stroke-width:0.2949061662198391;" x1="805.6836" x2="920.1072" y1="658.4057" y2="658.4057"/></g><!--class CompleteOrderCommand--><g id="elem_CompleteOrderCommand"><rect codeLine="106" fill="#F1F1F1" height="28.311" id="CompleteOrderCommand" rx="1.4745" ry="1.4745" style="stroke:#181818;stroke-width:0.2949061662198391;" width="127.3995" x="799.1957" y="741.9839"/><ellipse cx="808.0429" cy="751.4209" fill="#ADD1B2" rx="6.4879" ry="6.4879" style="stroke:#181818;stroke-width:0.5898123324396782;"/><path d="M809.7939,754.7478 Q809.4529,754.9229 809.0751,755.0059 Q808.6972,755.098 808.2825,755.098 Q806.808,755.098 806.0246,754.1304 Q805.2505,753.1535 805.2505,751.3103 Q805.2505,749.4672 806.0246,748.4903 Q806.808,747.5134 808.2825,747.5134 Q808.6972,747.5134 809.0751,747.6056 Q809.4621,747.6977 809.7939,747.8728 L809.7939,749.4764 Q809.4253,749.1354 809.0751,748.9787 Q808.7249,748.8128 808.3562,748.8128 Q807.5637,748.8128 807.1582,749.4487 Q806.7527,750.0754 806.7527,751.3103 Q806.7527,752.5452 807.1582,753.1811 Q807.5637,753.8078 808.3562,753.8078 Q808.7249,753.8078 809.0751,753.6511 Q809.4253,753.4853 809.7939,753.1443 L809.7939,754.7478 Z " fill="#000000"/><text fill="#000000" font-family="sans-serif" font-size="8.2574" lengthAdjust="spacing" textLength="108.5255" x="816.3003" y="754.2795">CompleteOrderCommand</text><line style="stroke:#181818;stroke-width:0.2949061662198391;" x1="799.7855" x2="926.0054" y1="760.8579" y2="760.8579"/><line style="stroke:#181818;stroke-width:0.2949061662198391;" x1="799.7855" x2="926.0054" y1="765.5764" y2="765.5764"/></g><!--class CancelOrderCommand--><g id="elem_CancelOrderCommand"><rect codeLine="109" fill="#F1F1F1" height="28.311" id="CancelOrderCommand" rx="1.4745" ry="1.4745" style="stroke:#181818;stroke-width:0.2949061662198391;" width="115.6032" x="805.0938" y="790.9383"/><ellipse cx="813.941" cy="800.3753" fill="#ADD1B2" rx="6.4879" ry="6.4879" style="stroke:#181818;stroke-width:0.5898123324396782;"/><path d="M815.692,803.7022 Q815.351,803.8773 814.9732,803.9603 Q814.5953,804.0524 814.1806,804.0524 Q812.7061,804.0524 811.9228,803.0848 Q811.1486,802.1079 811.1486,800.2647 Q811.1486,798.4216 811.9228,797.4447 Q812.7061,796.4678 814.1806,796.4678 Q814.5953,796.4678 814.9732,796.56 Q815.3603,796.6521 815.692,796.8272 L815.692,798.4308 Q815.3234,798.0898 814.9732,797.9331 Q814.623,797.7673 814.2544,797.7673 Q813.4618,797.7673 813.0563,798.4032 Q812.6508,799.0298 812.6508,800.2647 Q812.6508,801.4997 813.0563,802.1356 Q813.4618,802.7622 814.2544,802.7622 Q814.623,802.7622 814.9732,802.6056 Q815.3234,802.4397 815.692,802.0987 L815.692,803.7022 Z " fill="#000000"/><text fill="#000000" font-family="sans-serif" font-size="8.2574" lengthAdjust="spacing" textLength="96.7292" x="822.1984" y="803.234">CancelOrderCommand</text><line style="stroke:#181818;stroke-width:0.2949061662198391;" x1="805.6836" x2="920.1072" y1="809.8123" y2="809.8123"/><line style="stroke:#181818;stroke-width:0.2949061662198391;" x1="805.6836" x2="920.1072" y1="814.5308" y2="814.5308"/></g><!--class OrderPlacedEvent--><g id="elem_OrderPlacedEvent"><rect codeLine="115" fill="#F1F1F1" height="57.1473" id="OrderPlacedEvent" rx="1.4745" ry="1.4745" style="stroke:#181818;stroke-width:0.2949061662198391;" width="125.63" x="800.0804" y="289.8928"/><ellipse cx="822.9946" cy="299.3298" fill="#ADD1B2" rx="6.4879" ry="6.4879" style="stroke:#181818;stroke-width:0.5898123324396782;"/><path d="M824.7456,302.6567 Q824.4047,302.8318 824.0268,302.9147 Q823.649,303.0069 823.2342,303.0069 Q821.7597,303.0069 820.9764,302.0392 Q820.2022,301.0623 820.2022,299.2192 Q820.2022,297.376 820.9764,296.3991 Q821.7597,295.4223 823.2342,295.4223 Q823.649,295.4223 824.0268,295.5144 Q824.4139,295.6066 824.7456,295.7817 L824.7456,297.3852 Q824.377,297.0442 824.0268,296.8876 Q823.6766,296.7217 823.308,296.7217 Q822.5154,296.7217 822.1099,297.3576 Q821.7044,297.9842 821.7044,299.2192 Q821.7044,300.4541 822.1099,301.09 Q822.5154,301.7167 823.308,301.7167 Q823.6766,301.7167 824.0268,301.56 Q824.377,301.3941 824.7456,301.0531 L824.7456,302.6567 Z " fill="#000000"/><text fill="#000000" font-family="sans-serif" font-size="8.2574" lengthAdjust="spacing" textLength="75.496" x="834.378" y="302.1884">OrderPlacedEvent</text><line style="stroke:#181818;stroke-width:0.2949061662198391;" x1="800.6702" x2="925.1206" y1="308.7668" y2="308.7668"/><rect fill="none" height="3.5389" style="stroke:#C82930;stroke-width:0.5898123324396782;" width="3.5389" x="804.7989" y="315.0473"/><text fill="#000000" font-family="sans-serif" font-size="8.2574" lengthAdjust="spacing" textLength="53.6729" x="811.8767" y="318.7907">riderId: UUID</text><rect fill="none" height="3.5389" style="stroke:#C82930;stroke-width:0.5898123324396782;" width="3.5389" x="804.7989" y="324.6594"/><text fill="#000000" font-family="sans-serif" font-size="8.2574" lengthAdjust="spacing" textLength="74.9062" x="811.8767" y="328.4028">price: BigDecimal</text><rect fill="none" height="3.5389" style="stroke:#C82930;stroke-width:0.5898123324396782;" width="3.5389" x="804.7989" y="334.2715"/><text fill="#000000" font-family="sans-serif" font-size="8.2574" lengthAdjust="spacing" textLength="110.2949" x="811.8767" y="338.0149">route: List&lt;WaypointDto&gt;</text><line style="stroke:#181818;stroke-width:0.2949061662198391;" x1="800.6702" x2="925.1206" y1="342.3215" y2="342.3215"/></g><!--class OrderPriceAdjustedEvent--><g id="elem_OrderPriceAdjustedEvent"><rect codeLine="121" fill="#F1F1F1" height="37.9231" id="OrderPriceAdjustedEvent" rx="1.4745" ry="1.4745" style="stroke:#181818;stroke-width:0.2949061662198391;" width="123.8606" x="800.9651" y="74.9062"/><ellipse cx="809.8123" cy="84.3432" fill="#ADD1B2" rx="6.4879" ry="6.4879" style="stroke:#181818;stroke-width:0.5898123324396782;"/><path d="M811.5633,87.6701 Q811.2224,87.8452 810.8445,87.9281 Q810.4667,88.0203 810.0519,88.0203 Q808.5774,88.0203 807.7941,87.0526 Q807.0199,86.0757 807.0199,84.2326 Q807.0199,82.3894 807.7941,81.4125 Q808.5774,80.4357 810.0519,80.4357 Q810.4667,80.4357 810.8445,80.5278 Q811.2316,80.62 811.5633,80.7951 L811.5633,82.3986 Q811.1947,82.0576 810.8445,81.901 Q810.4943,81.7351 810.1257,81.7351 Q809.3331,81.7351 808.9276,82.371 Q808.5221,82.9977 808.5221,84.2326 Q808.5221,85.4675 808.9276,86.1034 Q809.3331,86.7301 810.1257,86.7301 Q810.4943,86.7301 810.8445,86.5734 Q811.1947,86.4075 811.5633,86.0665 L811.5633,87.6701 Z " fill="#000000"/><text fill="#000000" font-family="sans-serif" font-size="8.2574" lengthAdjust="spacing" textLength="104.9866" x="818.0697" y="87.2018">OrderPriceAdjustedEvent</text><line style="stroke:#181818;stroke-width:0.2949061662198391;" x1="801.555" x2="924.2359" y1="93.7802" y2="93.7802"/><rect fill="none" height="3.5389" style="stroke:#C82930;stroke-width:0.5898123324396782;" width="3.5389" x="805.6836" y="100.0607"/><text fill="#000000" font-family="sans-serif" font-size="8.2574" lengthAdjust="spacing" textLength="91.4209" x="812.7614" y="103.8041">newPrice: BigDecimal</text><line style="stroke:#181818;stroke-width:0.2949061662198391;" x1="801.555" x2="924.2359" y1="108.1108" y2="108.1108"/></g><!--class OrderAcceptedEvent--><g id="elem_OrderAcceptedEvent"><rect codeLine="125" fill="#F1F1F1" height="37.9231" id="OrderAcceptedEvent" rx="1.4745" ry="1.4745" style="stroke:#181818;stroke-width:0.2949061662198391;" width="106.1662" x="809.8123" y="133.2976"/><ellipse cx="818.6595" cy="142.7346" fill="#ADD1B2" rx="6.4879" ry="6.4879" style="stroke:#181818;stroke-width:0.5898123324396782;"/><path d="M820.4105,146.0615 Q820.0695,146.2366 819.6917,146.3195 Q819.3138,146.4117 818.8991,146.4117 Q817.4246,146.4117 816.6413,145.444 Q815.8671,144.4672 815.8671,142.624 Q815.8671,140.7808 816.6413,139.804 Q817.4246,138.8271 818.8991,138.8271 Q819.3138,138.8271 819.6917,138.9192 Q820.0788,139.0114 820.4105,139.1865 L820.4105,140.79 Q820.0419,140.4491 819.6917,140.2924 Q819.3415,140.1265 818.9729,140.1265 Q818.1803,140.1265 817.7748,140.7624 Q817.3693,141.3891 817.3693,142.624 Q817.3693,143.8589 817.7748,144.4948 Q818.1803,145.1215 818.9729,145.1215 Q819.3415,145.1215 819.6917,144.9648 Q820.0419,144.7989 820.4105,144.4579 L820.4105,146.0615 Z " fill="#000000"/><text fill="#000000" font-family="sans-serif" font-size="8.2574" lengthAdjust="spacing" textLength="87.2922" x="826.9169" y="145.5932">OrderAcceptedEvent</text><line style="stroke:#181818;stroke-width:0.2949061662198391;" x1="810.4021" x2="915.3887" y1="152.1716" y2="152.1716"/><rect fill="none" height="3.5389" style="stroke:#C82930;stroke-width:0.5898123324396782;" width="3.5389" x="814.5308" y="158.4522"/><text fill="#000000" font-family="sans-serif" font-size="8.2574" lengthAdjust="spacing" textLength="58.3914" x="821.6086" y="162.1955">driverId: UUID</text><line style="stroke:#181818;stroke-width:0.2949061662198391;" x1="810.4021" x2="915.3887" y1="166.5022" y2="166.5022"/></g><!--class OrderCompletedEvent--><g id="elem_OrderCompletedEvent"><rect codeLine="129" fill="#F1F1F1" height="28.311" id="OrderCompletedEvent" rx="1.4745" ry="1.4745" style="stroke:#181818;stroke-width:0.2949061662198391;" width="112.6542" x="806.5684" y="191.689"/><ellipse cx="815.4155" cy="201.126" fill="#ADD1B2" rx="6.4879" ry="6.4879" style="stroke:#181818;stroke-width:0.5898123324396782;"/><path d="M817.1666,204.4529 Q816.8256,204.628 816.4477,204.711 Q816.0699,204.8031 815.6552,204.8031 Q814.1806,204.8031 813.3973,203.8355 Q812.6232,202.8586 812.6232,201.0154 Q812.6232,199.1723 813.3973,198.1954 Q814.1806,197.2185 815.6552,197.2185 Q816.0699,197.2185 816.4477,197.3107 Q816.8348,197.4028 817.1666,197.5779 L817.1666,199.1815 Q816.7979,198.8405 816.4477,198.6838 Q816.0975,198.5179 815.7289,198.5179 Q814.9363,198.5179 814.5308,199.1538 Q814.1253,199.7805 814.1253,201.0154 Q814.1253,202.2503 814.5308,202.8862 Q814.9363,203.5129 815.7289,203.5129 Q816.0975,203.5129 816.4477,203.3562 Q816.7979,203.1903 817.1666,202.8494 L817.1666,204.4529 Z " fill="#000000"/><text fill="#000000" font-family="sans-serif" font-size="8.2574" lengthAdjust="spacing" textLength="93.7802" x="823.6729" y="203.9846">OrderCompletedEvent</text><line style="stroke:#181818;stroke-width:0.2949061662198391;" x1="807.1582" x2="918.6327" y1="210.563" y2="210.563"/><line style="stroke:#181818;stroke-width:0.2949061662198391;" x1="807.1582" x2="918.6327" y1="215.2815" y2="215.2815"/></g><!--class OrderCancelledEvent--><g id="elem_OrderCancelledEvent"><rect codeLine="132" fill="#F1F1F1" height="28.311" id="OrderCancelledEvent" rx="1.4745" ry="1.4745" style="stroke:#181818;stroke-width:0.2949061662198391;" width="108.5255" x="808.6327" y="240.6434"/><ellipse cx="817.4799" cy="250.0804" fill="#ADD1B2" rx="6.4879" ry="6.4879" style="stroke:#181818;stroke-width:0.5898123324396782;"/><path d="M819.2309,253.4073 Q818.8899,253.5824 818.5121,253.6654 Q818.1342,253.7575 817.7195,253.7575 Q816.245,253.7575 815.4616,252.7899 Q814.6875,251.813 814.6875,249.9698 Q814.6875,248.1267 815.4616,247.1498 Q816.245,246.1729 817.7195,246.1729 Q818.1342,246.1729 818.5121,246.2651 Q818.8991,246.3572 819.2309,246.5323 L819.2309,248.1359 Q818.8623,247.7949 818.5121,247.6382 Q818.1619,247.4724 817.7932,247.4724 Q817.0007,247.4724 816.5952,248.1082 Q816.1897,248.7349 816.1897,249.9698 Q816.1897,251.2048 816.5952,251.8407 Q817.0007,252.4673 817.7932,252.4673 Q818.1619,252.4673 818.5121,252.3107 Q818.8623,252.1448 819.2309,251.8038 L819.2309,253.4073 Z " fill="#000000"/><text fill="#000000" font-family="sans-serif" font-size="8.2574" lengthAdjust="spacing" textLength="89.6515" x="825.7373" y="252.9391">OrderCancelledEvent</text><line style="stroke:#181818;stroke-width:0.2949061662198391;" x1="809.2225" x2="916.5684" y1="259.5174" y2="259.5174"/><line style="stroke:#181818;stroke-width:0.2949061662198391;" x1="809.2225" x2="916.5684" y1="264.2359" y2="264.2359"/></g><!--class EventType--><g id="elem_EventType"><rect codeLine="135" fill="#F1F1F1" height="85.9836" id="EventType" rx="1.4745" ry="1.4745" style="stroke:#181818;stroke-width:0.2949061662198391;" width="112.6542" x="806.5684" y="368.0429"/><ellipse cx="838.2708" cy="377.4799" fill="#EB937F" rx="6.4879" ry="6.4879" style="stroke:#181818;stroke-width:0.5898123324396782;"/><path d="M840.6945,381.0188 L836.1419,381.0188 L836.1419,373.7106 L840.6945,373.7106 L840.6945,374.9824 L837.5888,374.9824 L837.5888,376.5583 L840.3996,376.5583 L840.3996,377.8301 L837.5888,377.8301 L837.5888,379.747 L840.6945,379.747 L840.6945,381.0188 Z " fill="#000000"/><text fill="#000000" font-family="sans-serif" font-size="8.2574" lengthAdjust="spacing" textLength="44.2359" x="850.3619" y="380.3385">EventType</text><line style="stroke:#181818;stroke-width:0.2949061662198391;" x1="807.1582" x2="918.6327" y1="386.9169" y2="386.9169"/><text fill="#000000" font-family="sans-serif" font-size="8.2574" lengthAdjust="spacing" textLength="67.2386" x="810.1072" y="396.9408">ORDER_PLACED</text><text fill="#000000" font-family="sans-serif" font-size="8.2574" lengthAdjust="spacing" textLength="105.5764" x="810.1072" y="406.5529">ORDER_PRICE_ADJUSTED</text><text fill="#000000" font-family="sans-serif" font-size="8.2574" lengthAdjust="spacing" textLength="79.0349" x="810.1072" y="416.165">ORDER_ACCEPTED</text><text fill="#000000" font-family="sans-serif" font-size="8.2574" lengthAdjust="spacing" textLength="85.5228" x="810.1072" y="425.7771">ORDER_COMPLETED</text><text fill="#000000" font-family="sans-serif" font-size="8.2574" lengthAdjust="spacing" textLength="84.3432" x="810.1072" y="435.3892">ORDER_CANCELLED</text><line style="stroke:#181818;stroke-width:0.2949061662198391;" x1="807.1582" x2="918.6327" y1="439.6959" y2="439.6959"/><ellipse cx="813.0563" cy="447.7459" fill="#84BE84" rx="1.7694" ry="1.7694" style="stroke:#038048;stroke-width:0.5898123324396782;"/><text fill="#000000" font-family="sans-serif" font-size="8.2574" lengthAdjust="spacing" textLength="92.0107" x="818.3646" y="449.7198">getEventClass(): Class</text></g><!--class DefaultEventTypeMapper--><g id="elem_DefaultEventTypeMapper"><rect codeLine="144" fill="#F1F1F1" height="28.311" id="DefaultEventTypeMapper" rx="1.4745" ry="1.4745" style="stroke:#181818;stroke-width:0.2949061662198391;" width="125.63" x="800.0804" y="474.7989"/><ellipse cx="808.9276" cy="484.2359" fill="#ADD1B2" rx="6.4879" ry="6.4879" style="stroke:#181818;stroke-width:0.5898123324396782;"/><path d="M810.6786,487.5628 Q810.3376,487.7379 809.9598,487.8209 Q809.5819,487.913 809.1672,487.913 Q807.6927,487.913 806.9093,486.9454 Q806.1352,485.9685 806.1352,484.1253 Q806.1352,482.2822 806.9093,481.3053 Q807.6927,480.3284 809.1672,480.3284 Q809.5819,480.3284 809.9598,480.4206 Q810.3468,480.5127 810.6786,480.6878 L810.6786,482.2914 Q810.31,481.9504 809.9598,481.7937 Q809.6096,481.6278 809.241,481.6278 Q808.4484,481.6278 808.0429,482.2637 Q807.6374,482.8904 807.6374,484.1253 Q807.6374,485.3603 808.0429,485.9961 Q808.4484,486.6228 809.241,486.6228 Q809.6096,486.6228 809.9598,486.4662 Q810.31,486.3003 810.6786,485.9593 L810.6786,487.5628 Z " fill="#000000"/><text fill="#000000" font-family="sans-serif" font-size="8.2574" lengthAdjust="spacing" textLength="106.756" x="817.185" y="487.0946">DefaultEventTypeMapper</text><line style="stroke:#181818;stroke-width:0.2949061662198391;" x1="800.6702" x2="925.1206" y1="493.6729" y2="493.6729"/><line style="stroke:#181818;stroke-width:0.2949061662198391;" x1="800.6702" x2="925.1206" y1="498.3914" y2="498.3914"/></g><!--class WaypointDto--><g id="elem_WaypointDto"><rect codeLine="151" fill="#F1F1F1" height="57.1473" id="WaypointDto" rx="1.4745" ry="1.4745" style="stroke:#181818;stroke-width:0.2949061662198391;" width="80.8043" x="1092.9223" y="825.4424"/><ellipse cx="1105.2198" cy="834.8794" fill="#ADD1B2" rx="6.4879" ry="6.4879" style="stroke:#181818;stroke-width:0.5898123324396782;"/><path d="M1106.9708,838.2063 Q1106.6299,838.3814 1106.252,838.4643 Q1105.8742,838.5565 1105.4595,838.5565 Q1103.9849,838.5565 1103.2016,837.5888 Q1102.4274,836.6119 1102.4274,834.7688 Q1102.4274,832.9256 1103.2016,831.9487 Q1103.9849,830.9718 1105.4595,830.9718 Q1105.8742,830.9718 1106.252,831.064 Q1106.6391,831.1562 1106.9708,831.3313 L1106.9708,832.9348 Q1106.6022,832.5938 1106.252,832.4372 Q1105.9018,832.2713 1105.5332,832.2713 Q1104.7406,832.2713 1104.3351,832.9072 Q1103.9296,833.5338 1103.9296,834.7688 Q1103.9296,836.0037 1104.3351,836.6396 Q1104.7406,837.2663 1105.5332,837.2663 Q1105.9018,837.2663 1106.252,837.1096 Q1106.6022,836.9437 1106.9708,836.6027 L1106.9708,838.2063 Z " fill="#000000"/><text fill="#000000" font-family="sans-serif" font-size="8.2574" lengthAdjust="spacing" textLength="54.2627" x="1114.244" y="837.738">WaypointDto</text><line style="stroke:#181818;stroke-width:0.2949061662198391;" x1="1093.5121" x2="1173.1367" y1="844.3164" y2="844.3164"/><text fill="#000000" font-family="sans-serif" font-size="8.2574" lengthAdjust="spacing" textLength="63.1099" x="1096.4611" y="854.3403">address: String</text><text fill="#000000" font-family="sans-serif" font-size="8.2574" lengthAdjust="spacing" textLength="66.059" x="1096.4611" y="863.9524">latitude: double</text><text fill="#000000" font-family="sans-serif" font-size="8.2574" lengthAdjust="spacing" textLength="73.7265" x="1096.4611" y="873.5645">longitude: double</text><line style="stroke:#181818;stroke-width:0.2949061662198391;" x1="1093.5121" x2="1173.1367" y1="877.8711" y2="877.8711"/></g><!--class OrderStatus--><g id="elem_OrderStatus"><rect codeLine="157" fill="#F1F1F1" height="76.3715" id="OrderStatus" rx="1.4745" ry="1.4745" style="stroke:#181818;stroke-width:0.2949061662198391;" width="69.008" x="1098.8204" y="903.2976"/><ellipse cx="1107.6676" cy="912.7346" fill="#EB937F" rx="6.4879" ry="6.4879" style="stroke:#181818;stroke-width:0.5898123324396782;"/><path d="M1110.0913,916.2735 L1105.5387,916.2735 L1105.5387,908.9653 L1110.0913,908.9653 L1110.0913,910.2371 L1106.9856,910.2371 L1106.9856,911.813 L1109.7964,911.813 L1109.7964,913.0848 L1106.9856,913.0848 L1106.9856,915.0017 L1110.0913,915.0017 L1110.0913,916.2735 Z " fill="#000000"/><text fill="#000000" font-family="sans-serif" font-size="8.2574" lengthAdjust="spacing" textLength="50.134" x="1115.9249" y="915.5932">OrderStatus</text><line style="stroke:#181818;stroke-width:0.2949061662198391;" x1="1099.4102" x2="1167.2386" y1="922.1716" y2="922.1716"/><text fill="#000000" font-family="sans-serif" font-size="8.2574" lengthAdjust="spacing" textLength="33.0295" x="1102.3592" y="932.1955">PLACED</text><text fill="#000000" font-family="sans-serif" font-size="8.2574" lengthAdjust="spacing" textLength="43.0563" x="1102.3592" y="941.8076">ADJUSTED</text><text fill="#000000" font-family="sans-serif" font-size="8.2574" lengthAdjust="spacing" textLength="44.8257" x="1102.3592" y="951.4197">ACCEPTED</text><text fill="#000000" font-family="sans-serif" font-size="8.2574" lengthAdjust="spacing" textLength="51.3137" x="1102.3592" y="961.0318">COMPLETED</text><text fill="#000000" font-family="sans-serif" font-size="8.2574" lengthAdjust="spacing" textLength="50.134" x="1102.3592" y="970.6439">CANCELLED</text><line style="stroke:#181818;stroke-width:0.2949061662198391;" x1="1099.4102" x2="1167.2386" y1="974.9506" y2="974.9506"/></g><!--link Aggregate to Command--><g id="link_Aggregate_Command"><path codeLine="167" d="M198.0413,517.9024 C234.7866,530.8016 273.7254,544.4746 306.4423,555.9641 " fill="none" id="Aggregate-to-Command" style="stroke:#181818;stroke-width:0.5898123324396782;stroke-dasharray:7.0,7.0;"/><polygon fill="#181818" points="309.7812,557.1367,305.5545,553.1519,306.9988,556.1596,303.9911,557.6038,309.7812,557.1367" style="stroke:#181818;stroke-width:0.5898123324396782;"/></g><!--link Aggregate to Event--><g id="link_Aggregate_Event"><path codeLine="168" d="M147.9072,421.8633 C170.9335,382.3399 205.9861,335.7802 252.1448,313.1903 C345.8954,267.3029 467.2297,302.9056 537.4469,331.2697 " fill="none" id="Aggregate-to-Event" style="stroke:#181818;stroke-width:0.5898123324396782;stroke-dasharray:7.0,7.0;"/><polygon fill="#181818" points="540.7282,332.5952,536.6899,328.4195,537.9938,331.4906,534.9226,332.7945,540.7282,332.5952" style="stroke:#181818;stroke-width:0.5898123324396782;"/></g><!--reverse link Aggregate to OrderAggregate--><g id="link_Aggregate_OrderAggregate"><path codeLine="169" d="M199.2531,562.9963 C203.1754,566.4703 199.1088,562.8638 202.8954,566.2198 C224.7893,585.6129 228.629,592.4783 252.1448,609.866 C373.0386,699.2697 404.8885,722.0306 540.8579,786.2198 C627.7903,827.259 734.1099,861.1732 800.0273,880.4306 " fill="none" id="Aggregate-backto-OrderAggregate" style="stroke:#181818;stroke-width:0.5898123324396782;"/><polygon fill="none" points="191.3056,555.9571,196.9067,565.6455,201.5995,560.3471,191.3056,555.9571" style="stroke:#181818;stroke-width:0.5898123324396782;"/></g><!--reverse link Aggregate to AggregateTypeMapper--><g id="link_Aggregate_AggregateTypeMapper"><path codeLine="171" d="M115.0134,559.5314 C115.0134,566.444 115.0134,569.8236 115.0134,576.7362 " fill="none" id="Aggregate-backto-AggregateTypeMapper" style="stroke:#181818;stroke-width:0.5898123324396782;stroke-dasharray:7.0,7.0;"/><polygon fill="#181818" points="115.0134,555.9925,112.6542,561.3008,115.0134,558.9416,117.3727,561.3008,115.0134,555.9925" style="stroke:#181818;stroke-width:0.5898123324396782;"/></g><!--reverse link AggregateTypeMapper to DefaultAggregateTypeMapper--><g id="link_AggregateTypeMapper_DefaultAggregateTypeMapper"><path codeLine="172" d="M134.1821,623.3974 C156.3826,655.8193 199.2032,714.0681 252.1448,759.0885 C434.6976,914.3448 491.0247,951.4676 716.0322,1033.941 C739.3062,1042.4697 765.7592,1048.0906 789.7056,1051.7769 " fill="none" id="AggregateTypeMapper-backto-DefaultAggregateTypeMapper" style="stroke:#181818;stroke-width:0.5898123324396782;stroke-dasharray:7.0,7.0;"/><polygon fill="none" points="128.1839,614.6375,131.2621,625.3968,137.102,621.398,128.1839,614.6375" style="stroke:#181818;stroke-width:0.5898123324396782;"/></g><!--reverse link OrderAggregate to WaypointDto--><g id="link_OrderAggregate_WaypointDto"><path codeLine="174" d="M932.7501,886.4644 C984.2407,878.1185 1048.8338,867.6493 1092.8987,860.5067 " fill="none" id="OrderAggregate-backto-WaypointDto" style="stroke:#181818;stroke-width:0.5898123324396782;"/><polygon fill="none" points="925.7635,887.5968,929.6343,889.3594,932.7501,886.4644,928.8794,884.7017,925.7635,887.5968" style="stroke:#181818;stroke-width:0.5898123324396782;"/></g><!--reverse link OrderAggregate to OrderStatus--><g id="link_OrderAggregate_OrderStatus"><path codeLine="175" d="M932.7501,908.9244 C986.5705,917.6477 1055.3512,928.7952 1098.7083,935.8257 " fill="none" id="OrderAggregate-backto-OrderStatus" style="stroke:#181818;stroke-width:0.5898123324396782;"/><polygon fill="none" points="925.7635,907.792,928.8794,910.687,932.7501,908.9244,929.6343,906.0293,925.7635,907.792" style="stroke:#181818;stroke-width:0.5898123324396782;"/></g><!--reverse link Command to PlaceOrderCommand--><g id="link_Command_PlaceOrderCommand"><path codeLine="177" d="M430.3684,576.169 C523.3582,576.0569 701.7823,575.8456 799.9684,575.7335 " fill="none" id="Command-backto-PlaceOrderCommand" style="stroke:#181818;stroke-width:0.5898123324396782;"/><polygon fill="none" points="419.7517,576.1818,430.3726,579.7078,430.3641,572.6301,419.7517,576.1818" style="stroke:#181818;stroke-width:0.5898123324396782;"/></g><!--reverse link Command to AdjustOrderPriceCommand--><g id="link_Command_AdjustOrderPriceCommand"><path codeLine="178" d="M429.9144,595.5789 C498.5686,615.892 610.3378,647.9383 716.0322,672.9759 C742.1196,679.1571 771.0263,685.1614 796.2054,690.1217 " fill="none" id="Command-backto-AdjustOrderPriceCommand" style="stroke:#181818;stroke-width:0.5898123324396782;"/><polygon fill="none" points="419.734,592.5668,428.9104,598.9723,430.9185,592.1854,419.734,592.5668" style="stroke:#181818;stroke-width:0.5898123324396782;"/></g><!--reverse link Command to AcceptOrderCommand--><g id="link_Command_AcceptOrderCommand"><path codeLine="179" d="M430.2708,585.1024 C524.8944,598.0193 708.4708,623.0777 805.0702,636.2601 " fill="none" id="Command-backto-AcceptOrderCommand" style="stroke:#181818;stroke-width:0.5898123324396782;"/><polygon fill="none" points="419.7517,583.6665,429.7922,588.6088,430.7495,581.5961,419.7517,583.6665" style="stroke:#181818;stroke-width:0.5898123324396782;"/></g><!--reverse link Command to CompleteOrderCommand--><g id="link_Command_CompleteOrderCommand"><path codeLine="180" d="M414.1962,605.5243 C449.1603,626.0085 492.7233,650.0912 540.8579,671.2064 C616.2418,704.2772 636.2601,711.0601 716.0322,731.3673 C742.9276,738.215 773.0965,743.6885 799.0188,747.7287 " fill="none" id="Command-backto-CompleteOrderCommand" style="stroke:#181818;stroke-width:0.5898123324396782;"/><polygon fill="none" points="405.0359,600.1576,412.4073,608.5778,415.9851,602.4709,405.0359,600.1576" style="stroke:#181818;stroke-width:0.5898123324396782;"/></g><!--reverse link Command to CancelOrderCommand--><g id="link_Command_CancelOrderCommand"><path codeLine="181" d="M393.6246,608.2297 C424.3243,641.9256 477.4826,694.97 540.8579,729.5979 C625.6257,775.9099 738.0676,793.9641 805.0231,800.8944 " fill="none" id="Command-backto-CancelOrderCommand" style="stroke:#181818;stroke-width:0.5898123324396782;"/><polygon fill="none" points="386.4745,600.3818,391.0086,610.613,396.2405,605.8463,386.4745,600.3818" style="stroke:#181818;stroke-width:0.5898123324396782;"/></g><!--reverse link Event to OrderPlacedEvent--><g id="link_Event_OrderPlacedEvent"><path codeLine="183" d="M660.5609,347.9882 C703.9652,341.6477 754.4525,334.2643 799.9271,327.6172 " fill="none" id="Event-backto-OrderPlacedEvent" style="stroke:#181818;stroke-width:0.5898123324396782;"/><polygon fill="none" points="650.0558,349.5228,661.0724,351.4899,660.0494,344.4865,650.0558,349.5228" style="stroke:#181818;stroke-width:0.5898123324396782;"/></g><!--reverse link Event to OrderPriceAdjustedEvent--><g id="link_Event_OrderPriceAdjustedEvent"><path codeLine="184" d="M605.8436,313.7012 C618.8961,261.9275 648.9056,173.3517 716.0322,122.681 C740.1555,104.4735 772.6954,96.859 800.9592,93.9689 " fill="none" id="Event-backto-OrderPriceAdjustedEvent" style="stroke:#181818;stroke-width:0.5898123324396782;"/><polygon fill="none" points="603.2483,323.9957,609.2751,314.5663,602.4121,312.8361,603.2483,323.9957" style="stroke:#181818;stroke-width:0.5898123324396782;"/></g><!--reverse link Event to OrderAcceptedEvent--><g id="link_Event_OrderAcceptedEvent"><path codeLine="185" d="M613.4877,314.3813 C631.3649,273.8258 662.9727,216.1485 716.0322,181.0724 C743.6177,162.8354 780.0976,155.6043 809.7239,152.9324 " fill="none" id="Event-backto-OrderAcceptedEvent" style="stroke:#181818;stroke-width:0.5898123324396782;"/><polygon fill="none" points="609.2054,324.096,616.7259,315.8088,610.2494,312.9539,609.2054,324.096" style="stroke:#181818;stroke-width:0.5898123324396782;"/></g><!--reverse link Event to OrderCompletedEvent--><g id="link_Event_OrderCompletedEvent"><path codeLine="186" d="M624.09,315.3002 C645.4236,285.5796 674.4622,252.1743 716.0322,230.0268 C743.6354,215.3228 777.9861,209.1298 806.4563,206.6761 " fill="none" id="Event-backto-OrderCompletedEvent" style="stroke:#181818;stroke-width:0.5898123324396782;"/><polygon fill="none" points="617.8992,323.9249,626.965,317.3638,621.2151,313.2366,617.8992,323.9249" style="stroke:#181818;stroke-width:0.5898123324396782;"/></g><!--reverse link Event to OrderCancelledEvent--><g id="link_Event_OrderCancelledEvent"><path codeLine="187" d="M646.7431,317.8208 C668.7726,301.9785 688.2638,290.3941 716.0322,279.571 C745.4874,268.0933 780.3276,261.9239 808.615,258.615 " fill="none" id="Event-backto-OrderCancelledEvent" style="stroke:#181818;stroke-width:0.5898123324396782;"/><polygon fill="none" points="638.1239,324.0193,648.8093,320.6939,644.677,314.9477,638.1239,324.0193" style="stroke:#181818;stroke-width:0.5898123324396782;"/></g><!--reverse link EventWithId to Event--><g id="link_EventWithId_Event"><path codeLine="189" d="M427.4233,353.5557 C463.8796,354.3991 504.4311,355.3324 540.7164,356.1759 " fill="none" id="EventWithId-backto-Event" style="stroke:#181818;stroke-width:0.5898123324396782;"/><polygon fill="none" points="420.3475,353.392,423.8308,355.8324,427.4233,353.5557,423.9399,351.1152,420.3475,353.392" style="stroke:#181818;stroke-width:0.5898123324396782;"/></g><!--link EventTypeMapper to Event--><g id="link_EventTypeMapper_Event"><path codeLine="191" d="M442.3651,473.7196 C454.4622,469.9153 466.5592,465.2263 477.4531,459.4638 C510.63,441.9169 539.8972,415.8626 561.9916,393.4144 " fill="none" id="EventTypeMapper-to-Event" style="stroke:#181818;stroke-width:0.5898123324396782;stroke-dasharray:7.0,7.0;"/><polygon fill="#181818" points="564.474,390.8922,559.0689,393.0205,562.4053,392.994,562.4318,396.3304,564.474,390.8922" style="stroke:#181818;stroke-width:0.5898123324396782;"/></g><!--reverse link EventTypeMapper to DefaultEventTypeMapper--><g id="link_EventTypeMapper_DefaultEventTypeMapper"><path codeLine="192" d="M453.1056,488.9544 C551.5158,488.9544 709.2434,488.9544 799.9743,488.9544 " fill="none" id="EventTypeMapper-backto-DefaultEventTypeMapper" style="stroke:#181818;stroke-width:0.5898123324396782;stroke-dasharray:7.0,7.0;"/><polygon fill="none" points="442.489,488.9544,453.1056,492.4933,453.1056,485.4155,442.489,488.9544" style="stroke:#181818;stroke-width:0.5898123324396782;"/></g><!--SRC=[jLVRZjCm47tFLrZQbo9ej22UgXLIDocYgB3LNk0HkSbiQZQDW-sKhQ3_ZkFSVCjsjHALMgapqvdndECpAKzm3cY77z7RytVlqM-IYct01-FRytEq1P9jHH1m48X3YHaMbA625X04ETmB92XYTGXA2OD445e4GOcJ1vm1WZqKWjEA9QJ8mf9oaJ7Wlt9q5giN-XC429sA3bEwmwHeWX726ouOJWHASimvccSoAiC2f1-frndkJCjqXkxkbd7dIBQuo83Fq8fmSR6ewtteV7jWN3O_GwGGdMs3ENnpxN-w5exeTGQYx-3sKCBarGpT22PFq0Q_pYbEFpAw-oHhKdQOQBLbx9wIj8ii6Ks0yqb4TpjSfARtJ5Rw2e-YxQUketMAop8_HEfu4vNR_F5K-RqUKkpf0qokDZybUc_QtlMOOpDsMGpOFKu06UVz8ZC3wsSlcungM2uFvbJwjCghvtqc-c7I3ALZ0MhXZtepGZRyTMKBZIVOSNn9LyflzxHeZITB-cbN4vM1Z4vZ-J53ou8Bh7aj-gbgNkeTkxO6xFfW2pSTkI6X1pKjgtROcsh34qRA-lf7MqWUIagC4SXGiMxe3UajmmN7IYlgWLoIR2aRp83vmrM5EZ2dxj6q9huJiLtgJ23cRn0I9mihF6TDFeiNzViuQ9laOmYFU5Vc41eiCKLjDCnIjUOSLom5vYhQL190L5AtbFz6VUbSZ4YJnQjfoKW2we0n96I7ypwQLZMbb0PznmS5KonefuBJb96z9rqkkUDbunGd2PGZL9tAmyjpZtfnaK2U-xmjl51KErDk-f5SNSUBwquuTH5ML9tubAOPSGptkCh5k8XP2d0Am35XMjSpKtYv4kK5xGdOJWDdtOTv-hFYGbLVrpazBHJmUprIpawc81uxYfSnHqUa5G-yEUnOnOgHo9VWuvNePZIArhPQ_tTm1bWQc3mjF1-SHZ7QI-ZaUGuutQYRcsgcy8PsrtOaL5tQVeTetQWh-sEzcaUBs3PUBwF5Ztdy-Uxcrd7EesYnTitHrPVrQk6npxz6YzLAi_TRqgCDpXbRVHXRbFesU9xComTaG-CrWlHPSPhAnmfkxUyS2oAgLB8WfTKcXyuiLvfhroLJMnDz2MFkrgIj2TkJDIVQRy9XJuNXX-v1pB1ASxD91-F5t-dKMdDQ9ctWOVtlGYOOmdnH5t_3y0b93m9her9PNGF0vzPtRD19a6hRaNJJFIAwLf0ZfgRV9vLMX2EGGT1SnM6schAvFaTvd113JnolgHMksz27jhVssQoUhsxMyUx9OdjqZ2rVy0y0]--></g></svg>