<?xml version="1.0" encoding="us-ascii" standalone="no"?><svg xmlns="http://www.w3.org/2000/svg" xmlns:xlink="http://www.w3.org/1999/xlink" contentStyleType="text/css" height="800.9697px" preserveAspectRatio="none" style="width:696px;height:800px;background:#FFFFFF;" version="1.1" viewBox="0 0 696 800" width="696.2424px" zoomAndPan="magnify"><defs/><g><!--cluster jakarta.persistence--><g id="cluster_jakarta.persistence"><path d="M414.5455,698.1818 L563.8788,698.1818 A3.6364,3.6364 0 0 1 566.303,700.6061 L573.0909,719.803 L662.7879,719.803 A2.4242,2.4242 0 0 1 665.2121,722.2273 L665.2121,791.7576 A2.4242,2.4242 0 0 1 662.7879,794.1818 L414.5455,794.1818 A2.4242,2.4242 0 0 1 412.1212,791.7576 L412.1212,700.6061 A2.4242,2.4242 0 0 1 414.5455,698.1818 " fill="none" style="stroke:#000000;stroke-width:1.4545454545454546;"/><line style="stroke:#000000;stroke-width:1.4545454545454546;" x1="412.1212" x2="573.0909" y1="719.803" y2="719.803"/><text fill="#000000" font-family="sans-serif" font-size="13.5758" font-weight="bold" lengthAdjust="spacing" textLength="148.3636" x="416" y="712.7225">jakarta.persistence</text></g><!--cluster org.springframework.data.domain--><g id="cluster_org.springframework.data.domain"><path d="M412.6061,5.8182 L677.3333,5.8182 A3.6364,3.6364 0 0 1 679.7576,8.2424 L686.5455,27.4394 L687.0303,27.4394 A2.4242,2.4242 0 0 1 689.4545,29.8636 L689.4545,131.3939 A2.4242,2.4242 0 0 1 687.0303,133.8182 L412.6061,133.8182 A2.4242,2.4242 0 0 1 410.1818,131.3939 L410.1818,8.2424 A2.4242,2.4242 0 0 1 412.6061,5.8182 " fill="none" style="stroke:#000000;stroke-width:1.4545454545454546;"/><line style="stroke:#000000;stroke-width:1.4545454545454546;" x1="410.1818" x2="686.5455" y1="27.4394" y2="27.4394"/><text fill="#000000" font-family="sans-serif" font-size="13.5758" font-weight="bold" lengthAdjust="spacing" textLength="263.7576" x="414.0606" y="20.3589">org.springframework.data.domain</text></g><!--cluster com.example.eventsourcing--><g id="cluster_com.example.eventsourcing"><path d="M8.2424,157.0909 L227.3939,157.0909 A3.6364,3.6364 0 0 1 229.8182,159.5152 L236.6061,178.7121 L668.6061,178.7121 A2.4242,2.4242 0 0 1 671.0303,181.1364 L671.0303,672.4848 A2.4242,2.4242 0 0 1 668.6061,674.9091 L8.2424,674.9091 A2.4242,2.4242 0 0 1 5.8182,672.4848 L5.8182,159.5152 A2.4242,2.4242 0 0 1 8.2424,157.0909 " fill="none" style="stroke:#000000;stroke-width:1.4545454545454546;"/><line style="stroke:#000000;stroke-width:1.4545454545454546;" x1="5.8182" x2="236.6061" y1="178.7121" y2="178.7121"/><text fill="#000000" font-family="sans-serif" font-size="13.5758" font-weight="bold" lengthAdjust="spacing" textLength="218.1818" x="9.697" y="171.6316">com.example.eventsourcing</text></g><!--cluster projection--><g id="cluster_projection"><path d="M367.0303,198.7879 L447.5152,198.7879 A3.6364,3.6364 0 0 1 449.9394,201.2121 L456.7273,220.4091 L645.3333,220.4091 A2.4242,2.4242 0 0 1 647.7576,222.8333 L647.7576,633.697 A2.4242,2.4242 0 0 1 645.3333,636.1212 L367.0303,636.1212 A2.4242,2.4242 0 0 1 364.6061,633.697 L364.6061,201.2121 A2.4242,2.4242 0 0 1 367.0303,198.7879 " fill="none" style="stroke:#000000;stroke-width:1.4545454545454546;"/><line style="stroke:#000000;stroke-width:1.4545454545454546;" x1="364.6061" x2="456.7273" y1="220.4091" y2="220.4091"/><text fill="#000000" font-family="sans-serif" font-size="13.5758" font-weight="bold" lengthAdjust="spacing" textLength="79.5152" x="368.4848" y="213.3286">projection</text></g><!--cluster dto--><g id="cluster_dto"><path d="M31.5152,214.303 L58.6667,214.303 A3.6364,3.6364 0 0 1 61.0909,216.7273 L67.8788,235.9242 L338.9091,235.9242 A2.4242,2.4242 0 0 1 341.3333,238.3485 L341.3333,649.2121 A2.4242,2.4242 0 0 1 338.9091,651.6364 L31.5152,651.6364 A2.4242,2.4242 0 0 1 29.0909,649.2121 L29.0909,216.7273 A2.4242,2.4242 0 0 1 31.5152,214.303 " fill="none" style="stroke:#000000;stroke-width:1.4545454545454546;"/><line style="stroke:#000000;stroke-width:1.4545454545454546;" x1="29.0909" x2="67.8788" y1="235.9242" y2="235.9242"/><text fill="#000000" font-family="sans-serif" font-size="13.5758" font-weight="bold" lengthAdjust="spacing" textLength="26.1818" x="32.9697" y="228.8438">dto</text></g><!--class Entity--><g id="elem_Entity"><rect codeLine="9" fill="#F1F1F1" height="46.5455" id="Entity" rx="2.4242" ry="2.4242" style="stroke:#181818;stroke-width:0.48484848484848486;" width="69.8182" x="579.8788" y="732.1212"/><ellipse cx="594.4242" cy="747.6364" fill="#E3664A" rx="10.6667" ry="10.6667" style="stroke:#181818;stroke-width:0.9696969696969697;"/><path d="M596.4394,748.0909 Q596.4394,747.1818 596.0303,746.6667 Q595.6212,746.1515 594.8939,746.1515 Q594.1818,746.1515 593.7727,746.6667 Q593.3788,747.1818 593.3788,748.0909 Q593.3788,749.0152 593.7727,749.5303 Q594.1818,750.0455 594.8939,750.0455 Q595.6212,750.0455 596.0303,749.5303 Q596.4394,749.0152 596.4394,748.0909 Z M597.9394,751.3939 L596.3636,751.3939 L596.3636,750.7424 Q596.0455,751.1667 595.6364,751.3636 Q595.2273,751.5606 594.6364,751.5606 Q593.3182,751.5606 592.5152,750.6212 Q591.7121,749.6667 591.7121,748.0909 Q591.7121,746.5455 592.5152,745.6061 Q593.3182,744.6515 594.6364,744.6515 Q595.2121,744.6515 595.6515,744.8485 Q596.0909,745.0455 596.3636,745.4242 L596.3636,745.0909 Q596.3636,744 595.7576,743.4091 Q595.1515,742.803 594.0455,742.803 Q592.3788,742.803 591.3182,744.2879 Q590.2576,745.7576 590.2576,748.1212 Q590.2576,750.5909 591.4697,752.0455 Q592.697,753.5 594.7424,753.5 Q595.3788,753.5 595.9848,753.3182 Q596.5909,753.1364 597.1515,752.7576 L597.8939,754.1667 Q597.2424,754.6061 596.4697,754.8182 Q595.697,755.0455 594.8182,755.0455 Q592,755.0455 590.3182,753.1667 Q588.6515,751.303 588.6515,748.1212 Q588.6515,745 590.1515,743.1364 Q591.6667,741.2576 594.1515,741.2576 Q595.8939,741.2576 596.9091,742.3182 Q597.9394,743.3788 597.9394,745.197 L597.9394,751.3939 Z " fill="#000000"/><text fill="#000000" font-family="sans-serif" font-size="13.5758" lengthAdjust="spacing" textLength="38.7879" x="608" y="752.3362">Entity</text><line style="stroke:#181818;stroke-width:0.48484848484848486;" x1="580.8485" x2="648.7273" y1="763.1515" y2="763.1515"/><line style="stroke:#181818;stroke-width:0.48484848484848486;" x1="580.8485" x2="648.7273" y1="770.9091" y2="770.9091"/></g><!--class Embeddable--><g id="elem_Embeddable"><rect codeLine="10" fill="#F1F1F1" height="46.5455" id="Embeddable" rx="2.4242" ry="2.4242" style="stroke:#181818;stroke-width:0.48484848484848486;" width="118.303" x="427.6364" y="732.1212"/><ellipse cx="442.1818" cy="747.6364" fill="#E3664A" rx="10.6667" ry="10.6667" style="stroke:#181818;stroke-width:0.9696969696969697;"/><path d="M444.197,748.0909 Q444.197,747.1818 443.7879,746.6667 Q443.3788,746.1515 442.6515,746.1515 Q441.9394,746.1515 441.5303,746.6667 Q441.1364,747.1818 441.1364,748.0909 Q441.1364,749.0152 441.5303,749.5303 Q441.9394,750.0455 442.6515,750.0455 Q443.3788,750.0455 443.7879,749.5303 Q444.197,749.0152 444.197,748.0909 Z M445.697,751.3939 L444.1212,751.3939 L444.1212,750.7424 Q443.803,751.1667 443.3939,751.3636 Q442.9848,751.5606 442.3939,751.5606 Q441.0758,751.5606 440.2727,750.6212 Q439.4697,749.6667 439.4697,748.0909 Q439.4697,746.5455 440.2727,745.6061 Q441.0758,744.6515 442.3939,744.6515 Q442.9697,744.6515 443.4091,744.8485 Q443.8485,745.0455 444.1212,745.4242 L444.1212,745.0909 Q444.1212,744 443.5152,743.4091 Q442.9091,742.803 441.803,742.803 Q440.1364,742.803 439.0758,744.2879 Q438.0152,745.7576 438.0152,748.1212 Q438.0152,750.5909 439.2273,752.0455 Q440.4545,753.5 442.5,753.5 Q443.1364,753.5 443.7424,753.3182 Q444.3485,753.1364 444.9091,752.7576 L445.6515,754.1667 Q445,754.6061 444.2273,754.8182 Q443.4545,755.0455 442.5758,755.0455 Q439.7576,755.0455 438.0758,753.1667 Q436.4091,751.303 436.4091,748.1212 Q436.4091,745 437.9091,743.1364 Q439.4242,741.2576 441.9091,741.2576 Q443.6515,741.2576 444.6667,742.3182 Q445.697,743.3788 445.697,745.197 L445.697,751.3939 Z " fill="#000000"/><text fill="#000000" font-family="sans-serif" font-size="13.5758" lengthAdjust="spacing" textLength="87.2727" x="455.7576" y="752.3362">Embeddable</text><line style="stroke:#181818;stroke-width:0.48484848484848486;" x1="428.6061" x2="544.9697" y1="763.1515" y2="763.1515"/><line style="stroke:#181818;stroke-width:0.48484848484848486;" x1="428.6061" x2="544.9697" y1="770.9091" y2="770.9091"/></g><!--class Persistable--><g id="elem_Persistable"><rect codeLine="15" fill="#F1F1F1" height="78.1515" id="Persistable" rx="2.4242" ry="2.4242" style="stroke:#181818;stroke-width:0.48484848484848486;" width="126.0606" x="443.1515" y="39.7576"/><ellipse cx="466.8606" cy="55.2727" fill="#B4A7E5" rx="10.6667" ry="10.6667" style="stroke:#181818;stroke-width:0.9696969696969697;"/><path d="M462.9061,51.1667 L462.9061,49.0758 L470.0727,49.0758 L470.0727,51.1667 L467.6788,51.1667 L467.6788,59 L470.0727,59 L470.0727,61.0909 L462.9061,61.0909 L462.9061,59 L465.3,59 L465.3,51.1667 L462.9061,51.1667 Z " fill="#000000"/><text fill="#000000" font-family="sans-serif" font-size="13.5758" font-style="italic" lengthAdjust="spacing" textLength="74.6667" x="482.4727" y="59.9725">Persistable</text><line style="stroke:#181818;stroke-width:0.48484848484848486;" x1="444.1212" x2="568.2424" y1="70.7879" y2="70.7879"/><line style="stroke:#181818;stroke-width:0.48484848484848486;" x1="444.1212" x2="568.2424" y1="78.5455" y2="78.5455"/><text fill="#000000" font-family="sans-serif" font-size="13.5758" lengthAdjust="spacing" textLength="97.9394" x="448.9697" y="95.0256">getId(): Object</text><text fill="#000000" font-family="sans-serif" font-size="13.5758" lengthAdjust="spacing" textLength="114.4242" x="448.9697" y="110.8286">isNew(): boolean</text></g><!--class OrderProjection--><g id="elem_OrderProjection"><rect codeLine="25" fill="#F1F1F1" height="220.3788" id="OrderProjection" rx="2.4242" ry="2.4242" style="stroke:#181818;stroke-width:0.9696969696969697;stroke-dasharray:1.0,3.0;" width="251.1515" x="380.6061" y="232.7273"/><ellipse cx="447.7576" cy="248.2424" fill="#ADD1B2" rx="10.6667" ry="10.6667" style="stroke:#181818;stroke-width:0.9696969696969697;"/><path d="M450.6364,253.7121 Q450.0758,254 449.4545,254.1364 Q448.8333,254.2879 448.1515,254.2879 Q445.7273,254.2879 444.4394,252.697 Q443.1667,251.0909 443.1667,248.0606 Q443.1667,245.0303 444.4394,243.4242 Q445.7273,241.8182 448.1515,241.8182 Q448.8333,241.8182 449.4545,241.9697 Q450.0909,242.1212 450.6364,242.4091 L450.6364,245.0455 Q450.0303,244.4848 449.4545,244.2273 Q448.8788,243.9545 448.2727,243.9545 Q446.9697,243.9545 446.303,245 Q445.6364,246.0303 445.6364,248.0606 Q445.6364,250.0909 446.303,251.1364 Q446.9697,252.1667 448.2727,252.1667 Q448.8788,252.1667 449.4545,251.9091 Q450.0303,251.6364 450.6364,251.0758 L450.6364,253.7121 Z " fill="#000000"/><text fill="#000000" font-family="sans-serif" font-size="13.5758" lengthAdjust="spacing" textLength="108.6061" x="467.6364" y="252.9422">OrderProjection</text><line style="stroke:#181818;stroke-width:0.9696969696969697;stroke-dasharray:1.0,3.0;" x1="381.5758" x2="630.7879" y1="263.7576" y2="263.7576"/><rect fill="none" height="5.8182" style="stroke:#C82930;stroke-width:0.9696969696969697;" width="5.8182" x="388.3636" y="274.0833"/><text fill="#000000" font-family="sans-serif" font-size="13.5758" lengthAdjust="spacing" textLength="55.2727" x="400" y="280.2377">id: UUID</text><rect fill="none" height="5.8182" style="stroke:#C82930;stroke-width:0.9696969696969697;" width="5.8182" x="388.3636" y="289.8864"/><text fill="#000000" font-family="sans-serif" font-size="13.5758" lengthAdjust="spacing" textLength="76.6061" x="400" y="296.0407">version: int</text><rect fill="none" height="5.8182" style="stroke:#C82930;stroke-width:0.9696969696969697;" width="5.8182" x="388.3636" y="305.6894"/><text fill="#000000" font-family="sans-serif" font-size="13.5758" lengthAdjust="spacing" textLength="131.8788" x="400" y="311.8438">status: OrderStatus</text><rect fill="none" height="5.8182" style="stroke:#C82930;stroke-width:0.9696969696969697;" width="5.8182" x="388.3636" y="321.4924"/><text fill="#000000" font-family="sans-serif" font-size="13.5758" lengthAdjust="spacing" textLength="88.2424" x="400" y="327.6468">riderId: UUID</text><rect fill="none" height="5.8182" style="stroke:#C82930;stroke-width:0.9696969696969697;" width="5.8182" x="388.3636" y="337.2955"/><text fill="#000000" font-family="sans-serif" font-size="13.5758" lengthAdjust="spacing" textLength="123.1515" x="400" y="343.4498">price: BigDecimal</text><rect fill="none" height="5.8182" style="stroke:#C82930;stroke-width:0.9696969696969697;" width="5.8182" x="388.3636" y="353.0985"/><text fill="#000000" font-family="sans-serif" font-size="13.5758" lengthAdjust="spacing" textLength="225.9394" x="400" y="359.2528">route: List&lt;WaypointProjection&gt;</text><rect fill="none" height="5.8182" style="stroke:#C82930;stroke-width:0.9696969696969697;" width="5.8182" x="388.3636" y="368.9015"/><text fill="#000000" font-family="sans-serif" font-size="13.5758" lengthAdjust="spacing" textLength="96" x="400" y="375.0559">driverId: UUID</text><rect fill="none" height="5.8182" style="stroke:#C82930;stroke-width:0.9696969696969697;" width="5.8182" x="388.3636" y="384.7045"/><text fill="#000000" font-family="sans-serif" font-size="13.5758" lengthAdjust="spacing" textLength="134.7879" x="400" y="390.8589">placedDate: Instant</text><rect fill="none" height="5.8182" style="stroke:#C82930;stroke-width:0.9696969696969697;" width="5.8182" x="388.3636" y="400.5076"/><text fill="#000000" font-family="sans-serif" font-size="13.5758" lengthAdjust="spacing" textLength="152.2424" x="400" y="406.6619">acceptedDate: Instant</text><rect fill="none" height="5.8182" style="stroke:#C82930;stroke-width:0.9696969696969697;" width="5.8182" x="388.3636" y="416.3106"/><text fill="#000000" font-family="sans-serif" font-size="13.5758" lengthAdjust="spacing" textLength="161.9394" x="400" y="422.465">completedDate: Instant</text><rect fill="none" height="5.8182" style="stroke:#C82930;stroke-width:0.9696969696969697;" width="5.8182" x="388.3636" y="432.1136"/><text fill="#000000" font-family="sans-serif" font-size="13.5758" lengthAdjust="spacing" textLength="155.1515" x="400" y="438.268">cancelledDate: Instant</text><line style="stroke:#181818;stroke-width:0.9696969696969697;stroke-dasharray:1.0,3.0;" x1="381.5758" x2="630.7879" y1="445.3485" y2="445.3485"/></g><!--class WaypointProjection--><g id="elem_WaypointProjection"><rect codeLine="39" fill="#F1F1F1" height="93.9545" id="WaypointProjection" rx="2.4242" ry="2.4242" style="stroke:#181818;stroke-width:0.9696969696969697;stroke-dasharray:1.0,3.0;" width="164.8485" x="401.4545" y="526.5455"/><ellipse cx="416" cy="542.0606" fill="#ADD1B2" rx="10.6667" ry="10.6667" style="stroke:#181818;stroke-width:0.9696969696969697;"/><path d="M418.8788,547.5303 Q418.3182,547.8182 417.697,547.9545 Q417.0758,548.1061 416.3939,548.1061 Q413.9697,548.1061 412.6818,546.5152 Q411.4091,544.9091 411.4091,541.8788 Q411.4091,538.8485 412.6818,537.2424 Q413.9697,535.6364 416.3939,535.6364 Q417.0758,535.6364 417.697,535.7879 Q418.3333,535.9394 418.8788,536.2273 L418.8788,538.8636 Q418.2727,538.303 417.697,538.0455 Q417.1212,537.7727 416.5152,537.7727 Q415.2121,537.7727 414.5455,538.8182 Q413.8788,539.8485 413.8788,541.8788 Q413.8788,543.9091 414.5455,544.9545 Q415.2121,545.9848 416.5152,545.9848 Q417.1212,545.9848 417.697,545.7273 Q418.2727,545.4545 418.8788,544.8939 L418.8788,547.5303 Z " fill="#000000"/><text fill="#000000" font-family="sans-serif" font-size="13.5758" lengthAdjust="spacing" textLength="133.8182" x="429.5758" y="546.7604">WaypointProjection</text><line style="stroke:#181818;stroke-width:0.9696969696969697;stroke-dasharray:1.0,3.0;" x1="402.4242" x2="565.3333" y1="557.5758" y2="557.5758"/><rect fill="none" height="5.8182" style="stroke:#C82930;stroke-width:0.9696969696969697;" width="5.8182" x="409.2121" y="567.9015"/><text fill="#000000" font-family="sans-serif" font-size="13.5758" lengthAdjust="spacing" textLength="103.7576" x="420.8485" y="574.0559">address: String</text><rect fill="none" height="5.8182" style="stroke:#C82930;stroke-width:0.9696969696969697;" width="5.8182" x="409.2121" y="583.7045"/><text fill="#000000" font-family="sans-serif" font-size="13.5758" lengthAdjust="spacing" textLength="108.6061" x="420.8485" y="589.8589">latitude: double</text><rect fill="none" height="5.8182" style="stroke:#C82930;stroke-width:0.9696969696969697;" width="5.8182" x="409.2121" y="599.5076"/><text fill="#000000" font-family="sans-serif" font-size="13.5758" lengthAdjust="spacing" textLength="121.2121" x="420.8485" y="605.6619">longitude: double</text><line style="stroke:#181818;stroke-width:0.9696969696969697;stroke-dasharray:1.0,3.0;" x1="402.4242" x2="565.3333" y1="612.7424" y2="612.7424"/></g><!--class OrderDto--><g id="elem_OrderDto"><rect codeLine="48" fill="#F1F1F1" height="188.7727" id="OrderDto" rx="2.4242" ry="2.4242" style="stroke:#181818;stroke-width:0.9696969696969697;stroke-dasharray:1.0,3.0;" width="192.9697" x="88.7273" y="248.2424"/><ellipse cx="149.0909" cy="263.7576" fill="#ADD1B2" rx="10.6667" ry="10.6667" style="stroke:#181818;stroke-width:0.9696969696969697;"/><path d="M151.9697,269.2273 Q151.4091,269.5152 150.7879,269.6515 Q150.1667,269.803 149.4848,269.803 Q147.0606,269.803 145.7727,268.2121 Q144.5,266.6061 144.5,263.5758 Q144.5,260.5455 145.7727,258.9394 Q147.0606,257.3333 149.4848,257.3333 Q150.1667,257.3333 150.7879,257.4848 Q151.4242,257.6364 151.9697,257.9242 L151.9697,260.5606 Q151.3636,260 150.7879,259.7424 Q150.2121,259.4697 149.6061,259.4697 Q148.303,259.4697 147.6364,260.5152 Q146.9697,261.5455 146.9697,263.5758 Q146.9697,265.6061 147.6364,266.6515 Q148.303,267.6818 149.6061,267.6818 Q150.2121,267.6818 150.7879,267.4242 Q151.3636,267.1515 151.9697,266.5909 L151.9697,269.2273 Z " fill="#000000"/><text fill="#000000" font-family="sans-serif" font-size="13.5758" lengthAdjust="spacing" textLength="64" x="168.9697" y="268.4574">OrderDto</text><line style="stroke:#181818;stroke-width:0.9696969696969697;stroke-dasharray:1.0,3.0;" x1="89.697" x2="280.7273" y1="279.2727" y2="279.2727"/><text fill="#000000" font-family="sans-serif" font-size="13.5758" lengthAdjust="spacing" textLength="93.0909" x="94.5455" y="295.7528">orderId: UUID</text><text fill="#000000" font-family="sans-serif" font-size="13.5758" lengthAdjust="spacing" textLength="122.1818" x="94.5455" y="311.5559">eventType: String</text><text fill="#000000" font-family="sans-serif" font-size="13.5758" lengthAdjust="spacing" textLength="155.1515" x="94.5455" y="327.3589">eventTimestamp: long</text><text fill="#000000" font-family="sans-serif" font-size="13.5758" lengthAdjust="spacing" textLength="76.6061" x="94.5455" y="343.1619">version: int</text><text fill="#000000" font-family="sans-serif" font-size="13.5758" lengthAdjust="spacing" textLength="131.8788" x="94.5455" y="358.965">status: OrderStatus</text><text fill="#000000" font-family="sans-serif" font-size="13.5758" lengthAdjust="spacing" textLength="88.2424" x="94.5455" y="374.768">riderId: UUID</text><text fill="#000000" font-family="sans-serif" font-size="13.5758" lengthAdjust="spacing" textLength="123.1515" x="94.5455" y="390.571">price: BigDecimal</text><text fill="#000000" font-family="sans-serif" font-size="13.5758" lengthAdjust="spacing" textLength="181.3333" x="94.5455" y="406.3741">route: List&lt;WaypointDto&gt;</text><text fill="#000000" font-family="sans-serif" font-size="13.5758" lengthAdjust="spacing" textLength="96" x="94.5455" y="422.1771">driverId: UUID</text><line style="stroke:#181818;stroke-width:0.9696969696969697;stroke-dasharray:1.0,3.0;" x1="89.697" x2="280.7273" y1="429.2576" y2="429.2576"/></g><!--class WaypointDto--><g id="elem_WaypointDto"><rect codeLine="60" fill="#F1F1F1" height="93.9545" id="WaypointDto" rx="2.4242" ry="2.4242" style="stroke:#181818;stroke-width:0.9696969696969697;stroke-dasharray:1.0,3.0;" width="132.8485" x="45.0909" y="526.5455"/><ellipse cx="65.3091" cy="542.0606" fill="#ADD1B2" rx="10.6667" ry="10.6667" style="stroke:#181818;stroke-width:0.9696969696969697;"/><path d="M68.1879,547.5303 Q67.6273,547.8182 67.0061,547.9545 Q66.3848,548.1061 65.703,548.1061 Q63.2788,548.1061 61.9909,546.5152 Q60.7182,544.9091 60.7182,541.8788 Q60.7182,538.8485 61.9909,537.2424 Q63.2788,535.6364 65.703,535.6364 Q66.3848,535.6364 67.0061,535.7879 Q67.6424,535.9394 68.1879,536.2273 L68.1879,538.8636 Q67.5818,538.303 67.0061,538.0455 Q66.4303,537.7727 65.8242,537.7727 Q64.5212,537.7727 63.8545,538.8182 Q63.1879,539.8485 63.1879,541.8788 Q63.1879,543.9091 63.8545,544.9545 Q64.5212,545.9848 65.8242,545.9848 Q66.4303,545.9848 67.0061,545.7273 Q67.5818,545.4545 68.1879,544.8939 L68.1879,547.5303 Z " fill="#000000"/><text fill="#000000" font-family="sans-serif" font-size="13.5758" lengthAdjust="spacing" textLength="89.2121" x="80.1455" y="546.7604">WaypointDto</text><line style="stroke:#181818;stroke-width:0.9696969696969697;stroke-dasharray:1.0,3.0;" x1="46.0606" x2="176.9697" y1="557.5758" y2="557.5758"/><text fill="#000000" font-family="sans-serif" font-size="13.5758" lengthAdjust="spacing" textLength="103.7576" x="50.9091" y="574.0559">address: String</text><text fill="#000000" font-family="sans-serif" font-size="13.5758" lengthAdjust="spacing" textLength="108.6061" x="50.9091" y="589.8589">latitude: double</text><text fill="#000000" font-family="sans-serif" font-size="13.5758" lengthAdjust="spacing" textLength="121.2121" x="50.9091" y="605.6619">longitude: double</text><line style="stroke:#181818;stroke-width:0.9696969696969697;stroke-dasharray:1.0,3.0;" x1="46.0606" x2="176.9697" y1="612.7424" y2="612.7424"/></g><!--class OrderStatus--><g id="elem_OrderStatus"><rect codeLine="66" fill="#F1F1F1" height="125.5606" id="OrderStatus" rx="2.4242" ry="2.4242" style="stroke:#181818;stroke-width:0.9696969696969697;stroke-dasharray:1.0,3.0;" width="113.4545" x="211.8788" y="511.0303"/><ellipse cx="226.4242" cy="526.5455" fill="#EB937F" rx="10.6667" ry="10.6667" style="stroke:#181818;stroke-width:0.9696969696969697;"/><path d="M230.4091,532.3636 L222.9242,532.3636 L222.9242,520.3485 L230.4091,520.3485 L230.4091,522.4394 L225.303,522.4394 L225.303,525.0303 L229.9242,525.0303 L229.9242,527.1212 L225.303,527.1212 L225.303,530.2727 L230.4091,530.2727 L230.4091,532.3636 Z " fill="#000000"/><text fill="#000000" font-family="sans-serif" font-size="13.5758" lengthAdjust="spacing" textLength="82.4242" x="240" y="531.2453">OrderStatus</text><line style="stroke:#181818;stroke-width:0.9696969696969697;stroke-dasharray:1.0,3.0;" x1="212.8485" x2="324.3636" y1="542.0606" y2="542.0606"/><text fill="#000000" font-family="sans-serif" font-size="13.5758" lengthAdjust="spacing" textLength="54.303" x="217.697" y="558.5407">PLACED</text><text fill="#000000" font-family="sans-serif" font-size="13.5758" lengthAdjust="spacing" textLength="70.7879" x="217.697" y="574.3438">ADJUSTED</text><text fill="#000000" font-family="sans-serif" font-size="13.5758" lengthAdjust="spacing" textLength="73.697" x="217.697" y="590.1468">ACCEPTED</text><text fill="#000000" font-family="sans-serif" font-size="13.5758" lengthAdjust="spacing" textLength="84.3636" x="217.697" y="605.9498">COMPLETED</text><text fill="#000000" font-family="sans-serif" font-size="13.5758" lengthAdjust="spacing" textLength="82.4242" x="217.697" y="621.7528">CANCELLED</text><line style="stroke:#181818;stroke-width:0.9696969696969697;stroke-dasharray:1.0,3.0;" x1="212.8485" x2="324.3636" y1="628.8333" y2="628.8333"/></g><!--reverse link Persistable to OrderProjection--><g id="link_Persistable_OrderProjection"><path codeLine="76" d="M506.1818,137.8133 C506.1818,165.6727 506.1818,200.0485 506.1818,232.5721 " fill="none" id="Persistable-backto-OrderProjection" style="stroke:#181818;stroke-width:0.9696969696969697;stroke-dasharray:7.0,7.0;"/><polygon fill="none" points="499.3939,137.7455,506.1818,118.3515,512.9697,137.7455,499.3939,137.7455" style="stroke:#181818;stroke-width:0.9696969696969697;"/></g><!--reverse link OrderProjection to WaypointProjection--><g id="link_OrderProjection_WaypointProjection"><path codeLine="77" d="M494.2836,465.8812 C492.1794,487.4764 490.1042,508.6933 488.3782,526.4582 " fill="none" id="OrderProjection-backto-WaypointProjection" style="stroke:#181818;stroke-width:0.9696969696969697;"/><polygon fill="#181818" points="495.5248,453.1588,491.0953,458.5694,494.386,464.7393,498.8156,459.3287,495.5248,453.1588" style="stroke:#181818;stroke-width:0.9696969696969697;"/></g><!--reverse link OrderProjection to OrderStatus--><g id="link_OrderProjection_OrderStatus"><path codeLine="78" d="M383.3406,462.0897 C363.1612,481.5321 343.137,500.8194 325.5952,517.7115 " fill="none" id="OrderProjection-backto-OrderStatus" style="stroke:#181818;stroke-width:0.9696969696969697;"/><polygon fill="none" points="392.6109,453.1588,385.7307,454.4074,384.237,461.2386,391.1173,459.99,392.6109,453.1588" style="stroke:#181818;stroke-width:0.9696969696969697;"/></g><!--link OrderProjection to Entity--><g id="link_OrderProjection_Entity"><path codeLine="79" d="M562.6473,453.0327 C570.7636,472 578.2206,491.8012 583.7576,511.0303 C605.6727,587.103 612.1212,680.9891 614.0121,726.7394 " fill="none" id="OrderProjection-to-Entity" style="stroke:#181818;stroke-width:0.9696969696969697;stroke-dasharray:7.0,7.0;"/><polygon fill="#181818" points="614.2061,731.8109,617.7582,722.9457,614.0261,726.9658,610.006,723.2336,614.2061,731.8109" style="stroke:#181818;stroke-width:0.9696969696969697;"/></g><!--link WaypointProjection to Embeddable--><g id="link_WaypointProjection_Embeddable"><path codeLine="80" d="M484.6255,620.8679 C485.1685,654.4776 485.8861,698.8218 486.3418,726.9818 " fill="none" id="WaypointProjection-to-Embeddable" style="stroke:#181818;stroke-width:0.9696969696969697;stroke-dasharray:7.0,7.0;"/><polygon fill="#181818" points="486.4291,732.0436,490.1828,723.2618,486.3598,727.1956,482.426,723.3727,486.4291,732.0436" style="stroke:#181818;stroke-width:0.9696969696969697;"/></g><!--reverse link OrderDto to WaypointDto--><g id="link_OrderDto_WaypointDto"><path codeLine="82" d="M151.0691,449.7842 C142.4097,476.6642 133.5564,504.1552 126.4291,526.303 " fill="none" id="OrderDto-backto-WaypointDto" style="stroke:#181818;stroke-width:0.9696969696969697;"/><polygon fill="none" points="155.0255,437.4982,149.5494,441.8466,151.4572,448.5739,156.9332,444.2255,155.0255,437.4982" style="stroke:#181818;stroke-width:0.9696969696969697;"/></g><!--reverse link OrderDto to OrderStatus--><g id="link_OrderDto_OrderStatus"><path codeLine="83" d="M223.7285,449.4448 C231.3697,470.4291 239.1661,491.8109 246.0606,510.7394 " fill="none" id="OrderDto-backto-OrderStatus" style="stroke:#181818;stroke-width:0.9696969696969697;"/><polygon fill="none" points="219.3745,437.4982,217.7182,444.2918,223.3522,448.4336,225.0085,441.64,219.3745,437.4982" style="stroke:#181818;stroke-width:0.9696969696969697;"/></g><!--SRC=[TLHDZzem43tNlyBINjfAHBJgeOfMAr6I0nLTa7PH3rKFWpqRl2HsP3kmgEM_TmA4fC7XWkQzqRpvUB4Ja2Clu8r_6d_-mlTA-WrpL_3hUCmtgBADPyoXvmvBiE2DvTfePAm4iOKC-IjimNg8IhHEEOzQ8F_36EUWjV7WbT4yrLxvGmyhrYWbh7DanxQQiLdaIgjqzcAXmBsnsqW2bPUc0ANFbPNsQ5-0X9PdqReAKPn-6VgPVFyXvelrAmfFs3lb7d5VGsjZSWHDsB6hAKmHuHiKPOuHxb1xPoehg8MpMfDMMbDNh7i_uPoB79pZ2olHBbloxkwNDDwZ_7rfYVEHaZ5VhMP94-_glesEwr4QZCRmbOlFzPvEGKDPHT2iLuEs933ctrIMe505vDTiKtaYvhIO-vzmA0s9jFqzD6dIgbsWQavxbGdK5MQQUceR126mz0CaBP7sDyW2sIBFG-onkylRTeFh12ajEjhLaw-jqi0vESjNaWIagMfZDRZHsIrnP1Vnvi3Icy1b4q83FHXxUvAJUPuF9VOQE-EgG9gwA6DUztEX0aOOza781aCk29c0Hcck7pX-y103quSFCB3_eVMV_b1NHNVKaDfoFfccpS2JvFlgwRaDfzDqsORJnO_bFEt4ayTfEf-dIUVafDnzD-x_Hb7_8sRzZ_hZQ1GmvqsQeRJktVfy53qqZs70wYUsVHRPrN-ceqxn_qHNxny0]--></g></svg>