<?xml version="1.0" encoding="us-ascii" standalone="no"?><svg xmlns="http://www.w3.org/2000/svg" xmlns:xlink="http://www.w3.org/1999/xlink" contentStyleType="text/css" height="503px" preserveAspectRatio="none" style="width:581px;height:503px;background:#FFFFFF;" version="1.1" viewBox="0 0 581 503" width="581px" zoomAndPan="magnify"><defs/><g><!--cluster Service A (Bounded Context)--><g id="cluster_Service A (Bounded Context)"><rect fill="none" height="490.5" rx="2.5" ry="2.5" style="stroke:#808080;stroke-width:1.0;stroke-dasharray:7.0,7.0;" width="345" x="7" y="7"/><text fill="#000000" font-family="sans-serif" font-size="14" font-weight="bold" lengthAdjust="spacing" textLength="231" x="64" y="21.9951">Service A (Bounded Context)</text></g><!--entity API--><g id="elem_API"><rect fill="#F1F1F1" height="36.2969" rx="2.5" ry="2.5" style="stroke:#181818;stroke-width:0.5;" width="42" x="25" y="42"/><text fill="#000000" font-family="sans-serif" font-size="14" lengthAdjust="spacing" textLength="22" x="35" y="64.9951">API</text></g><!--entity CommandHandler--><g id="elem_CommandHandler"><rect fill="#ADD8E6" height="36.2969" rx="2.5" ry="2.5" style="stroke:#181818;stroke-width:0.5;" width="155" x="177.5" y="42"/><text fill="#000000" font-family="sans-serif" font-size="14" lengthAdjust="spacing" textLength="135" x="187.5" y="64.9951">Command Handler</text></g><!--entity DomainModel--><g id="elem_DomainModel"><rect fill="#ADD8E6" height="36.2969" rx="2.5" ry="2.5" style="stroke:#181818;stroke-width:0.5;" width="123" x="166.5" y="170"/><text fill="#000000" font-family="sans-serif" font-size="14" lengthAdjust="spacing" textLength="103" x="176.5" y="192.9951">Domain Model</text></g><!--entity EventHandler--><g id="elem_EventHandler"><rect fill="#ADD8E6" height="36.2969" rx="2.5" ry="2.5" style="stroke:#181818;stroke-width:0.5;" width="121" x="127.5" y="445.5"/><text fill="#000000" font-family="sans-serif" font-size="14" lengthAdjust="spacing" textLength="101" x="137.5" y="468.4951">Event Handler</text></g><!--entity EventStore--><g id="elem_EventStore"><path d="M196,293 C196,283 226,283 226,283 C226,283 256,283 256,293 L256,334.5938 C256,344.5938 226,344.5938 226,344.5938 C226,344.5938 196,344.5938 196,334.5938 L196,293 " fill="#ADD8E6" style="stroke:#181818;stroke-width:0.5;"/><path d="M196,293 C196,303 226,303 226,303 C226,303 256,303 256,293 " fill="none" style="stroke:#181818;stroke-width:0.5;"/><text fill="#000000" font-family="sans-serif" font-size="14" lengthAdjust="spacing" textLength="40" x="206" y="319.9951">Event</text><text fill="#000000" font-family="sans-serif" font-size="14" lengthAdjust="spacing" textLength="38" x="207" y="336.292">Store</text></g><!--entity Repositories--><g id="elem_Repositories"><rect fill="#90EE90" height="36.2969" rx="2.5" ry="2.5" style="stroke:#181818;stroke-width:0.5;" width="108" x="23" y="170"/><text fill="#000000" font-family="sans-serif" font-size="14" lengthAdjust="spacing" textLength="88" x="33" y="192.9951">Repositories</text></g><!--entity ReadDB--><g id="elem_ReadDB"><path d="M28,293 C28,283 72,283 72,283 C72,283 116,283 116,293 L116,334.5938 C116,344.5938 72,344.5938 72,344.5938 C72,344.5938 28,344.5938 28,334.5938 L28,293 " fill="#90EE90" style="stroke:#181818;stroke-width:0.5;"/><path d="M28,293 C28,303 72,303 72,303 C72,303 116,303 116,293 " fill="none" style="stroke:#181818;stroke-width:0.5;"/><text fill="#000000" font-family="sans-serif" font-size="14" lengthAdjust="spacing" textLength="37" x="53.5" y="319.9951">Read</text><text fill="#000000" font-family="sans-serif" font-size="14" lengthAdjust="spacing" textLength="68" x="38" y="336.292">Database</text></g><!--entity sB--><g id="elem_sB"><rect fill="#F1F1F1" height="52.5938" rx="2.5" ry="2.5" style="stroke:#181818;stroke-width:0.5;" width="171" x="404.5" y="437"/><text fill="#000000" font-family="sans-serif" font-size="14" font-weight="bold" lengthAdjust="spacing" textLength="75" x="452.5" y="459.9951">Service B</text><text fill="#000000" font-family="sans-serif" font-size="14" font-weight="bold" lengthAdjust="spacing" textLength="151" x="414.5" y="476.292">(Bounded Context)</text></g><!--link API to CommandHandler--><g id="link_API_CommandHandler"><path d="M67.19,60 C91.82,60 133.97,60 172.11,60 " fill="none" id="API-to-CommandHandler" style="stroke:#181818;stroke-width:1.0;"/><polygon fill="#181818" points="177.22,60,168.22,56,172.22,60,168.22,64,177.22,60" style="stroke:#181818;stroke-width:1.0;"/><text fill="#000000" font-family="sans-serif" font-size="13" lengthAdjust="spacing" textLength="74" x="85.25" y="53.0669">Commands</text></g><!--link API to Repositories--><g id="link_API_Repositories"><path d="M50.25,78.26 C55.79,100.78 65.5,140.24 71.57,164.92 " fill="none" id="API-to-Repositories" style="stroke:#181818;stroke-width:1.0;"/><polygon fill="#181818" points="72.81,169.95,74.5346,160.2533,71.6108,165.0959,66.7681,162.1721,72.81,169.95" style="stroke:#181818;stroke-width:1.0;"/><text fill="#000000" font-family="sans-serif" font-size="13" lengthAdjust="spacing" textLength="50" x="67" y="128.5669">Queries</text></g><!--link CommandHandler to DomainModel--><g id="link_CommandHandler_DomainModel"><path d="M251.3,78.26 C246.48,100.78 238.02,140.24 232.73,164.92 " fill="none" id="CommandHandler-to-DomainModel" style="stroke:#181818;stroke-width:1.0;"/><polygon fill="#181818" points="231.65,169.95,237.4406,161.9833,232.6937,165.0602,229.6169,160.3133,231.65,169.95" style="stroke:#181818;stroke-width:1.0;"/><text fill="#000000" font-family="sans-serif" font-size="13" lengthAdjust="spacing" textLength="107" x="245" y="121.0669">Read aggregate;</text><text fill="#000000" font-family="sans-serif" font-size="13" lengthAdjust="spacing" textLength="128" x="245" y="136.1997">Append new events</text></g><!--link DomainModel to EventStore--><g id="link_DomainModel_EventStore"><path d="M227.64,211.34 C227.34,229.75 226.92,256.22 226.57,277.53 " fill="none" id="DomainModel-EventStore" style="stroke:#181818;stroke-width:1.0;"/><polygon fill="#181818" points="227.72,206.24,223.5663,215.1701,227.6343,211.2393,231.5651,215.3072,227.72,206.24" style="stroke:#181818;stroke-width:1.0;"/><polygon fill="#181818" points="226.49,282.55,230.6437,273.6199,226.5757,277.5507,222.6449,273.4828,226.49,282.55" style="stroke:#181818;stroke-width:1.0;"/></g><!--link EventStore to EventHandler--><g id="link_EventStore_EventHandler"><path d="M218.22,345.2 C210.96,373.37 200.3,414.75 193.77,440.09 " fill="none" id="EventStore-to-EventHandler" style="stroke:#181818;stroke-width:1.0;"/><polygon fill="#181818" points="192.45,445.24,198.5617,437.5168,193.6929,440.3969,190.8128,435.5282,192.45,445.24" style="stroke:#181818;stroke-width:1.0;"/><text fill="#000000" font-family="sans-serif" font-size="13" lengthAdjust="spacing" textLength="102" x="211" y="388.0669">Get new events</text><text fill="#000000" font-family="sans-serif" font-size="13" lengthAdjust="spacing" textLength="109" x="211" y="403.1997">in near real-time</text></g><!--reverse link ReadDB to EventHandler--><g id="link_ReadDB_EventHandler"><path d="M60.79,350.11 C57.12,368.41 56.34,390.39 67,407 C80.54,428.11 104.34,441.29 127.27,449.48 " fill="none" id="ReadDB-backto-EventHandler" style="stroke:#181818;stroke-width:1.0;"/><polygon fill="#181818" points="61.89,345.05,56.055,352.9843,60.819,349.9339,63.8693,354.6979,61.89,345.05" style="stroke:#181818;stroke-width:1.0;"/><text fill="#000000" font-family="sans-serif" font-size="13" lengthAdjust="spacing" textLength="125" x="68" y="395.5669">Update read model</text></g><!--link Repositories to ReadDB--><g id="link_Repositories_ReadDB"><path d="M76.3,206.24 C75.57,224.55 74.38,254.02 73.44,277.36 " fill="none" id="Repositories-to-ReadDB" style="stroke:#181818;stroke-width:1.0;"/><polygon fill="#181818" points="73.23,282.55,77.5865,273.7171,73.4298,277.554,69.5929,273.3973,73.23,282.55" style="stroke:#181818;stroke-width:1.0;"/><text fill="#000000" font-family="sans-serif" font-size="13" lengthAdjust="spacing" textLength="104" x="77" y="249.0669">Execute queries</text></g><!--link EventHandler to sB--><g id="link_EventHandler_sB"><path d="M248.75,463.5 C291.88,463.5 350.52,463.5 399.18,463.5 " fill="none" id="EventHandler-to-sB" style="stroke:#181818;stroke-width:1.0;"/><polygon fill="#181818" points="404.46,463.5,395.46,459.5,399.46,463.5,395.46,467.5,404.46,463.5" style="stroke:#181818;stroke-width:1.0;"/><text fill="#000000" font-family="sans-serif" font-size="13" lengthAdjust="spacing" textLength="119" x="267" y="426.5669">Integration events</text><text fill="#000000" font-family="sans-serif" font-size="13" lengthAdjust="spacing" textLength="82" x="267" y="441.6997">representing</text><text fill="#000000" font-family="sans-serif" font-size="13" lengthAdjust="spacing" textLength="103" x="267" y="456.8325">aggregate state</text></g><!--SRC=[TLB1Rjim3BthAuZqiXb8aGqx3EvG84wAheS1MxFTV64jLX4gIvuajoc6_VienqdbTBr8ujFZ8_MeqA0XQ7477nOVFy6Jbd4hmX7yl5Z0bhJQHY72WxOTUcn1qZts9lwaNLmQhMnBDaB32_cCrRYsSvRHJNncEKzDHAiCPPGEcmTKT4fupO0_0g1oNf9VEUCyN7jw5d-5EDpFDkGVTKEmX7ULwwqa2Il77UtY-ncS6MtfN6BOCfoaZht1yllD99wjNDkYbV2L5qD-1XXWn4OeoR4ZTwQdQUhQjQWjV7EIp92t1uRupQIhnxJbrGRalxKaHhp3G6DMRJVHUNf96iAtAjrIvu9cXgOmSfGdiXFTMq9Ps_KO3ye9MbUJ33O-Uq5H7ColYgAsHV5g0aKnA8LA2FORvfSdZfQ7EEplcP1tMyAFdj91d0mY4JEFow5NGCLTAenqKPjbrn4Fqz8JK78eYCoeB_E-cohajqay7qK9rnGpfPe_5OVe-UUYcKVTafYCRg- -jw-4Nnsxd7uvTzWEjIO3cMVKgnqrFND_Zw-Ugleq1sO7PjwmlyfZrCuUk_BKUGfyrbRLvcW6XCYh-0S0]--></g></svg>