<?xml version="1.0" encoding="us-ascii" standalone="no"?><svg xmlns="http://www.w3.org/2000/svg" xmlns:xlink="http://www.w3.org/1999/xlink" contentStyleType="text/css" height="376px" preserveAspectRatio="none" style="width:598px;height:376px;background:#FFFFFF;" version="1.1" viewBox="0 0 598 376" width="598px" zoomAndPan="magnify"><defs/><g><!--cluster Service A (Bounded Context)--><g id="cluster_Service A (Bounded Context)"><rect fill="none" height="363.5" rx="2.5" ry="2.5" style="stroke:#808080;stroke-width:1.0;stroke-dasharray:7.0,7.0;" width="398" x="7" y="7"/><text fill="#000000" font-family="sans-serif" font-size="14" font-weight="bold" lengthAdjust="spacing" textLength="231" x="90.5" y="21.9951">Service A (Bounded Context)</text></g><!--entity API--><g id="elem_API"><rect fill="#F1F1F1" height="36.2969" rx="2.5" ry="2.5" style="stroke:#181818;stroke-width:0.5;" width="42" x="210" y="42"/><text fill="#000000" font-family="sans-serif" font-size="14" lengthAdjust="spacing" textLength="22" x="220" y="64.9951">API</text></g><!--entity query--><g id="elem_query"><rect fill="#90EE90" height="52.5938" rx="2.5" ry="2.5" style="stroke:#181818;stroke-width:0.5;" width="127" x="23.5" y="178.5"/><text fill="#000000" font-family="sans-serif" font-size="14" lengthAdjust="spacing" textLength="107" x="33.5" y="201.4951">Query Services</text><text fill="#000000" font-family="sans-serif" font-size="14" lengthAdjust="spacing" textLength="94" x="40" y="217.792">(Read Model)</text></g><!--entity command--><g id="elem_command"><rect fill="#ADD8E6" height="52.5938" rx="2.5" ry="2.5" style="stroke:#181818;stroke-width:0.5;" width="158" x="231" y="178.5"/><text fill="#000000" font-family="sans-serif" font-size="14" lengthAdjust="spacing" textLength="138" x="241" y="201.4951">Command Services</text><text fill="#000000" font-family="sans-serif" font-size="14" lengthAdjust="spacing" textLength="113" x="253.5" y="217.792">(Domain Model)</text></g><!--entity readDB--><g id="elem_readDB"><path d="M43,302.5 C43,292.5 87,292.5 87,292.5 C87,292.5 131,292.5 131,302.5 L131,344.0938 C131,354.0938 87,354.0938 87,354.0938 C87,354.0938 43,354.0938 43,344.0938 L43,302.5 " fill="#90EE90" style="stroke:#181818;stroke-width:0.5;"/><path d="M43,302.5 C43,312.5 87,312.5 87,312.5 C87,312.5 131,312.5 131,302.5 " fill="none" style="stroke:#181818;stroke-width:0.5;"/><text fill="#000000" font-family="sans-serif" font-size="14" lengthAdjust="spacing" textLength="37" x="68.5" y="329.4951">Read</text><text fill="#000000" font-family="sans-serif" font-size="14" lengthAdjust="spacing" textLength="68" x="53" y="345.792">Database</text></g><!--entity writeDB--><g id="elem_writeDB"><path d="M266,302.5 C266,292.5 310,292.5 310,292.5 C310,292.5 354,292.5 354,302.5 L354,344.0938 C354,354.0938 310,354.0938 310,354.0938 C310,354.0938 266,354.0938 266,344.0938 L266,302.5 " fill="#ADD8E6" style="stroke:#181818;stroke-width:0.5;"/><path d="M266,302.5 C266,312.5 310,312.5 310,312.5 C310,312.5 354,312.5 354,302.5 " fill="none" style="stroke:#181818;stroke-width:0.5;"/><text fill="#000000" font-family="sans-serif" font-size="14" lengthAdjust="spacing" textLength="38" x="291" y="329.4951">Write</text><text fill="#000000" font-family="sans-serif" font-size="14" lengthAdjust="spacing" textLength="68" x="276" y="345.792">Database</text></g><!--entity sB--><g id="elem_sB"><rect fill="#F1F1F1" height="52.5938" rx="2.5" ry="2.5" style="stroke:#181818;stroke-width:0.5;" width="171" x="421.5" y="33.5"/><text fill="#000000" font-family="sans-serif" font-size="14" font-weight="bold" lengthAdjust="spacing" textLength="75" x="469.5" y="56.4951">Service B</text><text fill="#000000" font-family="sans-serif" font-size="14" font-weight="bold" lengthAdjust="spacing" textLength="151" x="431.5" y="72.792">(Bounded Context)</text></g><!--link API to query--><g id="link_API_query"><path d="M213.63,78.25 C189.58,102.14 145.79,145.62 116.54,174.66 " fill="none" id="API-to-query" style="stroke:#181818;stroke-width:1.0;"/><polygon fill="#181818" points="112.69,178.49,121.8966,174.9917,116.2398,174.9688,116.2627,169.312,112.69,178.49" style="stroke:#181818;stroke-width:1.0;"/><text fill="#000000" font-family="sans-serif" font-size="13" lengthAdjust="spacing" textLength="50" x="173" y="137.0669">Queries</text></g><!--link API to command--><g id="link_API_command"><path d="M240.53,78.25 C253.62,101.94 277.36,144.91 293.4,173.95 " fill="none" id="API-to-command" style="stroke:#181818;stroke-width:1.0;"/><polygon fill="#181818" points="295.9,178.49,295.0258,168.68,293.4718,174.1192,288.0326,172.5652,295.9,178.49" style="stroke:#181818;stroke-width:1.0;"/><text fill="#000000" font-family="sans-serif" font-size="13" lengthAdjust="spacing" textLength="74" x="278" y="137.0669">Commands</text></g><!--link command to writeDB--><g id="link_command_writeDB"><path d="M310,231.57 C310,247.83 310,269.13 310,287.02 " fill="none" id="command-to-writeDB" style="stroke:#181818;stroke-width:1.0;"/><polygon fill="#181818" points="310,292.46,314,283.46,310,287.46,306,283.46,310,292.46" style="stroke:#181818;stroke-width:1.0;"/></g><!--link query to readDB--><g id="link_query_readDB"><path d="M87,231.57 C87,247.83 87,269.13 87,287.02 " fill="none" id="query-to-readDB" style="stroke:#181818;stroke-width:1.0;"/><polygon fill="#181818" points="87,292.46,91,283.46,87,287.46,83,283.46,87,292.46" style="stroke:#181818;stroke-width:1.0;"/></g><!--link command to query--><g id="link_command_query"><path d="M230.82,205 C206.26,205 179.41,205 155.63,205 " fill="none" id="command-to-query" style="stroke:#181818;stroke-width:1.0;"/><polygon fill="#181818" points="150.6,205,159.6,209,155.6,205,159.6,201,150.6,205" style="stroke:#181818;stroke-width:1.0;"/><text fill="#000000" font-family="sans-serif" font-size="13" lengthAdjust="spacing" textLength="44" x="168.75" y="198.0669">Events</text></g><!--reverse link sB to command--><g id="link_sB_command"><path d="M467.51,89.67 C431.76,115.61 379.61,153.47 345.25,178.42 " fill="none" id="sB-backto-command" style="stroke:#181818;stroke-width:1.0;"/><polygon fill="#181818" points="471.78,86.57,462.1448,88.6104,467.7308,89.5032,466.8379,95.0891,471.78,86.57" style="stroke:#181818;stroke-width:1.0;"/><text fill="#000000" font-family="sans-serif" font-size="13" lengthAdjust="spacing" textLength="71" x="427" y="129.5669">Integration</text><text fill="#000000" font-family="sans-serif" font-size="13" lengthAdjust="spacing" textLength="44" x="440.5" y="144.6997">events</text></g><!--SRC=[PP1BImCn58Nt-HMNkgc1aIekf8ZGQKMw4DGARcPpExdEX6QIccJwGFplPXwTJjjD82VdVZdtk1GLGO4xk1tTtSDM2fypruaFen7a9BFSC-PMKg_HOW62lh5K_fDsVg9afWlI7j9maEsvKbEiZGxgmky3pbBgKMUAUfOrfYlCwDnmwO1V1X0RAyXEZJ8MNYpjsHzZX_V1Wkn6fWGJ6CQcr884J4r8jFFN0xXIKjEDG9S7kK9rsM3oDZ-v3zvBidjeSIxHmmz20Qz6a0eaTF1J6m8oj99P8dqwFpL5WLhq2JDJeDHzHjgQ6ifIbHGW0ZqkqOLbgYyJFMllzOGDqYm- -_OuyMMbfxEHRQLrC_KdeR5ULCuFhSMS9vhpY-euhqakPYmK1L7qrAm_XgecIQwJsut6qExls677whMDmfhkAgNPvsZgmC-RaCqn5yDZ51snyn0ei-YbqOccnlCF]--></g></svg>