<?xml version="1.0" encoding="us-ascii" standalone="no"?><svg xmlns="http://www.w3.org/2000/svg" xmlns:xlink="http://www.w3.org/1999/xlink" contentStyleType="text/css" height="191px" preserveAspectRatio="none" style="width:852px;height:191px;background:#FFFFFF;" version="1.1" viewBox="0 0 852 191" width="852px" zoomAndPan="magnify"><defs/><g><ellipse cx="55" cy="32.5659" fill="#222222" rx="10" ry="10" style="stroke:none;stroke-width:1.0;"/><g id="Placed"><rect fill="#F1F1F1" height="50" rx="12.5" ry="12.5" style="stroke:#181818;stroke-width:0.5;" width="67" x="21.5" y="94.5659"/><line style="stroke:#181818;stroke-width:0.5;" x1="21.5" x2="88.5" y1="120.8628" y2="120.8628"/><text fill="#000000" font-family="sans-serif" font-size="14" lengthAdjust="spacing" textLength="47" x="31.5" y="112.561">Placed</text></g><g id="Adjusted"><rect fill="#F1F1F1" height="50" rx="12.5" ry="12.5" style="stroke:#181818;stroke-width:0.5;" width="82" x="266.5" y="94.5659"/><line style="stroke:#181818;stroke-width:0.5;" x1="266.5" x2="348.5" y1="120.8628" y2="120.8628"/><text fill="#000000" font-family="sans-serif" font-size="14" lengthAdjust="spacing" textLength="62" x="276.5" y="112.561">Adjusted</text></g><g id="Accepted"><rect fill="#F1F1F1" height="50" rx="12.5" ry="12.5" style="stroke:#181818;stroke-width:0.5;" width="87" x="495.5" y="15.5659"/><line style="stroke:#181818;stroke-width:0.5;" x1="495.5" x2="582.5" y1="41.8628" y2="41.8628"/><text fill="#000000" font-family="sans-serif" font-size="14" lengthAdjust="spacing" textLength="67" x="505.5" y="33.561">Accepted</text></g><g id="Cancelled"><rect fill="#F1F1F1" height="50" rx="12.5" ry="12.5" style="stroke:#181818;stroke-width:0.5;" width="91" x="493.5" y="115.5659"/><line style="stroke:#181818;stroke-width:0.5;" x1="493.5" x2="584.5" y1="141.8628" y2="141.8628"/><text fill="#000000" font-family="sans-serif" font-size="14" lengthAdjust="spacing" textLength="71" x="503.5" y="133.561">Cancelled</text></g><g id="Completed"><rect fill="#F1F1F1" height="50" rx="12.5" ry="12.5" style="stroke:#181818;stroke-width:0.5;" width="98" x="747.5" y="15.5659"/><line style="stroke:#181818;stroke-width:0.5;" x1="747.5" x2="845.5" y1="41.8628" y2="41.8628"/><text fill="#000000" font-family="sans-serif" font-size="14" lengthAdjust="spacing" textLength="78" x="757.5" y="33.561">Completed</text></g><ellipse cx="796.5" cy="110.5659" fill="none" rx="10" ry="10" style="stroke:#222222;stroke-width:1.0;"/><ellipse cx="797" cy="111.0659" fill="#222222" rx="6" ry="6" style="stroke:none;stroke-width:1.0;"/><!--link *start* to Placed--><g id="link_*start*_Placed"><path d="M55,42.5959 C55,53.8859 55,72.7759 55,89.0159 " fill="none" id="*start*-to-Placed" style="stroke:#181818;stroke-width:1.0;"/><polygon fill="#181818" points="55,94.4059,59,85.4059,55,89.4059,51,85.4059,55,94.4059" style="stroke:#181818;stroke-width:1.0;"/><text fill="#000000" font-family="sans-serif" font-size="13" lengthAdjust="spacing" textLength="73" x="7" y="73.1328">Place order</text></g><!--link Placed to Adjusted--><g id="link_Placed_Adjusted"><path d="M88.75,119.5659 C132.85,119.5659 211.54,119.5659 261.27,119.5659 " fill="none" id="Placed-to-Adjusted" style="stroke:#181818;stroke-width:1.0;"/><polygon fill="#181818" points="266.29,119.5659,257.29,115.5659,261.29,119.5659,257.29,123.5659,266.29,119.5659" style="stroke:#181818;stroke-width:1.0;"/><text fill="#000000" font-family="sans-serif" font-size="13" lengthAdjust="spacing" textLength="115" x="119.5" y="115.6328">Adjust order price</text></g><!--link Placed to Accepted--><g id="link_Placed_Accepted"><path d="M88.79,100.9359 C128.94,79.2759 199.76,44.8159 265.5,31.5659 C343.04,15.9459 435.46,24.5559 490.3,32.4159 " fill="none" id="Placed-to-Accepted" style="stroke:#181818;stroke-width:1.0;"/><polygon fill="#181818" points="495.49,33.1759,487.1525,27.9332,490.5411,32.4628,486.0115,35.8515,495.49,33.1759" style="stroke:#181818;stroke-width:1.0;"/><text fill="#000000" font-family="sans-serif" font-size="13" lengthAdjust="spacing" textLength="82" x="266.5" y="19.6328">Accept order</text></g><!--link Placed to Cancelled--><g id="link_Placed_Cancelled"><path d="M88.76,132.0459 C129.48,146.8259 201.43,170.5759 265.5,179.5659 C302.47,184.7559 312.36,183.3759 349.5,179.5659 C397.22,174.6859 450.7,163.0159 488.47,153.7059 " fill="none" id="Placed-to-Cancelled" style="stroke:#181818;stroke-width:1.0;"/><polygon fill="#181818" points="493.46,152.4659,483.7574,150.7749,488.6101,153.682,485.7031,158.5347,493.46,152.4659" style="stroke:#181818;stroke-width:1.0;"/><text fill="#000000" font-family="sans-serif" font-size="13" lengthAdjust="spacing" textLength="82" x="266.5" y="175.6328">Cancel order</text></g><!--link Adjusted to Adjusted--><g id="link_Adjusted_Adjusted"><path d="M288.21,94.2959 C282.37,76.7959 288.8,59.5659 307.5,59.5659 C324.45,59.5659 331.32,73.7159 328.11,89.3959 " fill="none" id="Adjusted-to-Adjusted" style="stroke:#181818;stroke-width:1.0;"/><polygon fill="#181818" points="326.79,94.2959,332.9922,86.6453,328.0899,89.4678,325.2673,84.5655,326.79,94.2959" style="stroke:#181818;stroke-width:1.0;"/><text fill="#000000" font-family="sans-serif" font-size="13" lengthAdjust="spacing" textLength="115" x="250" y="50.6328">Adjust order price</text></g><!--link Adjusted to Accepted--><g id="link_Adjusted_Accepted"><path d="M348.74,105.7159 C388.35,92.0859 448.83,71.2659 490.71,56.8459 " fill="none" id="Adjusted-to-Accepted" style="stroke:#181818;stroke-width:1.0;"/><polygon fill="#181818" points="495.47,55.2059,485.658,54.3547,490.7425,56.8341,488.2631,61.9186,495.47,55.2059" style="stroke:#181818;stroke-width:1.0;"/><text fill="#000000" font-family="sans-serif" font-size="13" lengthAdjust="spacing" textLength="82" x="380.5" y="64.6328">Accept order</text></g><!--link Adjusted to Cancelled--><g id="link_Adjusted_Cancelled"><path d="M348.74,123.2559 C387.65,126.8159 446.7,132.2159 488.48,136.0359 " fill="none" id="Adjusted-to-Cancelled" style="stroke:#181818;stroke-width:1.0;"/><polygon fill="#181818" points="493.49,136.4959,484.8928,131.6909,488.5109,136.0394,484.1624,139.6574,493.49,136.4959" style="stroke:#181818;stroke-width:1.0;"/><text fill="#000000" font-family="sans-serif" font-size="13" lengthAdjust="spacing" textLength="82" x="380.5" y="121.6328">Cancel order</text></g><!--link Accepted to Completed--><g id="link_Accepted_Completed"><path d="M582.76,40.5659 C626.63,40.5659 694.95,40.5659 742.28,40.5659 " fill="none" id="Accepted-to-Completed" style="stroke:#181818;stroke-width:1.0;"/><polygon fill="#181818" points="747.37,40.5659,738.37,36.5659,742.37,40.5659,738.37,44.5659,747.37,40.5659" style="stroke:#181818;stroke-width:1.0;"/><text fill="#000000" font-family="sans-serif" font-size="13" lengthAdjust="spacing" textLength="101" x="615.5" y="36.6328">Complete order</text></g><!--link Completed to *end*--><g id="link_Completed_*end*"><path d="M796.5,65.8359 C796.5,75.6559 796.5,85.4859 796.5,95.3159 " fill="none" id="Completed-to-*end*" style="stroke:#181818;stroke-width:1.0;"/><polygon fill="#181818" points="796.5,100.4559,800.5,91.4559,796.5,95.4559,792.5,91.4559,796.5,100.4559" style="stroke:#181818;stroke-width:1.0;"/></g><!--SRC=[XT312W8X40RW-pp5d8C5YmxH8OXUe7liGSOf3NTTNACUFrEtabYw_OpVp0zQFWSC3hsvw83AUAPWN0ymahICdNpWKgpMU3SgwA_XHWZK_5e2E2rQR7Puj99OuJO7T5wnXp9iuljUNMzZI2B7J73mXhY2H3mKcEBlhOFiYQrD9kTYtYN_6siwqrcX-TPfEodN3PRphIaNztcABduRF040]--></g></svg>