<?xml version="1.0" encoding="us-ascii" standalone="no"?><svg xmlns="http://www.w3.org/2000/svg" xmlns:xlink="http://www.w3.org/1999/xlink" contentStyleType="text/css" height="326px" preserveAspectRatio="none" style="width:771px;height:326px;background:#FFFFFF;" version="1.1" viewBox="0 0 771 326" width="771px" zoomAndPan="magnify"><defs><filter height="1" id="balu1mdcf5x50" width="1" x="0" y="0"><feFlood flood-color="#90EE90" result="flood"/><feComposite in="SourceGraphic" in2="flood" operator="over"/></filter></defs><g><g id="elem_es1"><rect fill="#F1F1F1" height="117.7813" style="stroke:#181818;stroke-width:0.5;" width="229" x="7" y="7"/><text fill="#000000" font-family="sans-serif" font-size="14" font-weight="bold" lengthAdjust="spacing" textLength="144" x="49.5" y="21.9951">OrderPlacedEvent</text><line style="stroke:#181818;stroke-width:0.5;" x1="8" x2="235" y1="27.2969" y2="27.2969"/><text fill="#000000" font-family="sans-serif" font-size="14" lengthAdjust="spacing" textLength="99" x="13" y="44.292">orderId = 123</text><line style="stroke:#181818;stroke-width:1.0;" x1="8" x2="235" y1="51.5938" y2="51.5938"/><text fill="#000000" font-family="sans-serif" font-size="14" lengthAdjust="spacing" textLength="81" x="13" y="68.5889">version = 1</text><text fill="#000000" font-family="sans-serif" font-size="14" lengthAdjust="spacing" textLength="94" x="13" y="84.8857">riderId = 234</text><text fill="#000000" font-family="sans-serif" font-size="14" lengthAdjust="spacing" textLength="80" x="13" y="101.1826">route = [...]</text><text fill="#000000" font-family="sans-serif" font-size="14" lengthAdjust="spacing" textLength="217" x="13" y="117.4795">date = 2022-06-20T17:23:12Z</text></g><g id="elem_o1"><rect fill="#F1F1F1" height="134.0781" style="stroke:#181818;stroke-width:0.5;" width="130" x="101.5" y="185"/><text fill="#000000" font-family="sans-serif" font-size="14" font-weight="bold" lengthAdjust="spacing" textLength="46" x="143.5" y="199.9951">Order</text><line style="stroke:#181818;stroke-width:0.5;" x1="102.5" x2="230.5" y1="205.2969" y2="205.2969"/><text fill="#000000" font-family="sans-serif" font-size="14" lengthAdjust="spacing" textLength="60" x="107.5" y="222.292">id = 123</text><line style="stroke:#181818;stroke-width:1.0;" x1="102.5" x2="230.5" y1="229.5938" y2="229.5938"/><text fill="#000000" font-family="sans-serif" font-size="14" lengthAdjust="spacing" textLength="81" x="107.5" y="246.5889">version = 1</text><text fill="#000000" font-family="sans-serif" font-size="14" lengthAdjust="spacing" textLength="118" x="107.5" y="262.8857">status = PLACED</text><text fill="#000000" font-family="sans-serif" font-size="14" lengthAdjust="spacing" textLength="94" x="107.5" y="279.1826">riderId = 234</text><text fill="#000000" font-family="sans-serif" font-size="14" lengthAdjust="spacing" textLength="80" x="107.5" y="295.4795">route = [...]</text><text fill="#000000" font-family="sans-serif" font-size="14" lengthAdjust="spacing" textLength="101" x="107.5" y="311.7764">driverId = null</text></g><g id="elem_es2"><rect fill="#F1F1F1" height="101.4844" style="stroke:#181818;stroke-width:0.5;" width="229" x="271" y="15.5"/><text fill="#000000" font-family="sans-serif" font-size="14" font-weight="bold" lengthAdjust="spacing" textLength="166" x="302.5" y="30.4951">OrderAcceptedEvent</text><line style="stroke:#181818;stroke-width:0.5;" x1="272" x2="499" y1="35.7969" y2="35.7969"/><text fill="#000000" font-family="sans-serif" font-size="14" lengthAdjust="spacing" textLength="99" x="277" y="52.792">orderId = 123</text><line style="stroke:#181818;stroke-width:1.0;" x1="272" x2="499" y1="60.0938" y2="60.0938"/><text fill="#000000" font-family="sans-serif" font-size="14" lengthAdjust="spacing" textLength="81" x="277" y="77.0889">version = 2</text><text fill="#000000" font-family="sans-serif" font-size="14" lengthAdjust="spacing" textLength="102" x="277" y="93.3857">driverId = 345</text><text fill="#000000" font-family="sans-serif" font-size="14" lengthAdjust="spacing" textLength="217" x="277" y="109.6826">date = 2022-06-20T17:27:34Z</text></g><g id="elem_o2"><rect fill="#F1F1F1" height="134.0781" style="stroke:#181818;stroke-width:0.5;" width="150" x="310.5" y="185"/><text fill="#000000" font-family="sans-serif" font-size="14" font-weight="bold" lengthAdjust="spacing" textLength="46" x="362.5" y="199.9951">Order</text><line style="stroke:#181818;stroke-width:0.5;" x1="311.5" x2="459.5" y1="205.2969" y2="205.2969"/><text fill="#000000" font-family="sans-serif" font-size="14" lengthAdjust="spacing" textLength="60" x="316.5" y="222.292">id = 123</text><line style="stroke:#181818;stroke-width:1.0;" x1="311.5" x2="459.5" y1="229.5938" y2="229.5938"/><text fill="#000000" filter="url(#balu1mdcf5x50)" font-family="sans-serif" font-size="14" lengthAdjust="spacing" textLength="81" x="316.5" y="246.5889">version = 2</text><text fill="#000000" filter="url(#balu1mdcf5x50)" font-family="sans-serif" font-size="14" lengthAdjust="spacing" textLength="138" x="316.5" y="262.8857">status = ACCEPTED</text><text fill="#000000" font-family="sans-serif" font-size="14" lengthAdjust="spacing" textLength="94" x="316.5" y="279.1826">riderId = 234</text><text fill="#000000" font-family="sans-serif" font-size="14" lengthAdjust="spacing" textLength="80" x="316.5" y="295.4795">route = [...]</text><text fill="#000000" filter="url(#balu1mdcf5x50)" font-family="sans-serif" font-size="14" lengthAdjust="spacing" textLength="102" x="316.5" y="311.7764">driverId = 345</text></g><g id="elem_es3"><rect fill="#F1F1F1" height="85.1875" style="stroke:#181818;stroke-width:0.5;" width="229" x="535" y="23.5"/><text fill="#000000" font-family="sans-serif" font-size="14" font-weight="bold" lengthAdjust="spacing" textLength="179" x="560" y="38.4951">OrderCompletedEvent</text><line style="stroke:#181818;stroke-width:0.5;" x1="536" x2="763" y1="43.7969" y2="43.7969"/><text fill="#000000" font-family="sans-serif" font-size="14" lengthAdjust="spacing" textLength="99" x="541" y="60.792">orderId = 123</text><line style="stroke:#181818;stroke-width:1.0;" x1="536" x2="763" y1="68.0938" y2="68.0938"/><text fill="#000000" font-family="sans-serif" font-size="14" lengthAdjust="spacing" textLength="81" x="541" y="85.0889">version = 3</text><text fill="#000000" font-family="sans-serif" font-size="14" lengthAdjust="spacing" textLength="217" x="541" y="101.3857">date = 2022-06-20T17:49:15Z</text></g><g id="elem_o3"><rect fill="#F1F1F1" height="134.0781" style="stroke:#181818;stroke-width:0.5;" width="161" x="532" y="185"/><text fill="#000000" font-family="sans-serif" font-size="14" font-weight="bold" lengthAdjust="spacing" textLength="46" x="589.5" y="199.9951">Order</text><line style="stroke:#181818;stroke-width:0.5;" x1="533" x2="692" y1="205.2969" y2="205.2969"/><text fill="#000000" font-family="sans-serif" font-size="14" lengthAdjust="spacing" textLength="60" x="538" y="222.292">id = 123</text><line style="stroke:#181818;stroke-width:1.0;" x1="533" x2="692" y1="229.5938" y2="229.5938"/><text fill="#000000" filter="url(#balu1mdcf5x50)" font-family="sans-serif" font-size="14" lengthAdjust="spacing" textLength="81" x="538" y="246.5889">version = 3</text><text fill="#000000" filter="url(#balu1mdcf5x50)" font-family="sans-serif" font-size="14" lengthAdjust="spacing" textLength="149" x="538" y="262.8857">status = COMPLETED</text><text fill="#000000" font-family="sans-serif" font-size="14" lengthAdjust="spacing" textLength="94" x="538" y="279.1826">riderId = 234</text><text fill="#000000" font-family="sans-serif" font-size="14" lengthAdjust="spacing" textLength="80" x="538" y="295.4795">route = [...]</text><text fill="#000000" font-family="sans-serif" font-size="14" lengthAdjust="spacing" textLength="102" x="538" y="311.7764">driverId = 345</text></g><!--link es3 to o3--><g id="link_es3_o3"><path codeLine="63" d="M641.1,108.75 C636.88,129.74 631.65,155.76 626.82,179.78 " fill="none" id="es3-to-o3" style="stroke:#181818;stroke-width:1.0;stroke-dasharray:7.0,7.0;"/><polygon fill="#181818" points="625.8,184.87,631.4964,176.8356,626.7861,179.9682,623.6535,175.2579,625.8,184.87" style="stroke:#181818;stroke-width:1.0;"/></g><!--link es2 to o2--><g id="link_es2_o2"><path codeLine="64" d="M385.5,116.79 C385.5,136.2 385.5,158.81 385.5,179.88 " fill="none" id="es2-to-o2" style="stroke:#181818;stroke-width:1.0;stroke-dasharray:7.0,7.0;"/><polygon fill="#181818" points="385.5,184.92,389.5,175.92,385.5,179.92,381.5,175.92,385.5,184.92" style="stroke:#181818;stroke-width:1.0;"/></g><!--link es1 to o1--><g id="link_es1_o1"><path codeLine="65" d="M135.74,125.22 C139.97,142.54 144.67,161.72 149.08,179.77 " fill="none" id="es1-to-o1" style="stroke:#181818;stroke-width:1.0;stroke-dasharray:7.0,7.0;"/><polygon fill="#181818" points="150.32,184.83,152.0715,175.1381,149.1342,179.9726,144.2997,177.0354,150.32,184.83" style="stroke:#181818;stroke-width:1.0;"/></g><!--link es1 to es2--><g id="link_es1_es2"><path codeLine="67" d="M236.23,66 C246.07,66 255.92,66 265.77,66 " fill="none" id="es1-to-es2" style="stroke:#181818;stroke-width:1.0;stroke-dasharray:7.0,7.0;"/><polygon fill="#181818" points="270.92,66,261.92,62,265.92,66,261.92,70,270.92,66" style="stroke:#181818;stroke-width:1.0;"/></g><!--link es2 to es3--><g id="link_es2_es3"><path codeLine="68" d="M500.23,66 C510.07,66 519.92,66 529.77,66 " fill="none" id="es2-to-es3" style="stroke:#181818;stroke-width:1.0;stroke-dasharray:7.0,7.0;"/><polygon fill="#181818" points="534.92,66,525.92,62,529.92,66,525.92,70,534.92,66" style="stroke:#181818;stroke-width:1.0;"/></g><!--link o1 to o2--><g id="link_o1_o2"><path codeLine="70" d="M231.52,252 C256.04,252 280.56,252 305.08,252 " fill="none" id="o1-to-o2" style="stroke:#181818;stroke-width:1.0;"/><polygon fill="#181818" points="310.31,252,301.31,248,305.31,252,301.31,256,310.31,252" style="stroke:#181818;stroke-width:1.0;"/></g><!--link o2 to o3--><g id="link_o2_o3"><path codeLine="71" d="M460.87,252 C482.8,252 504.74,252 526.67,252 " fill="none" id="o2-to-o3" style="stroke:#181818;stroke-width:1.0;"/><polygon fill="#181818" points="531.95,252,522.95,248,526.95,252,522.95,256,531.95,252" style="stroke:#181818;stroke-width:1.0;"/></g><!--SRC=[bLFBRi8m4BpxArOS8oMDxL3QY4P28OTAL73WrAg7O5l4ROXHOg1IrN-lpQj0W8QBvR57EplZjLPpq0ecIcir0ovBmRHK1KAPv0AOB5ak4AfOcWkOfL-0VHB0IdAT7Hm- -3vaGaupZP2QV9WIq7ASOSb5ESfJ9dYo58Lsd1Qa5OWAmpS2KFRwcSCJO48DTbspB4LP6NbxQ50fTnH20ulLGWk3tZpFUpUOfsj8V49S_zub_XXtGa93J5xHJwsLhRxQoCkhofLEzQ8oO3JenKc_II-bN6u9nIBFp-Zt61DpVHe6QH86EHQWGVkY-qv8WslkoLdttKdAFiFSFk6q5AA83hIxT_OoEiVQnzIBusGqJlf_tF_ogjKwzhShL3SIgzay5xKSQPCSwQNOWiSGjw_5Hc-DZJQ9BHw-Z0R9JRcTZ87fs7htk5eLNcJwH7Qazf0W-zts4ACDZkpWRPXsIurj3EwQRmR4RkWl]--></g></svg>