<?xml version="1.0" encoding="us-ascii" standalone="no"?><svg xmlns="http://www.w3.org/2000/svg" xmlns:xlink="http://www.w3.org/1999/xlink" contentStyleType="text/css" height="441px" preserveAspectRatio="none" style="width:866px;height:441px;background:#FFFFFF;" version="1.1" viewBox="0 0 866 441" width="866px" zoomAndPan="magnify"><defs><filter height="1" id="b12vacz0675uyf0" width="1" x="0" y="0"><feFlood flood-color="#90EE90" result="flood"/><feComposite in="SourceGraphic" in2="flood" operator="over"/></filter><filter height="1" id="b12vacz0675uyf1" width="1" x="0" y="0"><feFlood flood-color="#ADD8E6" result="flood"/><feComposite in="SourceGraphic" in2="flood" operator="over"/></filter></defs><g><!--cluster Event Store--><g id="cluster_Event Store"><rect fill="none" height="279" rx="2.5" ry="2.5" style="stroke:#000000;stroke-width:1.5;" width="516" x="7" y="7"/><text fill="#000000" font-family="sans-serif" font-size="14" font-weight="bold" lengthAdjust="spacing" textLength="95" x="217.5" y="21.9951">Event Store</text></g><g id="elem_a123"><rect fill="#F1F1F1" height="223.2656" style="stroke:#181818;stroke-width:0.5;" width="217" x="30.5" y="46"/><text fill="#000000" font-family="sans-serif" font-size="14" font-weight="bold" lengthAdjust="spacing" textLength="99" x="89.5" y="60.9951">Account 123</text><line style="stroke:#181818;stroke-width:1.0;" x1="30.5" x2="247.5" y1="66.2969" y2="66.2969"/><text fill="#000000" font-family="sans-serif" font-size="14" lengthAdjust="spacing" textLength="17" x="66" y="81.292">v1</text><text fill="#000000" font-family="sans-serif" font-size="14" lengthAdjust="spacing" textLength="115" x="123.5" y="81.292">AccountCreated</text><line style="stroke:#181818;stroke-width:1.0;" x1="118.5" x2="118.5" y1="66.2969" y2="86.5938"/><line style="stroke:#181818;stroke-width:1.0;" x1="30.5" x2="247.5" y1="86.5938" y2="86.5938"/><text fill="#000000" font-family="sans-serif" font-size="14" lengthAdjust="spacing" textLength="17" x="66" y="101.5889">v2</text><text fill="#000000" font-family="sans-serif" font-size="14" lengthAdjust="spacing" textLength="114" x="123.5" y="101.5889">AccountDebited</text><line style="stroke:#181818;stroke-width:1.0;" x1="118.5" x2="118.5" y1="86.5938" y2="106.8906"/><line style="stroke:#181818;stroke-width:1.0;" x1="30.5" x2="247.5" y1="106.8906" y2="106.8906"/><text fill="#000000" font-family="sans-serif" font-size="14" lengthAdjust="spacing" textLength="51" x="49" y="121.8857">v3..v99</text><text fill="#000000" font-family="sans-serif" font-size="14" lengthAdjust="spacing" textLength="91" x="123.5" y="121.8857">[97 events...]</text><line style="stroke:#181818;stroke-width:1.0;" x1="118.5" x2="118.5" y1="106.8906" y2="127.1875"/><line style="stroke:#181818;stroke-width:1.0;" x1="30.5" x2="247.5" y1="127.1875" y2="127.1875"/><text fill="#000000" font-family="sans-serif" font-size="14" lengthAdjust="spacing" textLength="35" x="57" y="142.1826">v100</text><text fill="#000000" font-family="sans-serif" font-size="14" lengthAdjust="spacing" textLength="119" x="123.5" y="142.1826">AccountCredited</text><line style="stroke:#181818;stroke-width:1.0;" x1="118.5" x2="118.5" y1="127.1875" y2="147.4844"/><line style="stroke:#181818;stroke-width:1.0;" x1="30.5" x2="247.5" y1="147.4844" y2="147.4844"/><text fill="#000000" font-family="sans-serif" font-size="14" lengthAdjust="spacing" textLength="35" x="57" y="162.4795">v101</text><text fill="#000000" font-family="sans-serif" font-size="14" lengthAdjust="spacing" textLength="114" x="123.5" y="162.4795">AccountDebited</text><line style="stroke:#181818;stroke-width:1.0;" x1="118.5" x2="118.5" y1="147.4844" y2="167.7813"/><line style="stroke:#181818;stroke-width:1.0;" x1="30.5" x2="247.5" y1="167.7813" y2="167.7813"/><text fill="#000000" font-family="sans-serif" font-size="14" lengthAdjust="spacing" textLength="35" x="57" y="182.7764">v102</text><text fill="#000000" font-family="sans-serif" font-size="14" lengthAdjust="spacing" textLength="119" x="123.5" y="182.7764">AccountCredited</text><line style="stroke:#181818;stroke-width:1.0;" x1="118.5" x2="118.5" y1="167.7813" y2="188.0781"/><line style="stroke:#181818;stroke-width:1.0;" x1="30.5" x2="247.5" y1="188.0781" y2="188.0781"/><text fill="#000000" font-family="sans-serif" font-size="14" lengthAdjust="spacing" textLength="78" x="35.5" y="203.0732">v103..v199</text><text fill="#000000" font-family="sans-serif" font-size="14" lengthAdjust="spacing" textLength="91" x="123.5" y="203.0732">[97 events...]</text><line style="stroke:#181818;stroke-width:1.0;" x1="118.5" x2="118.5" y1="188.0781" y2="208.375"/><line style="stroke:#181818;stroke-width:1.0;" x1="30.5" x2="247.5" y1="208.375" y2="208.375"/><text fill="#000000" font-family="sans-serif" font-size="14" lengthAdjust="spacing" textLength="35" x="57" y="223.3701">v200</text><text fill="#000000" font-family="sans-serif" font-size="14" lengthAdjust="spacing" textLength="119" x="123.5" y="223.3701">AccountCredited</text><line style="stroke:#181818;stroke-width:1.0;" x1="118.5" x2="118.5" y1="208.375" y2="228.6719"/><line style="stroke:#181818;stroke-width:1.0;" x1="30.5" x2="247.5" y1="228.6719" y2="228.6719"/><text fill="#000000" font-family="sans-serif" font-size="14" lengthAdjust="spacing" textLength="35" x="57" y="243.667">v201</text><text fill="#000000" filter="url(#b12vacz0675uyf0)" font-family="sans-serif" font-size="14" lengthAdjust="spacing" textLength="114" x="123.5" y="243.667">AccountDebited</text><line style="stroke:#181818;stroke-width:1.0;" x1="118.5" x2="118.5" y1="228.6719" y2="248.9688"/><line style="stroke:#181818;stroke-width:1.0;" x1="30.5" x2="247.5" y1="248.9688" y2="248.9688"/><text fill="#000000" font-family="sans-serif" font-size="14" lengthAdjust="spacing" textLength="35" x="57" y="263.9639">v202</text><text fill="#000000" filter="url(#b12vacz0675uyf0)" font-family="sans-serif" font-size="14" lengthAdjust="spacing" textLength="119" x="123.5" y="263.9639">AccountCredited</text><line style="stroke:#181818;stroke-width:1.0;" x1="118.5" x2="118.5" y1="248.9688" y2="269.2656"/></g><g id="elem_as123"><rect fill="#F1F1F1" height="60.8906" style="stroke:#181818;stroke-width:0.5;" width="200" x="299" y="126"/><text fill="#000000" font-family="sans-serif" font-size="14" font-weight="bold" lengthAdjust="spacing" textLength="186" x="306" y="140.9951">Account 123 Snapshots</text><line style="stroke:#181818;stroke-width:1.0;" x1="299" x2="499" y1="146.2969" y2="146.2969"/><text fill="#000000" font-family="sans-serif" font-size="14" lengthAdjust="spacing" textLength="35" x="304" y="161.292">v100</text><text fill="#000000" font-family="sans-serif" font-size="14" lengthAdjust="spacing" textLength="105" x="349" y="161.292">Snapshot v100</text><line style="stroke:#181818;stroke-width:1.0;" x1="344" x2="344" y1="146.2969" y2="166.5938"/><line style="stroke:#181818;stroke-width:1.0;" x1="299" x2="499" y1="166.5938" y2="166.5938"/><text fill="#000000" font-family="sans-serif" font-size="14" lengthAdjust="spacing" textLength="35" x="304" y="181.5889">v200</text><text fill="#000000" filter="url(#b12vacz0675uyf1)" font-family="sans-serif" font-size="14" lengthAdjust="spacing" textLength="105" x="349" y="181.5889">Snapshot v200</text><line style="stroke:#181818;stroke-width:1.0;" x1="344" x2="344" y1="166.5938" y2="186.8906"/></g><g id="elem_ae123"><rect fill="#F1F1F1" height="81.1875" style="stroke:#181818;stroke-width:0.5;" width="174" x="633" y="116"/><text fill="#000000" font-family="sans-serif" font-size="14" font-weight="bold" lengthAdjust="spacing" textLength="99" x="670.5" y="130.9951">Account 123</text><line style="stroke:#181818;stroke-width:1.0;" x1="633" x2="807" y1="136.2969" y2="136.2969"/><text fill="#000000" font-family="sans-serif" font-size="14" lengthAdjust="spacing" textLength="35" x="638" y="151.292">v200</text><text fill="#000000" filter="url(#b12vacz0675uyf1)" font-family="sans-serif" font-size="14" lengthAdjust="spacing" textLength="105" x="683" y="151.292">Snapshot v200</text><line style="stroke:#181818;stroke-width:1.0;" x1="678" x2="678" y1="136.2969" y2="156.5938"/><line style="stroke:#181818;stroke-width:1.0;" x1="633" x2="807" y1="156.5938" y2="156.5938"/><text fill="#000000" font-family="sans-serif" font-size="14" lengthAdjust="spacing" textLength="35" x="638" y="171.5889">v201</text><text fill="#000000" filter="url(#b12vacz0675uyf0)" font-family="sans-serif" font-size="14" lengthAdjust="spacing" textLength="114" x="683" y="171.5889">AccountDebited</text><line style="stroke:#181818;stroke-width:1.0;" x1="678" x2="678" y1="156.5938" y2="176.8906"/><line style="stroke:#181818;stroke-width:1.0;" x1="633" x2="807" y1="176.8906" y2="176.8906"/><text fill="#000000" font-family="sans-serif" font-size="14" lengthAdjust="spacing" textLength="35" x="638" y="191.8857">v202</text><text fill="#000000" filter="url(#b12vacz0675uyf0)" font-family="sans-serif" font-size="14" lengthAdjust="spacing" textLength="119" x="683" y="191.8857">AccountCredited</text><line style="stroke:#181818;stroke-width:1.0;" x1="678" x2="678" y1="176.8906" y2="197.1875"/></g><g id="elem_acs123"><rect fill="#F1F1F1" height="85.1875" style="stroke:#181818;stroke-width:0.5;" width="222" x="609" y="349"/><text fill="#000000" font-family="sans-serif" font-size="14" font-weight="bold" lengthAdjust="spacing" textLength="208" x="616" y="363.9951">Account123 Current State</text><line style="stroke:#181818;stroke-width:0.5;" x1="610" x2="830" y1="369.2969" y2="369.2969"/><text fill="#000000" font-family="sans-serif" font-size="14" font-weight="bold" lengthAdjust="spacing" textLength="15" x="615" y="386.292">id</text><text fill="#000000" font-family="sans-serif" font-size="14" lengthAdjust="spacing" textLength="43" x="634" y="386.292">= 123</text><line style="stroke:#181818;stroke-width:1.0;" x1="610" x2="830" y1="393.5938" y2="393.5938"/><text fill="#000000" font-family="sans-serif" font-size="14" font-weight="bold" lengthAdjust="spacing" textLength="59" x="615" y="410.5889">version</text><text fill="#000000" font-family="sans-serif" font-size="14" lengthAdjust="spacing" textLength="43" x="678" y="410.5889">= 202</text><text fill="#000000" font-family="sans-serif" font-size="14" font-weight="bold" lengthAdjust="spacing" textLength="61" x="615" y="426.8857">balance</text><text fill="#000000" font-family="sans-serif" font-size="14" lengthAdjust="spacing" textLength="61" x="680" y="426.8857">= $1000</text></g><!--link a123 to as123--><g id="link_a123_as123"><path codeLine="40" d="M249,136 C270.68,136 274.04,153 292.86,155.65 " fill="none" id="a123-to-as123" style="stroke:#181818;stroke-width:1.0;"/><polygon fill="#181818" points="298,156,289.2956,151.392,293.0118,155.657,288.7468,159.3731,298,156" style="stroke:#181818;stroke-width:1.0;"/></g><!--link a123 to as123--><g id="link_a123_as123"><path codeLine="41" d="M249,216 C275.25,216 270.69,181.14 292.85,176.51 " fill="none" id="a123-to-as123-1" style="stroke:#181818;stroke-width:1.0;"/><polygon fill="#181818" points="298,176,288.6537,172.8941,293.0237,176.4862,289.4316,180.8562,298,176" style="stroke:#181818;stroke-width:1.0;"/></g><!--link as123 to ae123--><g id="link_as123_ae123"><path codeLine="42" d="M507.23,156 C543.57,156 583.93,156 619.64,156 " fill="none" id="as123-to-ae123" style="stroke:#181818;stroke-width:1.0;"/><polygon fill="#181818" points="624.88,156,615.88,152,619.88,156,615.88,160,624.88,156" style="stroke:#181818;stroke-width:1.0;"/><text fill="#000000" font-family="sans-serif" font-size="13" lengthAdjust="spacing" textLength="81" x="525.5" y="149.0669">Read events</text></g><!--link ae123 to acs123--><g id="link_ae123_acs123"><path codeLine="43" d="M720,200.1 C720,240.87 720,301.9 720,343.82 " fill="none" id="ae123-to-acs123" style="stroke:#181818;stroke-width:1.0;"/><polygon fill="#181818" points="720,348.83,724,339.83,720,343.83,716,339.83,720,348.83" style="stroke:#181818;stroke-width:1.0;"/><text fill="#000000" font-family="sans-serif" font-size="13" lengthAdjust="spacing" textLength="137" x="721" y="315.0669">Restore current state</text></g><!--SRC=[bLF1JeD04BtlLqo8fqr0G1CjQKbCzGViqNXObad1KY2xMzGO_zsT1Lf8R9FUuBsPUMyUWvQYGjYBBuZ2-1u-ozmKJ1_1np240ijjOHZJkx9kXH9xQ8NSYIrkpBSjKoYDgBSLCZRWuBrqM1lOc4QX1pyCxAmMFCwVf6mEbedYEyuz41g4VNGL05q4gnI6ahL2OJ3lYNX2F6DM7ecx8EWM2sBV5W-0fAg387WVvbdpiudvgJCAetD3RH0NsaWoEgyPNz2CUyrbPcDAAWfrgn3hT6vYUKjyEhR4brh6-QUUN_Plsh2fHQkBnkWnTpqDlZSzrZXWjiv4FwiEc9ugRS5KtCgV_zGuIbuvzkhWhetDkcwo3tl74-FaTNrGgZzaUulZ5lAO7ETbpZciQ4VxwliEwr3figaTONquB1ELg2KwxCQ66v8adNwIkF3zjFyW_Ul8n7Cc9iQ94qXX9l2A8XzkaFNv-aGwZyHg-WL13djeseFz0G00]--></g></svg>