<?xml version="1.0" encoding="us-ascii" standalone="no"?><svg xmlns="http://www.w3.org/2000/svg" xmlns:xlink="http://www.w3.org/1999/xlink" contentStyleType="text/css" height="549px" preserveAspectRatio="none" style="width:775px;height:549px;background:#FFFFFF;" version="1.1" viewBox="0 0 775 549" width="775px" zoomAndPan="magnify"><defs/><g><!--entity API--><g id="elem_API"><rect fill="#F1F1F1" height="36.2969" rx="2.5" ry="2.5" style="stroke:#181818;stroke-width:0.5;" width="83" x="192.5" y="23.5659"/><text fill="#000000" font-family="sans-serif" font-size="14" lengthAdjust="spacing" textLength="63" x="202.5" y="46.561">REST API</text></g><!--entity CommandHandler--><g id="elem_CommandHandler"><rect fill="#ADD8E6" height="36.2969" rx="2.5" ry="2.5" style="stroke:#181818;stroke-width:0.5;" width="155" x="40.5" y="168.5659"/><text fill="#000000" font-family="sans-serif" font-size="14" lengthAdjust="spacing" textLength="135" x="50.5" y="191.561">Command Handler</text></g><!--entity ScheduledEventSubscriptionProcessor--><g id="elem_ScheduledEventSubscriptionProcessor"><rect fill="#ADD8E6" height="68.8906" rx="2.5" ry="2.5" style="stroke:#181818;stroke-width:0.5;" width="152" x="175" y="475.0659"/><text fill="#000000" font-family="sans-serif" font-size="14" lengthAdjust="spacing" textLength="75" x="213.5" y="498.061">Scheduled</text><text fill="#000000" font-family="sans-serif" font-size="14" lengthAdjust="spacing" textLength="132" x="185" y="514.3579">Event Subscription</text><text fill="#000000" font-family="sans-serif" font-size="14" lengthAdjust="spacing" textLength="69" x="216.5" y="530.6548">Processor</text></g><!--entity SyncEventHandler--><g id="elem_SyncEventHandler"><rect fill="#ADD8E6" height="52.5938" rx="2.5" ry="2.5" style="stroke:#181818;stroke-width:0.5;" width="121" x="307.5" y="160.0659"/><text fill="#000000" font-family="sans-serif" font-size="14" lengthAdjust="spacing" textLength="92" x="322" y="183.061">Synchronous</text><text fill="#000000" font-family="sans-serif" font-size="14" lengthAdjust="spacing" textLength="101" x="317.5" y="199.3579">Event Handler</text></g><!--entity AsyncEventHandler--><g id="elem_AsyncEventHandler"><rect fill="#ADD8E6" height="52.5938" rx="2.5" ry="2.5" style="stroke:#181818;stroke-width:0.5;" width="121" x="438.5" y="483.0659"/><text fill="#000000" font-family="sans-serif" font-size="14" lengthAdjust="spacing" textLength="100" x="449" y="506.061">Asynchronous</text><text fill="#000000" font-family="sans-serif" font-size="14" lengthAdjust="spacing" textLength="101" x="448.5" y="522.3579">Event Handler</text></g><!--entity Repository--><g id="elem_Repository"><rect fill="#90EE90" height="52.5938" rx="2.5" ry="2.5" style="stroke:#181818;stroke-width:0.5;" width="96" x="428" y="15.0659"/><text fill="#000000" font-family="sans-serif" font-size="14" lengthAdjust="spacing" textLength="71" x="440.5" y="38.061">Projection</text><text fill="#000000" font-family="sans-serif" font-size="14" lengthAdjust="spacing" textLength="76" x="438" y="54.3579">Repository</text></g><!--entity Postgres--><g id="elem_Postgres"><path d="M303.5,315.0659 C303.5,305.0659 368,305.0659 368,305.0659 C368,305.0659 432.5,305.0659 432.5,315.0659 L432.5,372.9565 C432.5,382.9565 368,382.9565 368,382.9565 C368,382.9565 303.5,382.9565 303.5,372.9565 L303.5,315.0659 " fill="#336791" style="stroke:#181818;stroke-width:0.5;"/><path d="M303.5,315.0659 C303.5,325.0659 368,325.0659 368,325.0659 C368,325.0659 432.5,325.0659 432.5,315.0659 " fill="none" style="stroke:#181818;stroke-width:0.5;"/><text fill="#FFFFFF" font-family="sans-serif" font-size="14" font-style="italic" lengthAdjust="spacing" textLength="99" x="318.5" y="342.061">&#171;PostgreSQL&#187;</text><text fill="#FFFFFF" font-family="sans-serif" font-size="14" lengthAdjust="spacing" textLength="97" x="319.5" y="358.3579">Event Store &amp;</text><text fill="#FFFFFF" font-family="sans-serif" font-size="14" lengthAdjust="spacing" textLength="109" x="313.5" y="374.6548">Read Database</text></g><!--entity Kafka--><g id="elem_Kafka"><path d="M713,496.5659 L763,496.5659 C768,496.5659 768,509.7144 768,509.7144 C768,509.7144 768,522.8628 763,522.8628 L713,522.8628 C708,522.8628 708,509.7144 708,509.7144 C708,509.7144 708,496.5659 713,496.5659 " fill="#FFFFFF" style="stroke:#181818;stroke-width:0.5;"/><path d="M763,496.5659 C758,496.5659 758,509.7144 758,509.7144 C758,522.8628 763,522.8628 763,522.8628 " fill="none" style="stroke:#181818;stroke-width:0.5;"/><text fill="#000000" font-family="sans-serif" font-size="14" lengthAdjust="spacing" textLength="40" x="713" y="514.561">Kafka</text></g><!--entity Scheduler--><g id="elem_Scheduler"><ellipse cx="42" cy="509.5659" fill="#F1F1F1" rx="8" ry="8" style="stroke:#181818;stroke-width:0.5;"/><text fill="#000000" font-family="sans-serif" font-size="14" lengthAdjust="spacing" textLength="72" x="6" y="539.561">Scheduler</text></g><!--link API to CommandHandler--><g id="link_API_CommandHandler"><path d="M220.01,59.8159 C198.76,86.0159 158.39,135.7759 135.32,164.2159 " fill="none" id="API-to-CommandHandler" style="stroke:#181818;stroke-width:1.0;"/><polygon fill="#181818" points="132.04,168.2559,140.8198,163.7933,135.193,164.3753,134.6109,158.7485,132.04,168.2559" style="stroke:#181818;stroke-width:1.0;"/><text fill="#000000" font-family="sans-serif" font-size="13" font-weight="bold" lengthAdjust="spacing" textLength="14" x="188" y="111.1328">1.</text><text fill="#000000" font-family="sans-serif" font-size="13" lengthAdjust="spacing" textLength="52" x="206" y="111.1328">Execute</text><text fill="#000000" font-family="sans-serif" font-size="13" lengthAdjust="spacing" textLength="65" x="188" y="126.2656">command</text></g><!--link CommandHandler to Postgres--><g id="link_CommandHandler_Postgres"><path d="M139.22,204.7359 C162.49,223.1959 201.29,252.8559 237,275.0659 C256.52,287.2059 278.45,299.1859 298.7,309.6359 " fill="none" id="CommandHandler-to-Postgres" style="stroke:#181818;stroke-width:1.0;"/><polygon fill="#181818" points="303.26,311.9759,297.0674,304.3175,298.8081,309.6999,293.4257,311.4405,303.26,311.9759" style="stroke:#181818;stroke-width:1.0;"/><text fill="#000000" font-family="sans-serif" font-size="13" font-weight="bold" lengthAdjust="spacing" textLength="14" x="238" y="256.1328">2.</text><text fill="#000000" font-family="sans-serif" font-size="13" lengthAdjust="spacing" textLength="103" x="256" y="256.1328">Read aggregate</text><text fill="#000000" font-family="sans-serif" font-size="13" lengthAdjust="spacing" textLength="110" x="238" y="271.2656">&amp; append events</text></g><!--link CommandHandler to SyncEventHandler--><g id="link_CommandHandler_SyncEventHandler"><path d="M195.73,186.5659 C229.88,186.5659 269.55,186.5659 302.21,186.5659 " fill="none" id="CommandHandler-to-SyncEventHandler" style="stroke:#181818;stroke-width:1.0;"/><polygon fill="#181818" points="307.39,186.5659,298.39,182.5659,302.39,186.5659,298.39,190.5659,307.39,186.5659" style="stroke:#181818;stroke-width:1.0;"/><text fill="#000000" font-family="sans-serif" font-size="13" font-weight="bold" lengthAdjust="spacing" textLength="14" x="214" y="164.6328">3.</text><text fill="#000000" font-family="sans-serif" font-size="13" lengthAdjust="spacing" textLength="46" x="232" y="164.6328">Handle</text><text fill="#000000" font-family="sans-serif" font-size="13" lengthAdjust="spacing" textLength="75" x="214" y="179.7656">new events</text></g><!--link SyncEventHandler to Postgres--><g id="link_SyncEventHandler_Postgres"><path d="M368,213.2459 C368,236.7159 368,271.8959 368,299.7159 " fill="none" id="SyncEventHandler-to-Postgres" style="stroke:#181818;stroke-width:1.0;"/><polygon fill="#181818" points="368,304.8259,372,295.8259,368,299.8259,364,295.8259,368,304.8259" style="stroke:#181818;stroke-width:1.0;"/><text fill="#000000" font-family="sans-serif" font-size="13" font-weight="bold" lengthAdjust="spacing" textLength="14" x="369" y="256.1328">4.</text><text fill="#000000" font-family="sans-serif" font-size="13" lengthAdjust="spacing" textLength="47" x="387" y="256.1328">Update</text><text fill="#000000" font-family="sans-serif" font-size="13" lengthAdjust="spacing" textLength="74" x="369" y="271.2656">read model</text></g><!--link API to Repository--><g id="link_API_Repository"><path d="M275.6,41.5659 C316.33,41.5659 378.55,41.5659 422.84,41.5659 " fill="none" id="API-to-Repository" style="stroke:#181818;stroke-width:1.0;stroke-dasharray:7.0,7.0;"/><polygon fill="#181818" points="427.88,41.5659,418.88,37.5659,422.88,41.5659,418.88,45.5659,427.88,41.5659" style="stroke:#181818;stroke-width:1.0;"/><text fill="#000000" font-family="sans-serif" font-size="13" font-weight="bold" lengthAdjust="spacing" textLength="14" x="316.75" y="19.6328">5.</text><text fill="#000000" font-family="sans-serif" font-size="13" lengthAdjust="spacing" textLength="52" x="334.75" y="19.6328">Execute</text><text fill="#000000" font-family="sans-serif" font-size="13" lengthAdjust="spacing" textLength="37" x="316.75" y="34.7656">query</text></g><!--link Repository to Postgres--><g id="link_Repository_Postgres"><path d="M479.44,68.1459 C484.21,113.0459 488.54,207.6359 452,275.0659 C446.78,284.7059 439.56,293.4859 431.53,301.3059 " fill="none" id="Repository-to-Postgres" style="stroke:#181818;stroke-width:1.0;stroke-dasharray:7.0,7.0;"/><polygon fill="#181818" points="427.53,305.0559,436.8253,301.8004,431.171,301.6291,431.3423,295.9748,427.53,305.0559" style="stroke:#181818;stroke-width:1.0;"/><text fill="#000000" font-family="sans-serif" font-size="13" font-weight="bold" lengthAdjust="spacing" textLength="14" x="483" y="183.6328">6.</text><text fill="#000000" font-family="sans-serif" font-size="13" lengthAdjust="spacing" textLength="39" x="501" y="183.6328">Query</text><text fill="#000000" font-family="sans-serif" font-size="13" lengthAdjust="spacing" textLength="72" x="483" y="198.7656">projections</text></g><!--link Scheduler to ScheduledEventSubscriptionProcessor--><g id="link_Scheduler_ScheduledEventSubscriptionProcessor"><path d="M51.25,509.5659 C71.98,509.5659 123.92,509.5659 169.64,509.5659 " fill="none" id="Scheduler-to-ScheduledEventSubscriptionProcessor" style="stroke:#181818;stroke-width:1.0;"/><polygon fill="#181818" points="174.9,509.5659,165.9,505.5659,169.9,509.5659,165.9,513.5659,174.9,509.5659" style="stroke:#181818;stroke-width:1.0;"/><text fill="#000000" font-family="sans-serif" font-size="13" lengthAdjust="spacing" textLength="87" x="69.5" y="502.6328">Every second</text></g><!--reverse link Postgres to ScheduledEventSubscriptionProcessor--><g id="link_Postgres_ScheduledEventSubscriptionProcessor"><path d="M298.79,368.6559 C278.86,379.0359 259.43,393.4459 248,413.0659 C237.23,431.5559 238.07,455.6559 241.56,475.0259 " fill="none" id="Postgres-backto-ScheduledEventSubscriptionProcessor" style="stroke:#181818;stroke-width:1.0;"/><polygon fill="#181818" points="303.32,366.3759,293.4837,366.8735,298.8594,368.6348,297.098,374.0105,303.32,366.3759" style="stroke:#181818;stroke-width:1.0;"/><text fill="#000000" font-family="sans-serif" font-size="13" font-weight="bold" lengthAdjust="spacing" textLength="14" x="249" y="426.1328">7.</text><text fill="#000000" font-family="sans-serif" font-size="13" lengthAdjust="spacing" textLength="33" x="267" y="426.1328">Read</text><text fill="#000000" font-family="sans-serif" font-size="13" lengthAdjust="spacing" textLength="75" x="249" y="441.2656">new events</text></g><!--link ScheduledEventSubscriptionProcessor to Postgres--><g id="link_ScheduledEventSubscriptionProcessor_Postgres"><path d="M300.46,474.7859 C310.87,466.0059 321.08,455.9359 329,445.0659 C341.24,428.2659 350.21,407.1359 356.45,388.6259 " fill="none" id="ScheduledEventSubscriptionProcessor-to-Postgres" style="stroke:#181818;stroke-width:1.0;"/><polygon fill="#181818" points="358.13,383.4759,351.5287,390.785,356.5746,388.2278,359.1318,393.2737,358.13,383.4759" style="stroke:#181818;stroke-width:1.0;"/><text fill="#000000" font-family="sans-serif" font-size="13" font-weight="bold" lengthAdjust="spacing" textLength="23" x="348" y="426.1328">11.</text><text fill="#000000" font-family="sans-serif" font-size="13" lengthAdjust="spacing" textLength="47" x="375" y="426.1328">Update</text><text fill="#000000" font-family="sans-serif" font-size="13" lengthAdjust="spacing" textLength="71" x="348" y="441.2656">checkpoint</text></g><!--link ScheduledEventSubscriptionProcessor to AsyncEventHandler--><g id="link_ScheduledEventSubscriptionProcessor_AsyncEventHandler"><path d="M327.09,509.5659 C361.02,509.5659 400.59,509.5659 433.22,509.5659 " fill="none" id="ScheduledEventSubscriptionProcessor-to-AsyncEventHandler" style="stroke:#181818;stroke-width:1.0;"/><polygon fill="#181818" points="438.39,509.5659,429.39,505.5659,433.39,509.5659,429.39,513.5659,438.39,509.5659" style="stroke:#181818;stroke-width:1.0;"/><text fill="#000000" font-family="sans-serif" font-size="13" font-weight="bold" lengthAdjust="spacing" textLength="14" x="345.25" y="487.6328">8.</text><text fill="#000000" font-family="sans-serif" font-size="13" lengthAdjust="spacing" textLength="46" x="363.25" y="487.6328">Handle</text><text fill="#000000" font-family="sans-serif" font-size="13" lengthAdjust="spacing" textLength="75" x="345.25" y="502.7656">new events</text></g><!--link AsyncEventHandler to Postgres--><g id="link_AsyncEventHandler_Postgres"><path d="M481.96,482.7759 C468.7,463.1759 449.5,435.7959 431,413.0659 C424.02,404.4859 416.24,395.6059 408.6,387.2159 " fill="none" id="AsyncEventHandler-to-Postgres" style="stroke:#181818;stroke-width:1.0;"/><polygon fill="#181818" points="404.87,383.1359,408.0127,392.4699,408.2525,386.8181,413.9043,387.0579,404.87,383.1359" style="stroke:#181818;stroke-width:1.0;"/><text fill="#000000" font-family="sans-serif" font-size="13" font-weight="bold" lengthAdjust="spacing" textLength="14" x="456" y="433.6328">9.</text><text fill="#000000" font-family="sans-serif" font-size="13" lengthAdjust="spacing" textLength="103" x="474" y="433.6328">Read aggregate</text></g><!--link AsyncEventHandler to Kafka--><g id="link_AsyncEventHandler_Kafka"><path d="M559.62,509.5659 C604.7,509.5659 664.68,509.5659 702.32,509.5659 " fill="none" id="AsyncEventHandler-to-Kafka" style="stroke:#181818;stroke-width:1.0;"/><polygon fill="#181818" points="707.7,509.5659,698.7,505.5659,702.7,509.5659,698.7,513.5659,707.7,509.5659" style="stroke:#181818;stroke-width:1.0;"/><text fill="#000000" font-family="sans-serif" font-size="13" font-weight="bold" lengthAdjust="spacing" textLength="23" x="577.75" y="487.6328">10.</text><text fill="#000000" font-family="sans-serif" font-size="13" lengthAdjust="spacing" textLength="32" x="604.75" y="487.6328">Send</text><text fill="#000000" font-family="sans-serif" font-size="13" lengthAdjust="spacing" textLength="112" x="577.75" y="502.7656">integration event</text></g><!--SRC=[ZLHDRzim3BthLn09q4E014dJzGk5WQpBi64xf7M7NN9HPTRs8akU9Ay9YlttKOgJEVQwvcB3vEFZ8nzXAxX4AFWQ9kFJCtZE4vSnkmzUZiUGOPvcZZ6xobN93IyWmITUIVU0QpUJUQeAL0u4FT0qK48NfLOKZTs6w0mAnrKgiG4fkLZn5Dk0PYlk-2Et22yCu3t1KwChbTnggStDpK9RbngCxxv64VIdq_EBgmdXFchb0WA-Pxb3zfknlHZetS_Z1vWjFlU0M_y-IDxgek0gWK_qa6W2fexL8UXBluz7MU51PImoJ2g9oLBDV_b8N3rQOVBIvLejrS9eWTRgBUKU7A1Dv1xtQf-D4fdHIbTsrwafrgT3z0svC_j_df0_XeW4_o3dmf3tM6gREsqsWUFlPrrCNg5YR6zghzuKGH1EV3rFu4ET3HIrmnOEpMRiPuKLmXV-jEBGtzhCo4mOHYs_hc4mc8m60vYlKLGEbr9iywpbwv1AT-ryqQal2efuIh6K-zeJu6M9T23ebTiEHzGnm5DDFTNsUoaLFk-gEsQrDPpvmczb4deRhwNG2SemwIXgBDY3tnrCIGio6zQmO3GQ7PAVU_oTXorbkNUHLDN7INACTyqFzVQzNWFbg8r5eMcvnrpui2fRyrxiTdwufcEuekx9UiRBLrRVlU_sxg-w_l-hQhUYS8hXsCQ-CAOZMSgS_ecfuLxgjl5nixIKJ2RDCo02iIerKRC_]--></g></svg>