<?xml version="1.0" encoding="us-ascii" standalone="no"?><svg xmlns="http://www.w3.org/2000/svg" xmlns:xlink="http://www.w3.org/1999/xlink" contentStyleType="text/css" height="1100.0854px" preserveAspectRatio="none" style="width:1108px;height:1100px;background:#FFFFFF;" version="1.1" viewBox="0 0 1108 1100" width="1108.4894px" zoomAndPan="magnify"><defs/><g><rect fill="#FFFFFF" height="583.6193" style="stroke:#808080;stroke-width:0.8404013393896347;" width="8.404" x="89.5027" y="84.0598"/><rect fill="#FFFFFF" height="198.3872" style="stroke:#808080;stroke-width:0.8404013393896347;" width="8.404" x="201.2761" y="187.0353"/><rect fill="#FFFFFF" height="282.2567" style="stroke:#808080;stroke-width:0.8404013393896347;" width="8.404" x="828.2155" y="409.9058"/><rect fill="#FFFFFF" height="282.2567" style="stroke:#808080;stroke-width:0.8404013393896347;" width="8.404" x="948.3929" y="737.6557"/><line style="stroke:#808080;stroke-width:0.42020066969481734;stroke-dasharray:5.0,5.0;" x1="93.2845" x2="93.2845" y1="57.8958" y2="1035.0396"/><line style="stroke:#808080;stroke-width:0.42020066969481734;stroke-dasharray:5.0,5.0;" x1="205.0579" x2="205.0579" y1="57.8958" y2="1035.0396"/><line style="stroke:#808080;stroke-width:0.42020066969481734;stroke-dasharray:5.0,5.0;" x1="531.974" x2="531.974" y1="57.8958" y2="1035.0396"/><line style="stroke:#808080;stroke-width:0.42020066969481734;stroke-dasharray:5.0,5.0;" x1="831.9973" x2="831.9973" y1="57.8958" y2="1035.0396"/><line style="stroke:#808080;stroke-width:0.42020066969481734;stroke-dasharray:5.0,5.0;" x1="952.1747" x2="952.1747" y1="57.8958" y2="1035.0396"/><rect fill="#E2E2F0" height="39.1574" rx="2.101" ry="2.101" style="stroke:#181818;stroke-width:0.42020066969481734;" width="103.3694" x="42.0201" y="17.8979"/><text fill="#000000" font-family="sans-serif" font-size="11.7656" lengthAdjust="spacing" textLength="83.1997" x="52.1049" y="34.7018">Append Event</text><text fill="#000000" font-family="sans-serif" font-size="11.7656" lengthAdjust="spacing" textLength="91.6037" x="47.9029" y="48.3978">Transaction #1</text><rect fill="#E2E2F0" height="39.1574" rx="2.101" ry="2.101" style="stroke:#181818;stroke-width:0.42020066969481734;" width="103.3694" x="42.0201" y="1034.1992"/><text fill="#000000" font-family="sans-serif" font-size="11.7656" lengthAdjust="spacing" textLength="83.1997" x="52.1049" y="1051.0031">Append Event</text><text fill="#000000" font-family="sans-serif" font-size="11.7656" lengthAdjust="spacing" textLength="91.6037" x="47.9029" y="1064.699">Transaction #1</text><rect fill="#E2E2F0" height="39.1574" rx="2.101" ry="2.101" style="stroke:#181818;stroke-width:0.42020066969481734;" width="103.3694" x="153.7934" y="17.8979"/><text fill="#000000" font-family="sans-serif" font-size="11.7656" lengthAdjust="spacing" textLength="83.1997" x="163.8783" y="34.7018">Append Event</text><text fill="#000000" font-family="sans-serif" font-size="11.7656" lengthAdjust="spacing" textLength="91.6037" x="159.6763" y="48.3978">Transaction #2</text><rect fill="#E2E2F0" height="39.1574" rx="2.101" ry="2.101" style="stroke:#181818;stroke-width:0.42020066969481734;" width="103.3694" x="153.7934" y="1034.1992"/><text fill="#000000" font-family="sans-serif" font-size="11.7656" lengthAdjust="spacing" textLength="83.1997" x="163.8783" y="1051.0031">Append Event</text><text fill="#000000" font-family="sans-serif" font-size="11.7656" lengthAdjust="spacing" textLength="91.6037" x="159.6763" y="1064.699">Transaction #2</text><text fill="#000000" font-family="sans-serif" font-size="11.7656" lengthAdjust="spacing" textLength="68.0725" x="495.8368" y="55.121">PostgreSQL</text><path d="M517.267,13.9454 C517.267,5.5414 532.3942,5.5414 532.3942,5.5414 C532.3942,5.5414 547.5215,5.5414 547.5215,13.9454 L547.5215,35.7958 C547.5215,44.1999 532.3942,44.1999 532.3942,44.1999 C532.3942,44.1999 517.267,44.1999 517.267,35.7958 L517.267,13.9454 " fill="#E2E2F0" style="stroke:#181818;stroke-width:1.260602009084452;"/><path d="M517.267,13.9454 C517.267,22.3494 532.3942,22.3494 532.3942,22.3494 C532.3942,22.3494 547.5215,22.3494 547.5215,13.9454 " fill="none" style="stroke:#181818;stroke-width:1.260602009084452;"/><text fill="#000000" font-family="sans-serif" font-size="11.7656" lengthAdjust="spacing" textLength="68.0725" x="495.8368" y="1045.1203">PostgreSQL</text><path d="M517.267,1056.2991 C517.267,1047.8951 532.3942,1047.8951 532.3942,1047.8951 C532.3942,1047.8951 547.5215,1047.8951 547.5215,1056.2991 L547.5215,1078.1496 C547.5215,1086.5536 532.3942,1086.5536 532.3942,1086.5536 C532.3942,1086.5536 517.267,1086.5536 517.267,1078.1496 L517.267,1056.2991 " fill="#E2E2F0" style="stroke:#181818;stroke-width:1.260602009084452;"/><path d="M517.267,1056.2991 C517.267,1064.7031 532.3942,1064.7031 532.3942,1064.7031 C532.3942,1064.7031 547.5215,1064.7031 547.5215,1056.2991 " fill="none" style="stroke:#181818;stroke-width:1.260602009084452;"/><rect fill="#E2E2F0" height="52.8534" rx="2.101" ry="2.101" style="stroke:#181818;stroke-width:0.42020066969481734;" width="111.7734" x="776.5308" y="4.202"/><text fill="#000000" font-family="sans-serif" font-size="11.7656" lengthAdjust="spacing" textLength="73.9553" x="795.4399" y="21.0059">Read Events</text><text fill="#000000" font-family="sans-serif" font-size="11.7656" lengthAdjust="spacing" textLength="100.0078" x="782.4136" y="34.7018">After Checkpoint</text><text fill="#000000" font-family="sans-serif" font-size="11.7656" lengthAdjust="spacing" textLength="91.6037" x="786.6157" y="48.3978">Transaction #3</text><rect fill="#E2E2F0" height="52.8534" rx="2.101" ry="2.101" style="stroke:#181818;stroke-width:0.42020066969481734;" width="111.7734" x="776.5308" y="1034.1992"/><text fill="#000000" font-family="sans-serif" font-size="11.7656" lengthAdjust="spacing" textLength="73.9553" x="795.4399" y="1051.0031">Read Events</text><text fill="#000000" font-family="sans-serif" font-size="11.7656" lengthAdjust="spacing" textLength="100.0078" x="782.4136" y="1064.699">After Checkpoint</text><text fill="#000000" font-family="sans-serif" font-size="11.7656" lengthAdjust="spacing" textLength="91.6037" x="786.6157" y="1078.395">Transaction #3</text><rect fill="#E2E2F0" height="52.8534" rx="2.101" ry="2.101" style="stroke:#181818;stroke-width:0.42020066969481734;" width="111.7734" x="896.7082" y="4.202"/><text fill="#000000" font-family="sans-serif" font-size="11.7656" lengthAdjust="spacing" textLength="73.9553" x="915.6173" y="21.0059">Read Events</text><text fill="#000000" font-family="sans-serif" font-size="11.7656" lengthAdjust="spacing" textLength="100.0078" x="902.591" y="34.7018">After Checkpoint</text><text fill="#000000" font-family="sans-serif" font-size="11.7656" lengthAdjust="spacing" textLength="91.6037" x="906.793" y="48.3978">Transaction #4</text><rect fill="#E2E2F0" height="52.8534" rx="2.101" ry="2.101" style="stroke:#181818;stroke-width:0.42020066969481734;" width="111.7734" x="896.7082" y="1034.1992"/><text fill="#000000" font-family="sans-serif" font-size="11.7656" lengthAdjust="spacing" textLength="73.9553" x="915.6173" y="1051.0031">Read Events</text><text fill="#000000" font-family="sans-serif" font-size="11.7656" lengthAdjust="spacing" textLength="100.0078" x="902.591" y="1064.699">After Checkpoint</text><text fill="#000000" font-family="sans-serif" font-size="11.7656" lengthAdjust="spacing" textLength="91.6037" x="906.793" y="1078.395">Transaction #4</text><rect fill="#FFFFFF" height="583.6193" style="stroke:#808080;stroke-width:0.8404013393896347;" width="8.404" x="89.5027" y="84.0598"/><rect fill="#FFFFFF" height="198.3872" style="stroke:#808080;stroke-width:0.8404013393896347;" width="8.404" x="201.2761" y="187.0353"/><rect fill="#FFFFFF" height="282.2567" style="stroke:#808080;stroke-width:0.8404013393896347;" width="8.404" x="828.2155" y="409.9058"/><rect fill="#FFFFFF" height="282.2567" style="stroke:#808080;stroke-width:0.8404013393896347;" width="8.404" x="948.3929" y="737.6557"/><polygon fill="#181818" points="522.3094,80.6982,530.7134,84.0598,522.3094,87.4214,525.671,84.0598" style="stroke:#181818;stroke-width:0.8404013393896347;"/><line style="stroke:#181818;stroke-width:0.8404013393896347;stroke-dasharray:2.0,2.0;" x1="97.9068" x2="527.3518" y1="84.0598" y2="84.0598"/><text fill="#000000" font-family="monospace" font-size="10.9252" lengthAdjust="spacing" textLength="114.2946" x="103.7896" y="79.8024">BEGIN&#160;TRANSACTION</text><path d="M4.202,94.985 L4.202,115.9951 L183.2075,115.9951 L183.2075,103.3891 L174.8035,94.985 L4.202,94.985 " fill="#FEFFDD" style="stroke:#181818;stroke-width:0.42020066969481734;"/><path d="M174.8035,94.985 L174.8035,103.3891 L183.2075,103.3891 L174.8035,94.985 " fill="#FEFFDD" style="stroke:#181818;stroke-width:0.42020066969481734;"/><text fill="#000000" font-family="monospace" font-size="10.9252" lengthAdjust="spacing" textLength="161.3571" x="9.2444" y="109.3281">pg_current_xact_id()=851</text><polygon fill="#181818" points="522.3094,134.7071,530.7134,138.0687,522.3094,141.4304,525.671,138.0687" style="stroke:#181818;stroke-width:0.8404013393896347;"/><line style="stroke:#181818;stroke-width:0.8404013393896347;stroke-dasharray:2.0,2.0;" x1="97.9068" x2="527.3518" y1="138.0687" y2="138.0687"/><text fill="#000000" font-family="monospace" font-size="10.9252" lengthAdjust="spacing" textLength="221.866" x="103.7896" y="133.8113">SELECT&#160;nextval('ES_EVENT_ID_SEQ')</text><polygon fill="#181818" points="107.1512,159.1904,98.7472,162.552,107.1512,165.9136,103.7896,162.552" style="stroke:#181818;stroke-width:0.8404013393896347;"/><line style="stroke:#181818;stroke-width:0.8404013393896347;stroke-dasharray:2.0,2.0;" x1="102.1088" x2="531.5538" y1="162.552" y2="162.552"/><text fill="#000000" font-family="sans-serif" font-size="10.9252" font-style="italic" lengthAdjust="spacing" textLength="70.5937" x="112.1936" y="158.2946">nextval=101</text><polygon fill="#181818" points="522.3094,183.6737,530.7134,187.0353,522.3094,190.3969,525.671,187.0353" style="stroke:#181818;stroke-width:0.8404013393896347;"/><line style="stroke:#181818;stroke-width:0.8404013393896347;stroke-dasharray:2.0,2.0;" x1="209.6801" x2="527.3518" y1="187.0353" y2="187.0353"/><text fill="#000000" font-family="monospace" font-size="10.9252" lengthAdjust="spacing" textLength="114.2946" x="215.5629" y="182.7779">BEGIN&#160;TRANSACTION</text><path d="M115.9754,197.9605 L115.9754,218.9705 L294.9809,218.9705 L294.9809,206.3645 L286.5769,197.9605 L115.9754,197.9605 " fill="#FEFFDD" style="stroke:#181818;stroke-width:0.42020066969481734;"/><path d="M286.5769,197.9605 L286.5769,206.3645 L294.9809,206.3645 L286.5769,197.9605 " fill="#FEFFDD" style="stroke:#181818;stroke-width:0.42020066969481734;"/><text fill="#000000" font-family="monospace" font-size="10.9252" lengthAdjust="spacing" textLength="161.3571" x="121.0178" y="212.3035">pg_current_xact_id()=852</text><polygon fill="#181818" points="522.3094,237.6826,530.7134,241.0442,522.3094,244.4058,525.671,241.0442" style="stroke:#181818;stroke-width:0.8404013393896347;"/><line style="stroke:#181818;stroke-width:0.8404013393896347;stroke-dasharray:2.0,2.0;" x1="209.6801" x2="527.3518" y1="241.0442" y2="241.0442"/><text fill="#000000" font-family="monospace" font-size="10.9252" lengthAdjust="spacing" textLength="221.866" x="215.5629" y="236.7868">SELECT&#160;nextval('ES_EVENT_ID_SEQ')</text><polygon fill="#181818" points="218.9245,262.1658,210.5205,265.5274,218.9245,268.889,215.5629,265.5274" style="stroke:#181818;stroke-width:0.8404013393896347;"/><line style="stroke:#181818;stroke-width:0.8404013393896347;stroke-dasharray:2.0,2.0;" x1="213.8821" x2="531.5538" y1="265.5274" y2="265.5274"/><text fill="#000000" font-family="sans-serif" font-size="10.9252" font-style="italic" lengthAdjust="spacing" textLength="70.5937" x="223.967" y="261.27">nextval=102</text><polygon fill="#181818" points="522.3094,320.3767,530.7134,323.7384,522.3094,327.1,525.671,323.7384" style="stroke:#181818;stroke-width:0.8404013393896347;"/><line style="stroke:#181818;stroke-width:0.8404013393896347;stroke-dasharray:2.0,2.0;" x1="97.9068" x2="527.3518" y1="323.7384" y2="323.7384"/><text fill="#000000" font-family="monospace" font-size="10.9252" lengthAdjust="spacing" textLength="302.5445" x="103.7896" y="306.7633">INSERT&#160;INTO&#160;ES_EVENT(ID,&#160;TRANSACTION_ID,&#160;...)</text><text fill="#000000" font-family="monospace" font-size="10.9252" lengthAdjust="spacing" textLength="141.1874" x="103.7896" y="319.4809">VALUES(101,&#160;851,&#160;...)</text><polygon fill="#181818" points="522.3094,357.5776,530.7134,360.9392,522.3094,364.3008,525.671,360.9392" style="stroke:#181818;stroke-width:0.8404013393896347;"/><line style="stroke:#181818;stroke-width:0.8404013393896347;stroke-dasharray:2.0,2.0;" x1="209.6801" x2="527.3518" y1="360.9392" y2="360.9392"/><text fill="#000000" font-family="monospace" font-size="10.9252" lengthAdjust="spacing" textLength="302.5445" x="215.5629" y="343.9642">INSERT&#160;INTO&#160;ES_EVENT(ID,&#160;TRANSACTION_ID,&#160;...)</text><text fill="#000000" font-family="monospace" font-size="10.9252" lengthAdjust="spacing" textLength="141.1874" x="215.5629" y="356.6818">VALUES(102,&#160;852,&#160;...)</text><polygon fill="#181818" points="522.3094,382.0609,530.7134,385.4225,522.3094,388.7841,525.671,385.4225" style="stroke:#181818;stroke-width:0.8404013393896347;"/><line style="stroke:#181818;stroke-width:0.8404013393896347;stroke-dasharray:2.0,2.0;" x1="205.4781" x2="527.3518" y1="385.4225" y2="385.4225"/><text fill="#000000" font-family="monospace" font-size="10.9252" lengthAdjust="spacing" textLength="40.3393" x="211.3609" y="381.1651">COMMIT</text><polygon fill="#181818" points="541.6387,406.5441,533.2346,409.9058,541.6387,413.2674,538.2771,409.9058" style="stroke:#181818;stroke-width:0.8404013393896347;"/><line style="stroke:#181818;stroke-width:0.8404013393896347;stroke-dasharray:2.0,2.0;" x1="536.5963" x2="827.3751" y1="409.9058" y2="409.9058"/><text fill="#000000" font-family="monospace" font-size="10.9252" lengthAdjust="spacing" textLength="114.2946" x="546.6811" y="405.6483">BEGIN&#160;TRANSACTION</text><path d="M682.4059,420.831 L682.4059,454.447 L982.4292,454.447 L982.4292,429.235 L974.0252,420.831 L682.4059,420.831 " fill="#FEFFDD" style="stroke:#181818;stroke-width:0.42020066969481734;"/><path d="M974.0252,420.831 L974.0252,429.235 L982.4292,429.235 L974.0252,420.831 " fill="#FEFFDD" style="stroke:#181818;stroke-width:0.42020066969481734;"/><text fill="#000000" font-family="monospace" font-size="10.9252" lengthAdjust="spacing" textLength="161.3571" x="687.4483" y="435.174">pg_current_xact_id()=853</text><text fill="#000000" font-family="monospace" font-size="10.9252" lengthAdjust="spacing" textLength="282.3749" x="687.4483" y="447.8916">pg_snapshot_xmin(pg_current_snapshot()=851</text><polygon fill="#181818" points="541.6387,485.9883,533.2346,489.3499,541.6387,492.7115,538.2771,489.3499" style="stroke:#181818;stroke-width:0.8404013393896347;"/><line style="stroke:#181818;stroke-width:0.8404013393896347;stroke-dasharray:2.0,2.0;" x1="536.5963" x2="827.3751" y1="489.3499" y2="489.3499"/><text fill="#000000" font-family="monospace" font-size="10.9252" lengthAdjust="spacing" textLength="275.6516" x="546.6811" y="472.3749">SELECT&#160;LAST_TRANSACTION_ID,&#160;LAST_EVENT_ID</text><text fill="#000000" font-family="monospace" font-size="10.9252" lengthAdjust="spacing" textLength="174.8035" x="546.6811" y="485.0925">FROM&#160;ES_EVENT_SUBSCRIPTION</text><polygon fill="#181818" points="818.1307,523.1892,826.5347,526.5508,818.1307,529.9124,821.4923,526.5508" style="stroke:#181818;stroke-width:0.8404013393896347;"/><line style="stroke:#181818;stroke-width:0.8404013393896347;stroke-dasharray:2.0,2.0;" x1="532.3942" x2="823.1731" y1="526.5508" y2="526.5508"/><text fill="#000000" font-family="sans-serif" font-size="10.9252" font-style="italic" lengthAdjust="spacing" textLength="158.8359" x="538.2771" y="509.5758">LAST_TRANSACTION_ID=850</text><text fill="#000000" font-family="sans-serif" font-size="10.9252" font-style="italic" lengthAdjust="spacing" textLength="115.9754" x="538.2771" y="522.2934">LAST_EVENT_ID=100</text><polygon fill="#181818" points="541.6387,573.1078,533.2346,576.4694,541.6387,579.831,538.2771,576.4694" style="stroke:#181818;stroke-width:0.8404013393896347;"/><line style="stroke:#181818;stroke-width:0.8404013393896347;stroke-dasharray:2.0,2.0;" x1="536.5963" x2="827.3751" y1="576.4694" y2="576.4694"/><text fill="#000000" font-family="monospace" font-size="10.9252" lengthAdjust="spacing" textLength="154.6338" x="546.6811" y="546.7767">SELECT&#160;ID&#160;FROM&#160;ES_EVENT</text><text fill="#000000" font-family="monospace" font-size="10.9252" lengthAdjust="spacing" textLength="262.2052" x="546.6811" y="559.4943">WHERE&#160;(TRANSACTION_ID,&#160;ID)&#160;&gt;&#160;(850,&#160;100)</text><text fill="#000000" font-family="monospace" font-size="10.9252" lengthAdjust="spacing" textLength="161.3571" x="546.6811" y="572.212">AND&#160;TRANSACTION_ID&#160;&lt;&#160;851</text><polygon fill="#181818" points="818.1307,597.591,826.5347,600.9526,818.1307,604.3142,821.4923,600.9526" style="stroke:#181818;stroke-width:0.8404013393896347;"/><line style="stroke:#181818;stroke-width:0.8404013393896347;stroke-dasharray:2.0,2.0;" x1="532.3942" x2="823.1731" y1="600.9526" y2="600.9526"/><text fill="#000000" font-family="sans-serif" font-size="10.9252" font-style="italic" lengthAdjust="spacing" textLength="44.5413" x="538.2771" y="596.6952">No rows</text><path d="M674.0019,611.8778 L674.0019,645.4939 L990.8332,645.4939 L990.8332,620.2818 L982.4292,611.8778 L674.0019,611.8778 " fill="#FEFFDD" style="stroke:#181818;stroke-width:0.42020066969481734;"/><path d="M982.4292,611.8778 L982.4292,620.2818 L990.8332,620.2818 L982.4292,611.8778 " fill="#FEFFDD" style="stroke:#181818;stroke-width:0.42020066969481734;"/><text fill="#000000" font-family="sans-serif" font-size="10.9252" lengthAdjust="spacing" textLength="102.529" x="679.0443" y="626.2209">No eligible events,</text><text fill="#000000" font-family="sans-serif" font-size="10.9252" lengthAdjust="spacing" textLength="299.1829" x="679.0443" y="638.9385">event with ID=102 has TRANSACTION_ID=852 (&gt; 851)</text><polygon fill="#181818" points="522.3094,664.3176,530.7134,667.6792,522.3094,671.0408,525.671,667.6792" style="stroke:#181818;stroke-width:0.8404013393896347;"/><line style="stroke:#181818;stroke-width:0.8404013393896347;stroke-dasharray:2.0,2.0;" x1="93.7047" x2="527.3518" y1="667.6792" y2="667.6792"/><text fill="#000000" font-family="monospace" font-size="10.9252" lengthAdjust="spacing" textLength="40.3393" x="99.5876" y="663.4218">COMMIT</text><polygon fill="#181818" points="541.6387,688.8008,533.2346,692.1624,541.6387,695.524,538.2771,692.1624" style="stroke:#181818;stroke-width:0.8404013393896347;"/><line style="stroke:#181818;stroke-width:0.8404013393896347;stroke-dasharray:2.0,2.0;" x1="536.5963" x2="831.5771" y1="692.1624" y2="692.1624"/><text fill="#000000" font-family="monospace" font-size="10.9252" lengthAdjust="spacing" textLength="40.3393" x="546.6811" y="687.905">COMMIT</text><polygon fill="#181818" points="541.6387,734.2941,533.2346,737.6557,541.6387,741.0173,538.2771,737.6557" style="stroke:#181818;stroke-width:0.8404013393896347;"/><line style="stroke:#181818;stroke-width:0.8404013393896347;stroke-dasharray:2.0,2.0;" x1="536.5963" x2="947.5525" y1="737.6557" y2="737.6557"/><text fill="#000000" font-family="monospace" font-size="10.9252" lengthAdjust="spacing" textLength="114.2946" x="546.6811" y="733.3983">BEGIN&#160;TRANSACTION</text><path d="M802.5833,748.5809 L802.5833,782.197 L1102.6066,782.197 L1102.6066,756.9849 L1094.2025,748.5809 L802.5833,748.5809 " fill="#FEFFDD" style="stroke:#181818;stroke-width:0.42020066969481734;"/><path d="M1094.2025,748.5809 L1094.2025,756.9849 L1102.6066,756.9849 L1094.2025,748.5809 " fill="#FEFFDD" style="stroke:#181818;stroke-width:0.42020066969481734;"/><text fill="#000000" font-family="monospace" font-size="10.9252" lengthAdjust="spacing" textLength="161.3571" x="807.6257" y="762.924">pg_current_xact_id()=854</text><text fill="#000000" font-family="monospace" font-size="10.9252" lengthAdjust="spacing" textLength="282.3749" x="807.6257" y="775.6416">pg_snapshot_xmin(pg_current_snapshot()=854</text><polygon fill="#181818" points="541.6387,813.7383,533.2346,817.0999,541.6387,820.4615,538.2771,817.0999" style="stroke:#181818;stroke-width:0.8404013393896347;"/><line style="stroke:#181818;stroke-width:0.8404013393896347;stroke-dasharray:2.0,2.0;" x1="536.5963" x2="947.5525" y1="817.0999" y2="817.0999"/><text fill="#000000" font-family="monospace" font-size="10.9252" lengthAdjust="spacing" textLength="275.6516" x="546.6811" y="800.1249">SELECT&#160;LAST_TRANSACTION_ID,&#160;LAST_EVENT_ID</text><text fill="#000000" font-family="monospace" font-size="10.9252" lengthAdjust="spacing" textLength="174.8035" x="546.6811" y="812.8425">FROM&#160;ES_EVENT_SUBSCRIPTION</text><polygon fill="#181818" points="938.3081,850.9392,946.7121,854.3008,938.3081,857.6624,941.6697,854.3008" style="stroke:#181818;stroke-width:0.8404013393896347;"/><line style="stroke:#181818;stroke-width:0.8404013393896347;stroke-dasharray:2.0,2.0;" x1="532.3942" x2="943.3505" y1="854.3008" y2="854.3008"/><text fill="#000000" font-family="sans-serif" font-size="10.9252" font-style="italic" lengthAdjust="spacing" textLength="158.8359" x="538.2771" y="837.3257">LAST_TRANSACTION_ID=850</text><text fill="#000000" font-family="sans-serif" font-size="10.9252" font-style="italic" lengthAdjust="spacing" textLength="115.9754" x="538.2771" y="850.0434">LAST_EVENT_ID=100</text><polygon fill="#181818" points="541.6387,900.8577,533.2346,904.2193,541.6387,907.5809,538.2771,904.2193" style="stroke:#181818;stroke-width:0.8404013393896347;"/><line style="stroke:#181818;stroke-width:0.8404013393896347;stroke-dasharray:2.0,2.0;" x1="536.5963" x2="947.5525" y1="904.2193" y2="904.2193"/><text fill="#000000" font-family="monospace" font-size="10.9252" lengthAdjust="spacing" textLength="154.6338" x="546.6811" y="874.5266">SELECT&#160;ID&#160;FROM&#160;ES_EVENT</text><text fill="#000000" font-family="monospace" font-size="10.9252" lengthAdjust="spacing" textLength="262.2052" x="546.6811" y="887.2443">WHERE&#160;(TRANSACTION_ID,&#160;ID)&#160;&gt;&#160;(850,&#160;100)</text><text fill="#000000" font-family="monospace" font-size="10.9252" lengthAdjust="spacing" textLength="161.3571" x="546.6811" y="899.9619">AND&#160;TRANSACTION_ID&#160;&lt;&#160;854</text><polygon fill="#181818" points="938.3081,925.341,946.7121,928.7026,938.3081,932.0642,941.6697,928.7026" style="stroke:#181818;stroke-width:0.8404013393896347;"/><line style="stroke:#181818;stroke-width:0.8404013393896347;stroke-dasharray:2.0,2.0;" x1="532.3942" x2="943.3505" y1="928.7026" y2="928.7026"/><text fill="#000000" font-family="sans-serif" font-size="10.9252" font-style="italic" lengthAdjust="spacing" textLength="89.0825" x="538.2771" y="924.4452">ID=101, ID=102</text><path d="M854.6882,939.6278 L854.6882,960.6378 L1050.5017,960.6378 L1050.5017,948.0318 L1042.0977,939.6278 L854.6882,939.6278 " fill="#FEFFDD" style="stroke:#181818;stroke-width:0.42020066969481734;"/><path d="M1042.0977,939.6278 L1042.0977,948.0318 L1050.5017,948.0318 L1042.0977,939.6278 " fill="#FEFFDD" style="stroke:#181818;stroke-width:0.42020066969481734;"/><text fill="#000000" font-family="sans-serif" font-size="10.9252" lengthAdjust="spacing" textLength="178.1651" x="859.7306" y="953.9708">Process events: ID=101, ID=102</text><polygon fill="#181818" points="541.6387,992.0675,533.2346,995.4291,541.6387,998.7907,538.2771,995.4291" style="stroke:#181818;stroke-width:0.8404013393896347;"/><line style="stroke:#181818;stroke-width:0.8404013393896347;stroke-dasharray:2.0,2.0;" x1="536.5963" x2="947.5525" y1="995.4291" y2="995.4291"/><text fill="#000000" font-family="monospace" font-size="10.9252" lengthAdjust="spacing" textLength="188.2499" x="546.6811" y="978.4541">UPDATE&#160;ES_EVENT_SUBSCRIPTION</text><text fill="#000000" font-family="monospace" font-size="10.9252" lengthAdjust="spacing" textLength="322.7141" x="546.6811" y="991.1717">SET&#160;LAST_TRANSACTION_ID=852,&#160;LAST_EVENT_ID&#160;=&#160;102</text><polygon fill="#181818" points="541.6387,1016.5508,533.2346,1019.9124,541.6387,1023.274,538.2771,1019.9124" style="stroke:#181818;stroke-width:0.8404013393896347;"/><line style="stroke:#181818;stroke-width:0.8404013393896347;stroke-dasharray:2.0,2.0;" x1="536.5963" x2="951.7545" y1="1019.9124" y2="1019.9124"/><text fill="#000000" font-family="monospace" font-size="10.9252" lengthAdjust="spacing" textLength="40.3393" x="546.6811" y="1015.655">COMMIT</text><!--SRC=[lLR1Rfj04Btp5IDw29QS61OgLL4TYTZR58bWnv3qOWcjOMDGd8Mon77KzD-xh75gi1EvgTeRC3Dltinx7fb7P47Xdgp0q945ZsbS9Wh__T7GTKXeEazAHU5tASj9GUw1q-yFb4KKVYW0RdfBtPJHywo8QJ785ba15mLzKewsOYIwcnVP0ulNSRT2b4a_5KLWbccKveILeDfvJbaCU4bPEML1GHWdKPbc33uOAX0EvSeuk0BL5KY9IKbcX5DGnnalvmNrhrmPZ6TDj0abDHQVClksf0KC4XhTvLcw0s_MyERx8QmQmb8KCHWS7vy9HgUWgkVuml4WcDYURmy2P-Ifgb8LBKb9vGvO9XwofG0NRrL5FW-ZXw8GRSELo0pJMElqFtqqH64JsiSk7WJ0wAfSaeLsXFqGts0l29rXwEEheuweY6UoG4BtUdLgtz2DNa-WeSE9eWPHz0PH98cYzn95JQ9847r-VcwDxdW-dWJWUC48DcYQC-nkym-hzvEJ4u4-PQfwOxlNsDV4w5qGszo4MbJ_1XXLmEWLuC7eyj89ga5fOwl2TOUBO3P4CDyGmLnp4r7EICwJJ8JlKwPjfMy2M-uoTqLpRJy8syFBZni9rvs-J4QNBniB_UjpVp1nnlK8B-AQbRXx80K3lTURiZguWHRwwzAeUuWvGsZqNDFuzXLFC6Xjmiwm0sUWYIvTSI3rMZdR6xPqXS-mtaMJiPT1aJroGQMrVn6WYtIUpiITfV9ITATCFeWJN2OWHq2GYDkmCp02xQpgrcbvUxzJZDOMzcUPzM_5EjnJLcCcwmrFMN_eAKjwolhNdhBUwIdhVthAsc4icHZTsY8jQucCSP55bFFQLgVGp6_nlnuFxG2_jgkAbu_txhqlBrPZGT2l_aFiQBVVS9Ro2m00]--></g></svg>