<?xml version="1.0" encoding="us-ascii" standalone="no"?><svg xmlns="http://www.w3.org/2000/svg" xmlns:xlink="http://www.w3.org/1999/xlink" contentStyleType="text/css" height="1100.1993px" preserveAspectRatio="none" style="width:1121px;height:1100px;background:#FFFFFF;" version="1.1" viewBox="0 0 1121 1100" width="1121.4551px" zoomAndPan="magnify"><defs/><g><rect fill="#FFFFFF" height="547.7084" style="stroke:#808080;stroke-width:0.8502312774000313;" width="8.5023" x="90.5496" y="85.0431"/><rect fill="#FFFFFF" height="200.7077" style="stroke:#808080;stroke-width:0.8502312774000313;" width="8.5023" x="203.6304" y="189.223"/><rect fill="#FFFFFF" height="272.6918" style="stroke:#808080;stroke-width:0.8502312774000313;" width="8.5023" x="837.9029" y="414.7003"/><rect fill="#FFFFFF" height="285.5581" style="stroke:#808080;stroke-width:0.8502312774000313;" width="8.5023" x="959.486" y="733.4175"/><line style="stroke:#808080;stroke-width:0.4251156387000157;stroke-dasharray:5.0,5.0;" x1="94.3757" x2="94.3757" y1="58.573" y2="1034.2798"/><line style="stroke:#808080;stroke-width:0.4251156387000157;stroke-dasharray:5.0,5.0;" x1="207.4564" x2="207.4564" y1="58.573" y2="1034.2798"/><line style="stroke:#808080;stroke-width:0.4251156387000157;stroke-dasharray:5.0,5.0;" x1="538.1964" x2="538.1964" y1="58.573" y2="1034.2798"/><line style="stroke:#808080;stroke-width:0.4251156387000157;stroke-dasharray:5.0,5.0;" x1="841.729" x2="841.729" y1="58.573" y2="1034.2798"/><line style="stroke:#808080;stroke-width:0.4251156387000157;stroke-dasharray:5.0,5.0;" x1="963.312" x2="963.312" y1="58.573" y2="1034.2798"/><rect fill="#E2E2F0" height="39.6155" rx="2.1256" ry="2.1256" style="stroke:#181818;stroke-width:0.4251156387000157;" width="104.5784" x="42.5116" y="18.1073"/><text fill="#000000" font-family="sans-serif" font-size="11.9032" lengthAdjust="spacing" textLength="84.1729" x="52.7143" y="35.1077">Append Event</text><text fill="#000000" font-family="sans-serif" font-size="11.9032" lengthAdjust="spacing" textLength="92.6752" x="48.4632" y="48.9639">Transaction #1</text><rect fill="#E2E2F0" height="39.6155" rx="2.1256" ry="2.1256" style="stroke:#181818;stroke-width:0.4251156387000157;" width="104.5784" x="42.5116" y="1033.4295"/><text fill="#000000" font-family="sans-serif" font-size="11.9032" lengthAdjust="spacing" textLength="84.1729" x="52.7143" y="1050.43">Append Event</text><text fill="#000000" font-family="sans-serif" font-size="11.9032" lengthAdjust="spacing" textLength="92.6752" x="48.4632" y="1064.2861">Transaction #1</text><rect fill="#E2E2F0" height="39.6155" rx="2.1256" ry="2.1256" style="stroke:#181818;stroke-width:0.4251156387000157;" width="104.5784" x="155.5923" y="18.1073"/><text fill="#000000" font-family="sans-serif" font-size="11.9032" lengthAdjust="spacing" textLength="84.1729" x="165.7951" y="35.1077">Append Event</text><text fill="#000000" font-family="sans-serif" font-size="11.9032" lengthAdjust="spacing" textLength="92.6752" x="161.5439" y="48.9639">Transaction #2</text><rect fill="#E2E2F0" height="39.6155" rx="2.1256" ry="2.1256" style="stroke:#181818;stroke-width:0.4251156387000157;" width="104.5784" x="155.5923" y="1033.4295"/><text fill="#000000" font-family="sans-serif" font-size="11.9032" lengthAdjust="spacing" textLength="84.1729" x="165.7951" y="1050.43">Append Event</text><text fill="#000000" font-family="sans-serif" font-size="11.9032" lengthAdjust="spacing" textLength="92.6752" x="161.5439" y="1064.2861">Transaction #2</text><text fill="#000000" font-family="sans-serif" font-size="11.9032" lengthAdjust="spacing" textLength="68.8687" x="501.6365" y="55.7657">PostgreSQL</text><path d="M523.3174,14.1085 C523.3174,5.6062 538.6215,5.6062 538.6215,5.6062 C538.6215,5.6062 553.9257,5.6062 553.9257,14.1085 L553.9257,36.2145 C553.9257,44.7169 538.6215,44.7169 538.6215,44.7169 C538.6215,44.7169 523.3174,44.7169 523.3174,36.2145 L523.3174,14.1085 " fill="#E2E2F0" style="stroke:#181818;stroke-width:1.275346916100047;"/><path d="M523.3174,14.1085 C523.3174,22.6108 538.6215,22.6108 538.6215,22.6108 C538.6215,22.6108 553.9257,22.6108 553.9257,14.1085 " fill="none" style="stroke:#181818;stroke-width:1.275346916100047;"/><text fill="#000000" font-family="sans-serif" font-size="11.9032" lengthAdjust="spacing" textLength="68.8687" x="501.6365" y="1044.4784">PostgreSQL</text><path d="M523.3174,1055.788 C523.3174,1047.2857 538.6215,1047.2857 538.6215,1047.2857 C538.6215,1047.2857 553.9257,1047.2857 553.9257,1055.788 L553.9257,1077.894 C553.9257,1086.3963 538.6215,1086.3963 538.6215,1086.3963 C538.6215,1086.3963 523.3174,1086.3963 523.3174,1077.894 L523.3174,1055.788 " fill="#E2E2F0" style="stroke:#181818;stroke-width:1.275346916100047;"/><path d="M523.3174,1055.788 C523.3174,1064.2903 538.6215,1064.2903 538.6215,1064.2903 C538.6215,1064.2903 553.9257,1064.2903 553.9257,1055.788 " fill="none" style="stroke:#181818;stroke-width:1.275346916100047;"/><rect fill="#E2E2F0" height="53.4716" rx="2.1256" ry="2.1256" style="stroke:#181818;stroke-width:0.4251156387000157;" width="113.0808" x="785.6137" y="4.2512"/><text fill="#000000" font-family="sans-serif" font-size="11.9032" lengthAdjust="spacing" textLength="74.8204" x="804.7439" y="21.2516">Read Events</text><text fill="#000000" font-family="sans-serif" font-size="11.9032" lengthAdjust="spacing" textLength="101.1775" x="791.5653" y="35.1077">After Checkpoint</text><text fill="#000000" font-family="sans-serif" font-size="11.9032" lengthAdjust="spacing" textLength="92.6752" x="795.8165" y="48.9639">Transaction #3</text><rect fill="#E2E2F0" height="53.4716" rx="2.1256" ry="2.1256" style="stroke:#181818;stroke-width:0.4251156387000157;" width="113.0808" x="785.6137" y="1033.4295"/><text fill="#000000" font-family="sans-serif" font-size="11.9032" lengthAdjust="spacing" textLength="74.8204" x="804.7439" y="1050.43">Read Events</text><text fill="#000000" font-family="sans-serif" font-size="11.9032" lengthAdjust="spacing" textLength="101.1775" x="791.5653" y="1064.2861">After Checkpoint</text><text fill="#000000" font-family="sans-serif" font-size="11.9032" lengthAdjust="spacing" textLength="92.6752" x="795.8165" y="1078.1422">Transaction #3</text><rect fill="#E2E2F0" height="53.4716" rx="2.1256" ry="2.1256" style="stroke:#181818;stroke-width:0.4251156387000157;" width="113.0808" x="907.1968" y="4.2512"/><text fill="#000000" font-family="sans-serif" font-size="11.9032" lengthAdjust="spacing" textLength="74.8204" x="926.327" y="21.2516">Read Events</text><text fill="#000000" font-family="sans-serif" font-size="11.9032" lengthAdjust="spacing" textLength="101.1775" x="913.1484" y="35.1077">After Checkpoint</text><text fill="#000000" font-family="sans-serif" font-size="11.9032" lengthAdjust="spacing" textLength="92.6752" x="917.3995" y="48.9639">Transaction #4</text><rect fill="#E2E2F0" height="53.4716" rx="2.1256" ry="2.1256" style="stroke:#181818;stroke-width:0.4251156387000157;" width="113.0808" x="907.1968" y="1033.4295"/><text fill="#000000" font-family="sans-serif" font-size="11.9032" lengthAdjust="spacing" textLength="74.8204" x="926.327" y="1050.43">Read Events</text><text fill="#000000" font-family="sans-serif" font-size="11.9032" lengthAdjust="spacing" textLength="101.1775" x="913.1484" y="1064.2861">After Checkpoint</text><text fill="#000000" font-family="sans-serif" font-size="11.9032" lengthAdjust="spacing" textLength="92.6752" x="917.3995" y="1078.1422">Transaction #4</text><rect fill="#FFFFFF" height="547.7084" style="stroke:#808080;stroke-width:0.8502312774000313;" width="8.5023" x="90.5496" y="85.0431"/><rect fill="#FFFFFF" height="200.7077" style="stroke:#808080;stroke-width:0.8502312774000313;" width="8.5023" x="203.6304" y="189.223"/><rect fill="#FFFFFF" height="272.6918" style="stroke:#808080;stroke-width:0.8502312774000313;" width="8.5023" x="837.9029" y="414.7003"/><rect fill="#FFFFFF" height="285.5581" style="stroke:#808080;stroke-width:0.8502312774000313;" width="8.5023" x="959.486" y="733.4175"/><polygon fill="#181818" points="528.4187,81.6421,536.9211,85.0431,528.4187,88.444,531.8197,85.0431" style="stroke:#181818;stroke-width:0.8502312774000313;"/><line style="stroke:#181818;stroke-width:0.8502312774000313;stroke-dasharray:2.0,2.0;" x1="99.0519" x2="533.5201" y1="85.0431" y2="85.0431"/><text fill="#000000" font-family="monospace" font-size="11.053" lengthAdjust="spacing" textLength="115.6315" x="105.0036" y="80.7359">BEGIN&#160;TRANSACTION</text><path d="M4.2512,96.0961 L4.2512,117.3518 L185.3504,117.3518 L185.3504,104.5984 L176.8481,96.0961 L4.2512,96.0961 " fill="#FEFFDD" style="stroke:#181818;stroke-width:0.4251156387000157;"/><path d="M176.8481,96.0961 L176.8481,104.5984 L185.3504,104.5984 L176.8481,96.0961 " fill="#FEFFDD" style="stroke:#181818;stroke-width:0.4251156387000157;"/><text fill="#000000" font-family="monospace" font-size="11.053" lengthAdjust="spacing" textLength="163.2444" x="9.3525" y="110.6069">pg_current_xact_id()=851</text><polygon fill="#181818" points="528.4187,136.2828,536.9211,139.6837,528.4187,143.0846,531.8197,139.6837" style="stroke:#181818;stroke-width:0.8502312774000313;"/><line style="stroke:#181818;stroke-width:0.8502312774000313;stroke-dasharray:2.0,2.0;" x1="99.0519" x2="533.5201" y1="139.6837" y2="139.6837"/><text fill="#000000" font-family="monospace" font-size="11.053" lengthAdjust="spacing" textLength="224.4611" x="105.0036" y="135.3765">SELECT&#160;nextval('ES_EVENT_ID_SEQ')</text><polygon fill="#181818" points="108.4045,161.0524,99.9022,164.4533,108.4045,167.8543,105.0036,164.4533" style="stroke:#181818;stroke-width:0.8502312774000313;"/><line style="stroke:#181818;stroke-width:0.8502312774000313;stroke-dasharray:2.0,2.0;" x1="103.3031" x2="537.7713" y1="164.4533" y2="164.4533"/><text fill="#000000" font-family="sans-serif" font-size="11.053" font-style="italic" lengthAdjust="spacing" textLength="71.4194" x="113.5059" y="160.1461">nextval=101</text><polygon fill="#181818" points="528.4187,185.822,536.9211,189.223,528.4187,192.6239,531.8197,189.223" style="stroke:#181818;stroke-width:0.8502312774000313;"/><line style="stroke:#181818;stroke-width:0.8502312774000313;stroke-dasharray:2.0,2.0;" x1="212.1327" x2="533.5201" y1="189.223" y2="189.223"/><text fill="#000000" font-family="monospace" font-size="11.053" lengthAdjust="spacing" textLength="115.6315" x="218.0843" y="184.9158">BEGIN&#160;TRANSACTION</text><path d="M117.3319,200.276 L117.3319,221.5317 L298.4312,221.5317 L298.4312,208.7783 L289.9289,200.276 L117.3319,200.276 " fill="#FEFFDD" style="stroke:#181818;stroke-width:0.4251156387000157;"/><path d="M289.9289,200.276 L289.9289,208.7783 L298.4312,208.7783 L289.9289,200.276 " fill="#FEFFDD" style="stroke:#181818;stroke-width:0.4251156387000157;"/><text fill="#000000" font-family="monospace" font-size="11.053" lengthAdjust="spacing" textLength="163.2444" x="122.4333" y="214.7868">pg_current_xact_id()=852</text><polygon fill="#181818" points="528.4187,240.4627,536.9211,243.8636,528.4187,247.2645,531.8197,243.8636" style="stroke:#181818;stroke-width:0.8502312774000313;"/><line style="stroke:#181818;stroke-width:0.8502312774000313;stroke-dasharray:2.0,2.0;" x1="212.1327" x2="533.5201" y1="243.8636" y2="243.8636"/><text fill="#000000" font-family="monospace" font-size="11.053" lengthAdjust="spacing" textLength="224.4611" x="218.0843" y="239.5564">SELECT&#160;nextval('ES_EVENT_ID_SEQ')</text><polygon fill="#181818" points="221.4852,265.2323,212.9829,268.6332,221.4852,272.0342,218.0843,268.6332" style="stroke:#181818;stroke-width:0.8502312774000313;"/><line style="stroke:#181818;stroke-width:0.8502312774000313;stroke-dasharray:2.0,2.0;" x1="216.3839" x2="537.7713" y1="268.6332" y2="268.6332"/><text fill="#000000" font-family="sans-serif" font-size="11.053" font-style="italic" lengthAdjust="spacing" textLength="71.4194" x="226.5866" y="264.326">nextval=102</text><polygon fill="#181818" points="528.4187,324.1241,536.9211,327.525,528.4187,330.926,531.8197,327.525" style="stroke:#181818;stroke-width:0.8502312774000313;"/><line style="stroke:#181818;stroke-width:0.8502312774000313;stroke-dasharray:2.0,2.0;" x1="99.0519" x2="533.5201" y1="327.525" y2="327.525"/><text fill="#000000" font-family="monospace" font-size="11.053" lengthAdjust="spacing" textLength="306.0833" x="105.0036" y="310.3514">INSERT&#160;INTO&#160;ES_EVENT(ID,&#160;TRANSACTION_ID,&#160;...)</text><text fill="#000000" font-family="monospace" font-size="11.053" lengthAdjust="spacing" textLength="142.8389" x="105.0036" y="323.2178">VALUES(101,&#160;851,&#160;...)</text><polygon fill="#181818" points="528.4187,361.7601,536.9211,365.161,528.4187,368.562,531.8197,365.161" style="stroke:#181818;stroke-width:0.8502312774000313;"/><line style="stroke:#181818;stroke-width:0.8502312774000313;stroke-dasharray:2.0,2.0;" x1="212.1327" x2="533.5201" y1="365.161" y2="365.161"/><text fill="#000000" font-family="monospace" font-size="11.053" lengthAdjust="spacing" textLength="306.0833" x="218.0843" y="347.9875">INSERT&#160;INTO&#160;ES_EVENT(ID,&#160;TRANSACTION_ID,&#160;...)</text><text fill="#000000" font-family="monospace" font-size="11.053" lengthAdjust="spacing" textLength="142.8389" x="218.0843" y="360.8538">VALUES(102,&#160;852,&#160;...)</text><polygon fill="#181818" points="528.4187,386.5298,536.9211,389.9307,528.4187,393.3316,531.8197,389.9307" style="stroke:#181818;stroke-width:0.8502312774000313;"/><line style="stroke:#181818;stroke-width:0.8502312774000313;stroke-dasharray:2.0,2.0;" x1="207.8815" x2="533.5201" y1="389.9307" y2="389.9307"/><text fill="#000000" font-family="monospace" font-size="11.053" lengthAdjust="spacing" textLength="40.8111" x="213.8332" y="385.6235">COMMIT</text><polygon fill="#181818" points="547.9741,411.2994,539.4717,414.7003,547.9741,418.1012,544.5731,414.7003" style="stroke:#181818;stroke-width:0.8502312774000313;"/><line style="stroke:#181818;stroke-width:0.8502312774000313;stroke-dasharray:2.0,2.0;" x1="542.8727" x2="837.0527" y1="414.7003" y2="414.7003"/><text fill="#000000" font-family="monospace" font-size="11.053" lengthAdjust="spacing" textLength="115.6315" x="553.0754" y="410.3931">BEGIN&#160;TRANSACTION</text><path d="M690.3878,425.7533 L690.3878,459.7626 L993.9204,459.7626 L993.9204,434.2556 L985.4181,425.7533 L690.3878,425.7533 " fill="#FEFFDD" style="stroke:#181818;stroke-width:0.4251156387000157;"/><path d="M985.4181,425.7533 L985.4181,434.2556 L993.9204,434.2556 L985.4181,425.7533 " fill="#FEFFDD" style="stroke:#181818;stroke-width:0.4251156387000157;"/><text fill="#000000" font-family="monospace" font-size="11.053" lengthAdjust="spacing" textLength="163.2444" x="695.4892" y="440.2641">pg_current_xact_id()=853</text><text fill="#000000" font-family="monospace" font-size="11.053" lengthAdjust="spacing" textLength="285.6777" x="695.4892" y="453.1305">pg_snapshot_xmin(pg_current_snapshot()=851</text><polygon fill="#181818" points="547.9741,491.6728,539.4717,495.0737,547.9741,498.4747,544.5731,495.0737" style="stroke:#181818;stroke-width:0.8502312774000313;"/><line style="stroke:#181818;stroke-width:0.8502312774000313;stroke-dasharray:2.0,2.0;" x1="542.8727" x2="837.0527" y1="495.0737" y2="495.0737"/><text fill="#000000" font-family="monospace" font-size="11.053" lengthAdjust="spacing" textLength="278.8759" x="553.0754" y="477.9001">SELECT&#160;LAST_TRANSACTION_ID,&#160;LAST_EVENT_ID</text><text fill="#000000" font-family="monospace" font-size="11.053" lengthAdjust="spacing" textLength="176.8481" x="553.0754" y="490.7665">FROM&#160;ES_EVENT_SUBSCRIPTION</text><polygon fill="#181818" points="827.7001,529.3088,836.2025,532.7097,827.7001,536.1107,831.1011,532.7097" style="stroke:#181818;stroke-width:0.8502312774000313;"/><line style="stroke:#181818;stroke-width:0.8502312774000313;stroke-dasharray:2.0,2.0;" x1="538.6215" x2="832.8015" y1="532.7097" y2="532.7097"/><text fill="#000000" font-family="sans-serif" font-size="11.053" font-style="italic" lengthAdjust="spacing" textLength="160.6937" x="544.5731" y="515.5362">LAST_TRANSACTION_ID=850</text><text fill="#000000" font-family="sans-serif" font-size="11.053" font-style="italic" lengthAdjust="spacing" textLength="117.3319" x="544.5731" y="528.4025">LAST_EVENT_ID=100</text><polygon fill="#181818" points="547.9741,579.8112,539.4717,583.2122,547.9741,586.6131,544.5731,583.2122" style="stroke:#181818;stroke-width:0.8502312774000313;"/><line style="stroke:#181818;stroke-width:0.8502312774000313;stroke-dasharray:2.0,2.0;" x1="542.8727" x2="837.0527" y1="583.2122" y2="583.2122"/><text fill="#000000" font-family="monospace" font-size="11.053" lengthAdjust="spacing" textLength="156.4426" x="553.0754" y="553.1722">SELECT&#160;ID&#160;FROM&#160;ES_EVENT</text><text fill="#000000" font-family="monospace" font-size="11.053" lengthAdjust="spacing" textLength="265.2722" x="553.0754" y="566.0386">WHERE&#160;(TRANSACTION_ID,&#160;ID)&#160;&gt;&#160;(850,&#160;100)</text><text fill="#000000" font-family="monospace" font-size="11.053" lengthAdjust="spacing" textLength="163.2444" x="553.0754" y="578.905">AND&#160;TRANSACTION_ID&#160;&lt;&#160;851</text><polygon fill="#181818" points="827.7001,604.5809,836.2025,607.9818,827.7001,611.3827,831.1011,607.9818" style="stroke:#181818;stroke-width:0.8502312774000313;"/><line style="stroke:#181818;stroke-width:0.8502312774000313;stroke-dasharray:2.0,2.0;" x1="538.6215" x2="832.8015" y1="607.9818" y2="607.9818"/><text fill="#000000" font-family="sans-serif" font-size="11.053" font-style="italic" lengthAdjust="spacing" textLength="45.0623" x="544.5731" y="603.6746">No rows</text><polygon fill="#181818" points="528.4187,629.3505,536.9211,632.7514,528.4187,636.1523,531.8197,632.7514" style="stroke:#181818;stroke-width:0.8502312774000313;"/><line style="stroke:#181818;stroke-width:0.8502312774000313;stroke-dasharray:2.0,2.0;" x1="94.8008" x2="533.5201" y1="632.7514" y2="632.7514"/><text fill="#000000" font-family="monospace" font-size="11.053" lengthAdjust="spacing" textLength="40.8111" x="100.7524" y="628.4442">COMMIT</text><path d="M681.8855,643.8044 L681.8855,665.0602 L1002.4227,665.0602 L1002.4227,652.3067 L993.9204,643.8044 L681.8855,643.8044 " fill="#FEFFDD" style="stroke:#181818;stroke-width:0.4251156387000157;"/><path d="M993.9204,643.8044 L993.9204,652.3067 L1002.4227,652.3067 L993.9204,643.8044 " fill="#FEFFDD" style="stroke:#181818;stroke-width:0.4251156387000157;"/><text fill="#000000" font-family="sans-serif" font-size="11.053" lengthAdjust="spacing" textLength="302.6823" x="686.9869" y="658.3152">Event with ID=102 has TRANSACTION_ID=852 (&gt; 851)</text><polygon fill="#181818" points="547.9741,683.9911,539.4717,687.3921,547.9741,690.793,544.5731,687.3921" style="stroke:#181818;stroke-width:0.8502312774000313;"/><line style="stroke:#181818;stroke-width:0.8502312774000313;stroke-dasharray:2.0,2.0;" x1="542.8727" x2="841.3038" y1="687.3921" y2="687.3921"/><text fill="#000000" font-family="monospace" font-size="11.053" lengthAdjust="spacing" textLength="40.8111" x="553.0754" y="683.0849">COMMIT</text><polygon fill="#181818" points="547.9741,730.0165,539.4717,733.4175,547.9741,736.8184,544.5731,733.4175" style="stroke:#181818;stroke-width:0.8502312774000313;"/><line style="stroke:#181818;stroke-width:0.8502312774000313;stroke-dasharray:2.0,2.0;" x1="542.8727" x2="958.6358" y1="733.4175" y2="733.4175"/><text fill="#000000" font-family="monospace" font-size="11.053" lengthAdjust="spacing" textLength="115.6315" x="553.0754" y="729.1103">BEGIN&#160;TRANSACTION</text><path d="M811.9709,744.4705 L811.9709,778.4797 L1115.5034,778.4797 L1115.5034,752.9728 L1107.0011,744.4705 L811.9709,744.4705 " fill="#FEFFDD" style="stroke:#181818;stroke-width:0.4251156387000157;"/><path d="M1107.0011,744.4705 L1107.0011,752.9728 L1115.5034,752.9728 L1107.0011,744.4705 " fill="#FEFFDD" style="stroke:#181818;stroke-width:0.4251156387000157;"/><text fill="#000000" font-family="monospace" font-size="11.053" lengthAdjust="spacing" textLength="163.2444" x="817.0723" y="758.9813">pg_current_xact_id()=854</text><text fill="#000000" font-family="monospace" font-size="11.053" lengthAdjust="spacing" textLength="285.6777" x="817.0723" y="771.8477">pg_snapshot_xmin(pg_current_snapshot()=854</text><polygon fill="#181818" points="547.9741,810.39,539.4717,813.7909,547.9741,817.1918,544.5731,813.7909" style="stroke:#181818;stroke-width:0.8502312774000313;"/><line style="stroke:#181818;stroke-width:0.8502312774000313;stroke-dasharray:2.0,2.0;" x1="542.8727" x2="958.6358" y1="813.7909" y2="813.7909"/><text fill="#000000" font-family="monospace" font-size="11.053" lengthAdjust="spacing" textLength="278.8759" x="553.0754" y="796.6173">SELECT&#160;LAST_TRANSACTION_ID,&#160;LAST_EVENT_ID</text><text fill="#000000" font-family="monospace" font-size="11.053" lengthAdjust="spacing" textLength="176.8481" x="553.0754" y="809.4837">FROM&#160;ES_EVENT_SUBSCRIPTION</text><polygon fill="#181818" points="949.2832,848.026,957.7855,851.4269,949.2832,854.8278,952.6841,851.4269" style="stroke:#181818;stroke-width:0.8502312774000313;"/><line style="stroke:#181818;stroke-width:0.8502312774000313;stroke-dasharray:2.0,2.0;" x1="538.6215" x2="954.3846" y1="851.4269" y2="851.4269"/><text fill="#000000" font-family="sans-serif" font-size="11.053" font-style="italic" lengthAdjust="spacing" textLength="160.6937" x="544.5731" y="834.2533">LAST_TRANSACTION_ID=850</text><text fill="#000000" font-family="sans-serif" font-size="11.053" font-style="italic" lengthAdjust="spacing" textLength="117.3319" x="544.5731" y="847.1197">LAST_EVENT_ID=100</text><polygon fill="#181818" points="547.9741,898.5284,539.4717,901.9293,547.9741,905.3302,544.5731,901.9293" style="stroke:#181818;stroke-width:0.8502312774000313;"/><line style="stroke:#181818;stroke-width:0.8502312774000313;stroke-dasharray:2.0,2.0;" x1="542.8727" x2="958.6358" y1="901.9293" y2="901.9293"/><text fill="#000000" font-family="monospace" font-size="11.053" lengthAdjust="spacing" textLength="156.4426" x="553.0754" y="871.8893">SELECT&#160;ID&#160;FROM&#160;ES_EVENT</text><text fill="#000000" font-family="monospace" font-size="11.053" lengthAdjust="spacing" textLength="265.2722" x="553.0754" y="884.7557">WHERE&#160;(TRANSACTION_ID,&#160;ID)&#160;&gt;&#160;(850,&#160;100)</text><text fill="#000000" font-family="monospace" font-size="11.053" lengthAdjust="spacing" textLength="163.2444" x="553.0754" y="897.6221">AND&#160;TRANSACTION_ID&#160;&lt;&#160;854</text><polygon fill="#181818" points="949.2832,923.298,957.7855,926.699,949.2832,930.0999,952.6841,926.699" style="stroke:#181818;stroke-width:0.8502312774000313;"/><line style="stroke:#181818;stroke-width:0.8502312774000313;stroke-dasharray:2.0,2.0;" x1="538.6215" x2="954.3846" y1="926.699" y2="926.699"/><text fill="#000000" font-family="sans-serif" font-size="11.053" font-style="italic" lengthAdjust="spacing" textLength="90.1245" x="544.5731" y="922.3918">ID=101, ID=102</text><path d="M864.6852,937.752 L864.6852,959.0077 L1062.7891,959.0077 L1062.7891,946.2543 L1054.2868,937.752 L864.6852,937.752 " fill="#FEFFDD" style="stroke:#181818;stroke-width:0.4251156387000157;"/><path d="M1054.2868,937.752 L1054.2868,946.2543 L1062.7891,946.2543 L1054.2868,937.752 " fill="#FEFFDD" style="stroke:#181818;stroke-width:0.4251156387000157;"/><text fill="#000000" font-family="sans-serif" font-size="11.053" lengthAdjust="spacing" textLength="180.249" x="869.7866" y="952.2628">Process events: ID=101, ID=102</text><polygon fill="#181818" points="547.9741,990.8051,539.4717,994.206,547.9741,997.6069,544.5731,994.206" style="stroke:#181818;stroke-width:0.8502312774000313;"/><line style="stroke:#181818;stroke-width:0.8502312774000313;stroke-dasharray:2.0,2.0;" x1="542.8727" x2="958.6358" y1="994.206" y2="994.206"/><text fill="#000000" font-family="monospace" font-size="11.053" lengthAdjust="spacing" textLength="190.4518" x="553.0754" y="977.0324">UPDATE&#160;ES_EVENT_SUBSCRIPTION</text><text fill="#000000" font-family="monospace" font-size="11.053" lengthAdjust="spacing" textLength="326.4888" x="553.0754" y="989.8988">SET&#160;LAST_TRANSACTION_ID=852,&#160;LAST_EVENT_ID&#160;=&#160;102</text><polygon fill="#181818" points="547.9741,1015.5747,539.4717,1018.9756,547.9741,1022.3765,544.5731,1018.9756" style="stroke:#181818;stroke-width:0.8502312774000313;"/><line style="stroke:#181818;stroke-width:0.8502312774000313;stroke-dasharray:2.0,2.0;" x1="542.8727" x2="962.8869" y1="1018.9756" y2="1018.9756"/><text fill="#000000" font-family="monospace" font-size="11.053" lengthAdjust="spacing" textLength="40.8111" x="553.0754" y="1014.6684">COMMIT</text><!--SRC=[lPPHRvim58NV-HLNxA54IXCmJ9ggfH9Dl0w9aZJGxYKISi4DgArXcAQfrltt6OTqWQHHrcbx2rpx-Bltd3ZX4Rcdy42MOEZ8WgSqBXE5_tvfw3eaD9qdfQBmkvJbf20FmEdtHyeY2ZyK03UzfMxAw5bMnBGOPlTP0US5VLQEDceakfiNsIEBLtMtKfIBVYgAq2pJACq9Aq6ryvoo6F22idB6We8mJg8opHXyC5GW7CgbSV0ELEz0IanASaCu1NMIyN9UKF_IbSNufgasfQJMuZDctvQqW652exiyIxVapLhUVB-4LKjOYY8QW-FZKq5q0gfwXiyT3uAfxVdsC736dgegrQO5AQcS0Sl4XsmXnCLJjIEVXz5ZKOXZmwLO6QQnrXby-cY8ZKrf7xju602Zot91xhKZx8Vu6dj1w8n27ryUTSIE-4PkaDBzVhrqOEX6lo_KqE6Wg06Aze0Y2OhU2ugQe4Y0lhoyj5ftF1zF0t2yO0nhDSqPTJVvm-gvr-i9zHbJrMlRlSA-9bhlWfZckjH2_HjXL0cZDuI7uuiB9wWQfOsfYjGTReBPCC7SOuAvOXDLpaZEaqoK7rAcRInV5pRIPMwRvjf-4BQRbo_N5gvE-Z8TNxnEBFIlplpXr9dKBRoQQrRcxf0K17g_FsDrSIqj_DTbK7U0EIDedBd2-FOLJp5eRM1dr85JqCGfNN51whLpjZTg-GgVOJMB9h6NGP4zSObYx3ArPOkyDCGbN2OWcq2GYDjXgsK4scbrNgSP2gFLyExecFNNmZeyFbQ3qzeJ7-iFusF9-5Z_EZxME-DZ_S_uM5l4aiJerbaGH2qR9aKMKSw1oj-Q4sYkR_5VJKPsWD-QLSNbuvrp7yZBgJ4W65H_5xQysnquI_a5]--></g></svg>