<?xml version="1.0" encoding="us-ascii" standalone="no"?><svg xmlns="http://www.w3.org/2000/svg" xmlns:xlink="http://www.w3.org/1999/xlink" contentStyleType="text/css" height="1100.0296px" preserveAspectRatio="none" style="width:934px;height:1100px;background:#FFFFFF;" version="1.1" viewBox="0 0 934 1100" width="934.5049px" zoomAndPan="magnify"><defs/><g><rect fill="#FFFFFF" height="594.9946" style="stroke:#808080;stroke-width:0.9458551659277173;" width="9.4586" x="58.1701" y="94.6077"/><rect fill="#FFFFFF" height="285.1384" style="stroke:#808080;stroke-width:0.9458551659277173;" width="9.4586" x="183.9688" y="177.2739"/><rect fill="#FFFFFF" height="269.0588" style="stroke:#808080;stroke-width:0.9458551659277173;" width="9.4586" x="700.4058" y="489.9678"/><rect fill="#FFFFFF" height="199.6346" style="stroke:#808080;stroke-width:0.9458551659277173;" width="9.4586" x="835.663" y="810.2284"/><line style="stroke:#808080;stroke-width:0.4729275829638587;stroke-dasharray:5.0,5.0;" x1="62.4264" x2="62.4264" y1="65.1606" y2="1026.8884"/><line style="stroke:#808080;stroke-width:0.4729275829638587;stroke-dasharray:5.0,5.0;" x1="188.2252" x2="188.2252" y1="65.1606" y2="1026.8884"/><line style="stroke:#808080;stroke-width:0.4729275829638587;stroke-dasharray:5.0,5.0;" x1="465.3607" x2="465.3607" y1="65.1606" y2="1026.8884"/><line style="stroke:#808080;stroke-width:0.4729275829638587;stroke-dasharray:5.0,5.0;" x1="704.6621" x2="704.6621" y1="65.1606" y2="1026.8884"/><line style="stroke:#808080;stroke-width:0.4729275829638587;stroke-dasharray:5.0,5.0;" x1="839.9194" x2="839.9194" y1="65.1606" y2="1026.8884"/><rect fill="#E2E2F0" height="44.0709" rx="2.3646" ry="2.3646" style="stroke:#181818;stroke-width:0.4729275829638587;" width="116.3402" x="4.7293" y="20.1438"/><text fill="#000000" font-family="sans-serif" font-size="13.242" lengthAdjust="spacing" textLength="93.6397" x="16.0795" y="39.0562">Append Event</text><text fill="#000000" font-family="sans-serif" font-size="13.242" lengthAdjust="spacing" textLength="103.0982" x="11.3503" y="54.4707">Transaction #1</text><rect fill="#E2E2F0" height="44.0709" rx="2.3646" ry="2.3646" style="stroke:#181818;stroke-width:0.4729275829638587;" width="116.3402" x="4.7293" y="1025.9425"/><text fill="#000000" font-family="sans-serif" font-size="13.242" lengthAdjust="spacing" textLength="93.6397" x="16.0795" y="1044.855">Append Event</text><text fill="#000000" font-family="sans-serif" font-size="13.242" lengthAdjust="spacing" textLength="103.0982" x="11.3503" y="1060.2695">Transaction #1</text><rect fill="#E2E2F0" height="44.0709" rx="2.3646" ry="2.3646" style="stroke:#181818;stroke-width:0.4729275829638587;" width="116.3402" x="130.528" y="20.1438"/><text fill="#000000" font-family="sans-serif" font-size="13.242" lengthAdjust="spacing" textLength="93.6397" x="141.8783" y="39.0562">Append Event</text><text fill="#000000" font-family="sans-serif" font-size="13.242" lengthAdjust="spacing" textLength="103.0982" x="137.149" y="54.4707">Transaction #2</text><rect fill="#E2E2F0" height="44.0709" rx="2.3646" ry="2.3646" style="stroke:#181818;stroke-width:0.4729275829638587;" width="116.3402" x="130.528" y="1025.9425"/><text fill="#000000" font-family="sans-serif" font-size="13.242" lengthAdjust="spacing" textLength="93.6397" x="141.8783" y="1044.855">Append Event</text><text fill="#000000" font-family="sans-serif" font-size="13.242" lengthAdjust="spacing" textLength="103.0982" x="137.149" y="1060.2695">Transaction #2</text><text fill="#000000" font-family="sans-serif" font-size="13.242" lengthAdjust="spacing" textLength="76.6143" x="424.689" y="62.0376">PostgreSQL</text><path d="M448.8083,15.6953 C448.8083,6.2367 465.8337,6.2367 465.8337,6.2367 C465.8337,6.2367 482.8591,6.2367 482.8591,15.6953 L482.8591,40.2875 C482.8591,49.7461 465.8337,49.7461 465.8337,49.7461 C465.8337,49.7461 448.8083,49.7461 448.8083,40.2875 L448.8083,15.6953 " fill="#E2E2F0" style="stroke:#181818;stroke-width:1.418782748891576;"/><path d="M448.8083,15.6953 C448.8083,25.1538 465.8337,25.1538 465.8337,25.1538 C465.8337,25.1538 482.8591,25.1538 482.8591,15.6953 " fill="none" style="stroke:#181818;stroke-width:1.418782748891576;"/><text fill="#000000" font-family="sans-serif" font-size="13.242" lengthAdjust="spacing" textLength="76.6143" x="424.689" y="1038.234">PostgreSQL</text><path d="M448.8083,1050.8155 C448.8083,1041.357 465.8337,1041.357 465.8337,1041.357 C465.8337,1041.357 482.8591,1041.357 482.8591,1050.8155 L482.8591,1075.4078 C482.8591,1084.8663 465.8337,1084.8663 465.8337,1084.8663 C465.8337,1084.8663 448.8083,1084.8663 448.8083,1075.4078 L448.8083,1050.8155 " fill="#E2E2F0" style="stroke:#181818;stroke-width:1.418782748891576;"/><path d="M448.8083,1050.8155 C448.8083,1060.2741 465.8337,1060.2741 465.8337,1060.2741 C465.8337,1060.2741 482.8591,1060.2741 482.8591,1050.8155 " fill="none" style="stroke:#181818;stroke-width:1.418782748891576;"/><rect fill="#E2E2F0" height="59.4854" rx="2.3646" ry="2.3646" style="stroke:#181818;stroke-width:0.4729275829638587;" width="125.7987" x="642.2357" y="4.7293"/><text fill="#000000" font-family="sans-serif" font-size="13.242" lengthAdjust="spacing" textLength="83.2353" x="663.5174" y="23.6418">Read Events</text><text fill="#000000" font-family="sans-serif" font-size="13.242" lengthAdjust="spacing" textLength="112.5568" x="648.8566" y="39.0562">After Checkpoint</text><text fill="#000000" font-family="sans-serif" font-size="13.242" lengthAdjust="spacing" textLength="103.0982" x="653.5859" y="54.4707">Transaction #3</text><rect fill="#E2E2F0" height="59.4854" rx="2.3646" ry="2.3646" style="stroke:#181818;stroke-width:0.4729275829638587;" width="125.7987" x="642.2357" y="1025.9425"/><text fill="#000000" font-family="sans-serif" font-size="13.242" lengthAdjust="spacing" textLength="83.2353" x="663.5174" y="1044.855">Read Events</text><text fill="#000000" font-family="sans-serif" font-size="13.242" lengthAdjust="spacing" textLength="112.5568" x="648.8566" y="1060.2695">After Checkpoint</text><text fill="#000000" font-family="sans-serif" font-size="13.242" lengthAdjust="spacing" textLength="103.0982" x="653.5859" y="1075.6839">Transaction #3</text><rect fill="#E2E2F0" height="59.4854" rx="2.3646" ry="2.3646" style="stroke:#181818;stroke-width:0.4729275829638587;" width="125.7987" x="777.4929" y="4.7293"/><text fill="#000000" font-family="sans-serif" font-size="13.242" lengthAdjust="spacing" textLength="83.2353" x="798.7747" y="23.6418">Read Events</text><text fill="#000000" font-family="sans-serif" font-size="13.242" lengthAdjust="spacing" textLength="112.5568" x="784.1139" y="39.0562">After Checkpoint</text><text fill="#000000" font-family="sans-serif" font-size="13.242" lengthAdjust="spacing" textLength="103.0982" x="788.8432" y="54.4707">Transaction #4</text><rect fill="#E2E2F0" height="59.4854" rx="2.3646" ry="2.3646" style="stroke:#181818;stroke-width:0.4729275829638587;" width="125.7987" x="777.4929" y="1025.9425"/><text fill="#000000" font-family="sans-serif" font-size="13.242" lengthAdjust="spacing" textLength="83.2353" x="798.7747" y="1044.855">Read Events</text><text fill="#000000" font-family="sans-serif" font-size="13.242" lengthAdjust="spacing" textLength="112.5568" x="784.1139" y="1060.2695">After Checkpoint</text><text fill="#000000" font-family="sans-serif" font-size="13.242" lengthAdjust="spacing" textLength="103.0982" x="788.8432" y="1075.6839">Transaction #4</text><rect fill="#FFFFFF" height="594.9946" style="stroke:#808080;stroke-width:0.9458551659277173;" width="9.4586" x="58.1701" y="94.6077"/><rect fill="#FFFFFF" height="285.1384" style="stroke:#808080;stroke-width:0.9458551659277173;" width="9.4586" x="183.9688" y="177.2739"/><rect fill="#FFFFFF" height="269.0588" style="stroke:#808080;stroke-width:0.9458551659277173;" width="9.4586" x="700.4058" y="489.9678"/><rect fill="#FFFFFF" height="199.6346" style="stroke:#808080;stroke-width:0.9458551659277173;" width="9.4586" x="835.663" y="810.2284"/><polygon fill="#181818" points="454.4834,90.8243,463.942,94.6077,454.4834,98.3911,458.2668,94.6077" style="stroke:#181818;stroke-width:0.9458551659277173;"/><line style="stroke:#181818;stroke-width:0.9458551659277173;stroke-dasharray:2.0,2.0;" x1="67.6286" x2="460.1585" y1="94.6077" y2="94.6077"/><text fill="#000000" font-family="monospace" font-size="12.2961" lengthAdjust="spacing" textLength="128.6363" x="74.2496" y="89.8161">BEGIN&#160;TRANSACTION</text><polygon fill="#181818" points="454.4834,118.3797,463.942,122.1631,454.4834,125.9465,458.2668,122.1631" style="stroke:#181818;stroke-width:0.9458551659277173;"/><line style="stroke:#181818;stroke-width:0.9458551659277173;stroke-dasharray:2.0,2.0;" x1="67.6286" x2="460.1585" y1="122.1631" y2="122.1631"/><text fill="#000000" font-family="monospace" font-size="12.2961" lengthAdjust="spacing" textLength="249.7058" x="74.2496" y="117.3715">SELECT&#160;nextval('ES_EVENT_ID_SEQ')</text><polygon fill="#181818" points="78.0331,145.9351,68.5745,149.7185,78.0331,153.5019,74.2496,149.7185" style="stroke:#181818;stroke-width:0.9458551659277173;"/><line style="stroke:#181818;stroke-width:0.9458551659277173;stroke-dasharray:2.0,2.0;" x1="72.3579" x2="464.8878" y1="149.7185" y2="149.7185"/><text fill="#000000" font-family="sans-serif" font-size="12.2961" font-style="italic" lengthAdjust="spacing" textLength="79.4518" x="83.7082" y="144.9269">nextval=101</text><polygon fill="#181818" points="454.4834,173.4905,463.942,177.2739,454.4834,181.0574,458.2668,177.2739" style="stroke:#181818;stroke-width:0.9458551659277173;"/><line style="stroke:#181818;stroke-width:0.9458551659277173;stroke-dasharray:2.0,2.0;" x1="193.4274" x2="460.1585" y1="177.2739" y2="177.2739"/><text fill="#000000" font-family="monospace" font-size="12.2961" lengthAdjust="spacing" textLength="128.6363" x="200.0484" y="172.4823">BEGIN&#160;TRANSACTION</text><path d="M112.5568,189.5701 L112.5568,227.4043 L264.8394,227.4043 L264.8394,199.0286 L255.3809,189.5701 L112.5568,189.5701 " fill="#FEFFDD" style="stroke:#181818;stroke-width:0.4729275829638587;"/><path d="M255.3809,189.5701 L255.3809,199.0286 L264.8394,199.0286 L255.3809,189.5701 " fill="#FEFFDD" style="stroke:#181818;stroke-width:0.4729275829638587;"/><text fill="#000000" font-family="sans-serif" font-size="12.2961" lengthAdjust="spacing" textLength="132.4197" x="118.2319" y="205.7129">Transaction #2 starts</text><text fill="#000000" font-family="sans-serif" font-size="12.2961" lengthAdjust="spacing" textLength="123.907" x="118.2319" y="220.0263">after transaction #1</text><polygon fill="#181818" points="454.4834,248.59,463.942,252.3734,454.4834,256.1568,458.2668,252.3734" style="stroke:#181818;stroke-width:0.9458551659277173;"/><line style="stroke:#181818;stroke-width:0.9458551659277173;stroke-dasharray:2.0,2.0;" x1="193.4274" x2="460.1585" y1="252.3734" y2="252.3734"/><text fill="#000000" font-family="monospace" font-size="12.2961" lengthAdjust="spacing" textLength="249.7058" x="200.0484" y="247.5817">SELECT&#160;nextval('ES_EVENT_ID_SEQ')</text><polygon fill="#181818" points="203.8318,276.1454,194.3732,279.9288,203.8318,283.7122,200.0484,279.9288" style="stroke:#181818;stroke-width:0.9458551659277173;"/><line style="stroke:#181818;stroke-width:0.9458551659277173;stroke-dasharray:2.0,2.0;" x1="198.1567" x2="464.8878" y1="279.9288" y2="279.9288"/><text fill="#000000" font-family="sans-serif" font-size="12.2961" font-style="italic" lengthAdjust="spacing" textLength="79.4518" x="209.5069" y="275.1372">nextval=102</text><polygon fill="#181818" points="454.4834,341.6606,463.942,345.444,454.4834,349.2275,458.2668,345.444" style="stroke:#181818;stroke-width:0.9458551659277173;"/><line style="stroke:#181818;stroke-width:0.9458551659277173;stroke-dasharray:2.0,2.0;" x1="67.6286" x2="460.1585" y1="345.444" y2="345.444"/><text fill="#000000" font-family="monospace" font-size="12.2961" lengthAdjust="spacing" textLength="181.6042" x="74.2496" y="326.339">INSERT&#160;INTO&#160;ES_EVENT(ID)</text><text fill="#000000" font-family="monospace" font-size="12.2961" lengthAdjust="spacing" textLength="83.2353" x="74.2496" y="340.6524">VALUES(101)</text><polygon fill="#181818" points="454.4834,383.5295,463.942,387.3129,454.4834,391.0963,458.2668,387.3129" style="stroke:#181818;stroke-width:0.9458551659277173;"/><line style="stroke:#181818;stroke-width:0.9458551659277173;stroke-dasharray:2.0,2.0;" x1="193.4274" x2="460.1585" y1="387.3129" y2="387.3129"/><text fill="#000000" font-family="monospace" font-size="12.2961" lengthAdjust="spacing" textLength="181.6042" x="200.0484" y="368.2078">INSERT&#160;INTO&#160;ES_EVENT(ID)</text><text fill="#000000" font-family="monospace" font-size="12.2961" lengthAdjust="spacing" textLength="83.2353" x="200.0484" y="382.5213">VALUES(102)</text><path d="M103.0982,399.609 L103.0982,437.4432 L274.298,437.4432 L274.298,409.0676 L264.8394,399.609 L103.0982,399.609 " fill="#FEFFDD" style="stroke:#181818;stroke-width:0.4729275829638587;"/><path d="M264.8394,399.609 L264.8394,409.0676 L274.298,409.0676 L264.8394,399.609 " fill="#FEFFDD" style="stroke:#181818;stroke-width:0.4729275829638587;"/><text fill="#000000" font-family="sans-serif" font-size="12.2961" lengthAdjust="spacing" textLength="151.3368" x="108.7733" y="415.7518">Transaction #2 commits</text><text fill="#000000" font-family="sans-serif" font-size="12.2961" lengthAdjust="spacing" textLength="134.3114" x="108.7733" y="430.0653">before transaction #1</text><polygon fill="#181818" points="454.4834,458.6289,463.942,462.4123,454.4834,466.1958,458.2668,462.4123" style="stroke:#181818;stroke-width:0.9458551659277173;"/><line style="stroke:#181818;stroke-width:0.9458551659277173;stroke-dasharray:2.0,2.0;" x1="188.6981" x2="460.1585" y1="462.4123" y2="462.4123"/><text fill="#000000" font-family="monospace" font-size="12.2961" lengthAdjust="spacing" textLength="45.401" x="195.3191" y="457.6207">COMMIT</text><polygon fill="#181818" points="476.2381,486.1843,466.7795,489.9678,476.2381,493.7512,472.4547,489.9678" style="stroke:#181818;stroke-width:0.9458551659277173;"/><line style="stroke:#181818;stroke-width:0.9458551659277173;stroke-dasharray:2.0,2.0;" x1="470.5629" x2="699.4599" y1="489.9678" y2="489.9678"/><text fill="#000000" font-family="monospace" font-size="12.2961" lengthAdjust="spacing" textLength="128.6363" x="481.9132" y="485.1761">BEGIN&#160;TRANSACTION</text><polygon fill="#181818" points="476.2381,528.0532,466.7795,531.8366,476.2381,535.62,472.4547,531.8366" style="stroke:#181818;stroke-width:0.9458551659277173;"/><line style="stroke:#181818;stroke-width:0.9458551659277173;stroke-dasharray:2.0,2.0;" x1="470.5629" x2="699.4599" y1="531.8366" y2="531.8366"/><text fill="#000000" font-family="monospace" font-size="12.2961" lengthAdjust="spacing" textLength="151.3368" x="481.9132" y="512.7316">SELECT&#160;LAST_EVENT_ID</text><text fill="#000000" font-family="monospace" font-size="12.2961" lengthAdjust="spacing" textLength="196.7379" x="481.9132" y="527.045">FROM&#160;ES_EVENT_SUBSCRIPTION</text><polygon fill="#181818" points="689.0555,555.6086,698.514,559.392,689.0555,563.1755,692.8389,559.392" style="stroke:#181818;stroke-width:0.9458551659277173;"/><line style="stroke:#181818;stroke-width:0.9458551659277173;stroke-dasharray:2.0,2.0;" x1="465.8337" x2="694.7306" y1="559.392" y2="559.392"/><text fill="#000000" font-family="sans-serif" font-size="12.2961" font-style="italic" lengthAdjust="spacing" textLength="130.528" x="472.4547" y="554.6004">LAST_EVENT_ID=100</text><polygon fill="#181818" points="476.2381,597.4775,466.7795,601.2609,476.2381,605.0443,472.4547,601.2609" style="stroke:#181818;stroke-width:0.9458551659277173;"/><line style="stroke:#181818;stroke-width:0.9458551659277173;stroke-dasharray:2.0,2.0;" x1="470.5629" x2="699.4599" y1="601.2609" y2="601.2609"/><text fill="#000000" font-family="monospace" font-size="12.2961" lengthAdjust="spacing" textLength="174.0374" x="481.9132" y="582.1558">SELECT&#160;ID&#160;FROM&#160;ES_EVENT</text><text fill="#000000" font-family="monospace" font-size="12.2961" lengthAdjust="spacing" textLength="105.9358" x="481.9132" y="596.4693">WHERE&#160;ID&#160;&gt;&#160;100</text><polygon fill="#181818" points="689.0555,625.0329,698.514,628.8163,689.0555,632.5998,692.8389,628.8163" style="stroke:#181818;stroke-width:0.9458551659277173;"/><line style="stroke:#181818;stroke-width:0.9458551659277173;stroke-dasharray:2.0,2.0;" x1="465.8337" x2="694.7306" y1="628.8163" y2="628.8163"/><text fill="#000000" font-family="sans-serif" font-size="12.2961" font-style="italic" lengthAdjust="spacing" textLength="46.3469" x="472.4547" y="624.0247">ID=102</text><path d="M611.9683,641.1125 L611.9683,664.7588 L798.3018,664.7588 L798.3018,650.571 L788.8432,641.1125 L611.9683,641.1125 " fill="#FEFFDD" style="stroke:#181818;stroke-width:0.4729275829638587;"/><path d="M788.8432,641.1125 L788.8432,650.571 L798.3018,650.571 L788.8432,641.1125 " fill="#FEFFDD" style="stroke:#181818;stroke-width:0.4729275829638587;"/><text fill="#000000" font-family="sans-serif" font-size="12.2961" lengthAdjust="spacing" textLength="166.4705" x="617.6434" y="657.2553">Process event with ID=102</text><polygon fill="#181818" points="454.4834,685.8189,463.942,689.6023,454.4834,693.3857,458.2668,689.6023" style="stroke:#181818;stroke-width:0.9458551659277173;"/><line style="stroke:#181818;stroke-width:0.9458551659277173;stroke-dasharray:2.0,2.0;" x1="62.8994" x2="460.1585" y1="689.6023" y2="689.6023"/><text fill="#000000" font-family="monospace" font-size="12.2961" lengthAdjust="spacing" textLength="45.401" x="69.5204" y="684.8107">COMMIT</text><polygon fill="#181818" points="476.2381,727.6878,466.7795,731.4712,476.2381,735.2546,472.4547,731.4712" style="stroke:#181818;stroke-width:0.9458551659277173;"/><line style="stroke:#181818;stroke-width:0.9458551659277173;stroke-dasharray:2.0,2.0;" x1="470.5629" x2="699.4599" y1="731.4712" y2="731.4712"/><text fill="#000000" font-family="monospace" font-size="12.2961" lengthAdjust="spacing" textLength="211.8716" x="481.9132" y="712.3661">UPDATE&#160;ES_EVENT_SUBSCRIPTION</text><text fill="#000000" font-family="monospace" font-size="12.2961" lengthAdjust="spacing" textLength="174.0374" x="481.9132" y="726.6796">SET&#160;LAST_EVENT_ID&#160;=&#160;102</text><polygon fill="#181818" points="476.2381,755.2432,466.7795,759.0266,476.2381,762.81,472.4547,759.0266" style="stroke:#181818;stroke-width:0.9458551659277173;"/><line style="stroke:#181818;stroke-width:0.9458551659277173;stroke-dasharray:2.0,2.0;" x1="470.5629" x2="704.1892" y1="759.0266" y2="759.0266"/><text fill="#000000" font-family="monospace" font-size="12.2961" lengthAdjust="spacing" textLength="45.401" x="481.9132" y="754.235">COMMIT</text><polygon fill="#181818" points="476.2381,806.445,466.7795,810.2284,476.2381,814.0118,472.4547,810.2284" style="stroke:#181818;stroke-width:0.9458551659277173;"/><line style="stroke:#181818;stroke-width:0.9458551659277173;stroke-dasharray:2.0,2.0;" x1="470.5629" x2="834.7172" y1="810.2284" y2="810.2284"/><text fill="#000000" font-family="monospace" font-size="12.2961" lengthAdjust="spacing" textLength="128.6363" x="481.9132" y="805.4368">BEGIN&#160;TRANSACTION</text><polygon fill="#181818" points="476.2381,848.3139,466.7795,852.0973,476.2381,855.8807,472.4547,852.0973" style="stroke:#181818;stroke-width:0.9458551659277173;"/><line style="stroke:#181818;stroke-width:0.9458551659277173;stroke-dasharray:2.0,2.0;" x1="470.5629" x2="834.7172" y1="852.0973" y2="852.0973"/><text fill="#000000" font-family="monospace" font-size="12.2961" lengthAdjust="spacing" textLength="151.3368" x="481.9132" y="832.9922">SELECT&#160;LAST_EVENT_ID</text><text fill="#000000" font-family="monospace" font-size="12.2961" lengthAdjust="spacing" textLength="196.7379" x="481.9132" y="847.3056">FROM&#160;ES_EVENT_SUBSCRIPTION</text><polygon fill="#181818" points="824.3128,875.8693,833.7713,879.6527,824.3128,883.4361,828.0962,879.6527" style="stroke:#181818;stroke-width:0.9458551659277173;"/><line style="stroke:#181818;stroke-width:0.9458551659277173;stroke-dasharray:2.0,2.0;" x1="465.8337" x2="829.9879" y1="879.6527" y2="879.6527"/><text fill="#000000" font-family="sans-serif" font-size="12.2961" font-style="italic" lengthAdjust="spacing" textLength="130.528" x="472.4547" y="874.8611">LAST_EVENT_ID=102</text><polygon fill="#181818" points="476.2381,917.7381,466.7795,921.5216,476.2381,925.305,472.4547,921.5216" style="stroke:#181818;stroke-width:0.9458551659277173;"/><line style="stroke:#181818;stroke-width:0.9458551659277173;stroke-dasharray:2.0,2.0;" x1="470.5629" x2="834.7172" y1="921.5216" y2="921.5216"/><text fill="#000000" font-family="monospace" font-size="12.2961" lengthAdjust="spacing" textLength="174.0374" x="481.9132" y="902.4165">SELECT&#160;ID&#160;FROM&#160;ES_EVENT</text><text fill="#000000" font-family="monospace" font-size="12.2961" lengthAdjust="spacing" textLength="105.9358" x="481.9132" y="916.7299">WHERE&#160;ID&#160;&gt;&#160;102</text><polygon fill="#181818" points="824.3128,945.2936,833.7713,949.077,824.3128,952.8604,828.0962,949.077" style="stroke:#181818;stroke-width:0.9458551659277173;"/><line style="stroke:#181818;stroke-width:0.9458551659277173;stroke-dasharray:2.0,2.0;" x1="465.8337" x2="829.9879" y1="949.077" y2="949.077"/><text fill="#000000" font-family="sans-serif" font-size="12.2961" font-style="italic" lengthAdjust="spacing" textLength="50.1303" x="472.4547" y="944.2854">No rows</text><path d="M751.9549,961.3731 L751.9549,985.0195 L927.8839,985.0195 L927.8839,970.8317 L918.4254,961.3731 L751.9549,961.3731 " fill="#FEFFDD" style="stroke:#181818;stroke-width:0.4729275829638587;"/><path d="M918.4254,961.3731 L918.4254,970.8317 L927.8839,970.8317 L918.4254,961.3731 " fill="#FEFFDD" style="stroke:#181818;stroke-width:0.4729275829638587;"/><text fill="#000000" font-family="sans-serif" font-size="12.2961" lengthAdjust="spacing" textLength="156.0661" x="757.63" y="977.5159">Event with ID=101 is lost</text><polygon fill="#181818" points="476.2381,1006.0795,466.7795,1009.863,476.2381,1013.6464,472.4547,1009.863" style="stroke:#181818;stroke-width:0.9458551659277173;"/><line style="stroke:#181818;stroke-width:0.9458551659277173;stroke-dasharray:2.0,2.0;" x1="470.5629" x2="839.4465" y1="1009.863" y2="1009.863"/><text fill="#000000" font-family="monospace" font-size="12.2961" lengthAdjust="spacing" textLength="45.401" x="481.9132" y="1005.0713">COMMIT</text><!--SRC=[fLJHZff057sVhxYX3zg7ZO0yRRAR84wt98WkuFR5n8mmAb5dxCoiQrFxxnsGsWNjrcxVW7lFkVUSCunCoPh2Xkp1Ccq7Nl9CBP7y_T4oJLZIVB5K2CbLphP4a0r8-lMPifJ2TmGGv7CQv8pskCYeyFYQ2tWGz1jglQgHTBKG_9bbntfGC9PDFn3Id2fFyorX2WntkwKi0xoZJ4rO8WYJ95KvP_31Ce18K7lhQeHT8MoK4KLcH58mHbogXQ3nOr0MircTBQAauf8JviuL5U0jQRhQyloClblHTzzFuLGK3a9Q6DpStEkDRi4mUlZ13o69t31slSGVXeQ12j2EA5fwK6-FSO2z11ZTgnrPjriudk8d72PJlp-DyMFheuPdinAWWRVGwLIjTvPfTJgQpRv-k8qOrmzyfvNfjrkecmvIQJkqTb9gLxKC6vF-QM-xlhUjzpuS3Wqd_336KG9-c0pX5rlRxskY2JEC9pSOuxYjHHVCzLskHDe5ycq3KhxPv8K3CphdWhvjWJSS3Foaq4bh7kjpTNqatKPxvMlWnid9qAEEJz5mS98tZSUzs8lyKSLuihfRM5r3QyFDyg1S6EFteKPxdFJbCuvmKRlNbujvnbvI5Xc-zb9NHeAdL4gWnH-aRoIrX6Dh8-ZBlbcD3SUZlflWFmakrennmoUuAox3ydXq_pglMnr1v_gid4Rx_sRbNChABhDotfMLVSOUSX3yHJR2qYNS2Cc2NC9QNx6DuPVDSz1F]--></g></svg>