<?xml version="1.0" encoding="us-ascii" standalone="no"?><svg xmlns="http://www.w3.org/2000/svg" xmlns:xlink="http://www.w3.org/1999/xlink" contentStyleType="text/css" height="375px" preserveAspectRatio="none" style="width:824px;height:375px;background:#FFFFFF;" version="1.1" viewBox="0 0 824 375" width="824px" zoomAndPan="magnify"><defs/><g><!--cluster Database--><g id="cluster_Database"><path d="M6,146 C6,136 203.5,136 203.5,136 C203.5,136 401,136 401,146 L401,348 C401,358 203.5,358 203.5,358 C203.5,358 6,358 6,348 L6,146 " fill="none" style="stroke:#808080;stroke-width:1.0;"/><path d="M6,146 C6,156 203.5,156 203.5,156 C203.5,156 401,156 401,146 " fill="none" style="stroke:#808080;stroke-width:1.0;"/><text fill="#000000" font-family="sans-serif" font-size="14" font-weight="bold" lengthAdjust="spacing" textLength="74" x="166.5" y="170.9951">Database</text></g><!--cluster Transaction--><g id="cluster_Transaction"><rect fill="none" height="140" rx="2.5" ry="2.5" style="stroke:#181818;stroke-width:1.0;stroke-dasharray:7.0,7.0;" width="347" x="30" y="194"/><text fill="#000000" font-family="sans-serif" font-size="14" font-weight="bold" lengthAdjust="spacing" textLength="93" x="157" y="208.9951">Transaction</text></g><!--entity orderTbl--><g id="elem_orderTbl"><rect fill="#F1F1F1" height="89.1875" rx="2.5" ry="2.5" style="stroke:#181818;stroke-width:0.5;" width="140" x="46" y="229"/><text fill="#000000" font-family="sans-serif" font-size="14" font-weight="bold" lengthAdjust="spacing" textLength="56" x="66" y="251.9951">ORDER</text><text fill="#000000" font-family="sans-serif" font-size="14" lengthAdjust="spacing" textLength="40" x="126" y="251.9951">Table</text><text fill="#000000" font-family="sans-serif" font-size="14" lengthAdjust="spacing" textLength="24" x="56" y="270.292">&#160;&#160;&#160;&#160;&#160;&#160;</text><text fill="#000000" font-family="sans-serif" font-size="14" lengthAdjust="spacing" textLength="24" x="80" y="270.292">&#160;&#160;&#160;&#160;&#160;&#160;</text><text fill="#000000" font-family="sans-serif" font-size="14" lengthAdjust="spacing" textLength="24" x="104" y="270.292">&#160;&#160;&#160;&#160;&#160;&#160;</text><text fill="#000000" font-family="sans-serif" font-size="14" lengthAdjust="spacing" textLength="24" x="128" y="270.292">&#160;&#160;&#160;&#160;&#160;&#160;</text><text fill="#000000" font-family="sans-serif" font-size="14" lengthAdjust="spacing" textLength="24" x="152" y="270.292">&#160;&#160;&#160;&#160;&#160;&#160;</text><text fill="#000000" font-family="sans-serif" font-size="14" lengthAdjust="spacing" textLength="24" x="56" y="286.5889">&#160;&#160;&#160;&#160;&#160;&#160;</text><text fill="#000000" font-family="sans-serif" font-size="14" lengthAdjust="spacing" textLength="24" x="80" y="286.5889">&#160;&#160;&#160;&#160;&#160;&#160;</text><text fill="#000000" font-family="sans-serif" font-size="14" lengthAdjust="spacing" textLength="24" x="104" y="286.5889">&#160;&#160;&#160;&#160;&#160;&#160;</text><text fill="#000000" font-family="sans-serif" font-size="14" lengthAdjust="spacing" textLength="24" x="128" y="286.5889">&#160;&#160;&#160;&#160;&#160;&#160;</text><text fill="#000000" font-family="sans-serif" font-size="14" lengthAdjust="spacing" textLength="24" x="152" y="286.5889">&#160;&#160;&#160;&#160;&#160;&#160;</text><text fill="#000000" font-family="sans-serif" font-size="14" lengthAdjust="spacing" textLength="24" x="56" y="302.8857">&#160;&#160;&#160;&#160;&#160;&#160;</text><text fill="#000000" font-family="sans-serif" font-size="14" lengthAdjust="spacing" textLength="24" x="80" y="302.8857">&#160;&#160;&#160;&#160;&#160;&#160;</text><text fill="#000000" font-family="sans-serif" font-size="14" lengthAdjust="spacing" textLength="24" x="104" y="302.8857">&#160;&#160;&#160;&#160;&#160;&#160;</text><text fill="#000000" font-family="sans-serif" font-size="14" lengthAdjust="spacing" textLength="24" x="128" y="302.8857">&#160;&#160;&#160;&#160;&#160;&#160;</text><text fill="#000000" font-family="sans-serif" font-size="14" lengthAdjust="spacing" textLength="24" x="152" y="302.8857">&#160;&#160;&#160;&#160;&#160;&#160;</text><line style="stroke:#000000;stroke-width:0.5;" x1="56" x2="176" y1="257.2969" y2="257.2969"/><line style="stroke:#000000;stroke-width:0.5;" x1="56" x2="176" y1="273.5938" y2="273.5938"/><line style="stroke:#000000;stroke-width:0.5;" x1="56" x2="176" y1="289.8906" y2="289.8906"/><line style="stroke:#000000;stroke-width:0.5;" x1="56" x2="176" y1="306.1875" y2="306.1875"/><line style="stroke:#000000;stroke-width:0.5;" x1="56" x2="56" y1="257.2969" y2="306.1875"/><line style="stroke:#000000;stroke-width:0.5;" x1="80" x2="80" y1="257.2969" y2="306.1875"/><line style="stroke:#000000;stroke-width:0.5;" x1="104" x2="104" y1="257.2969" y2="306.1875"/><line style="stroke:#000000;stroke-width:0.5;" x1="128" x2="128" y1="257.2969" y2="306.1875"/><line style="stroke:#000000;stroke-width:0.5;" x1="152" x2="152" y1="257.2969" y2="306.1875"/><line style="stroke:#000000;stroke-width:0.5;" x1="176" x2="176" y1="257.2969" y2="306.1875"/></g><!--entity outboxTbl--><g id="elem_outboxTbl"><rect fill="#F1F1F1" height="89.1875" rx="2.5" ry="2.5" style="stroke:#181818;stroke-width:0.5;" width="140" x="221" y="229"/><text fill="#000000" font-family="sans-serif" font-size="14" font-weight="bold" lengthAdjust="spacing" textLength="67" x="235.5" y="251.9951">OUTBOX</text><text fill="#000000" font-family="sans-serif" font-size="14" lengthAdjust="spacing" textLength="40" x="306.5" y="251.9951">Table</text><text fill="#000000" font-family="sans-serif" font-size="14" lengthAdjust="spacing" textLength="24" x="231" y="270.292">&#160;&#160;&#160;&#160;&#160;&#160;</text><text fill="#000000" font-family="sans-serif" font-size="14" lengthAdjust="spacing" textLength="24" x="255" y="270.292">&#160;&#160;&#160;&#160;&#160;&#160;</text><text fill="#000000" font-family="sans-serif" font-size="14" lengthAdjust="spacing" textLength="24" x="279" y="270.292">&#160;&#160;&#160;&#160;&#160;&#160;</text><text fill="#000000" font-family="sans-serif" font-size="14" lengthAdjust="spacing" textLength="24" x="303" y="270.292">&#160;&#160;&#160;&#160;&#160;&#160;</text><text fill="#000000" font-family="sans-serif" font-size="14" lengthAdjust="spacing" textLength="24" x="327" y="270.292">&#160;&#160;&#160;&#160;&#160;&#160;</text><text fill="#000000" font-family="sans-serif" font-size="14" lengthAdjust="spacing" textLength="24" x="231" y="286.5889">&#160;&#160;&#160;&#160;&#160;&#160;</text><text fill="#000000" font-family="sans-serif" font-size="14" lengthAdjust="spacing" textLength="24" x="255" y="286.5889">&#160;&#160;&#160;&#160;&#160;&#160;</text><text fill="#000000" font-family="sans-serif" font-size="14" lengthAdjust="spacing" textLength="24" x="279" y="286.5889">&#160;&#160;&#160;&#160;&#160;&#160;</text><text fill="#000000" font-family="sans-serif" font-size="14" lengthAdjust="spacing" textLength="24" x="303" y="286.5889">&#160;&#160;&#160;&#160;&#160;&#160;</text><text fill="#000000" font-family="sans-serif" font-size="14" lengthAdjust="spacing" textLength="24" x="327" y="286.5889">&#160;&#160;&#160;&#160;&#160;&#160;</text><text fill="#000000" font-family="sans-serif" font-size="14" lengthAdjust="spacing" textLength="24" x="231" y="302.8857">&#160;&#160;&#160;&#160;&#160;&#160;</text><text fill="#000000" font-family="sans-serif" font-size="14" lengthAdjust="spacing" textLength="24" x="255" y="302.8857">&#160;&#160;&#160;&#160;&#160;&#160;</text><text fill="#000000" font-family="sans-serif" font-size="14" lengthAdjust="spacing" textLength="24" x="279" y="302.8857">&#160;&#160;&#160;&#160;&#160;&#160;</text><text fill="#000000" font-family="sans-serif" font-size="14" lengthAdjust="spacing" textLength="24" x="303" y="302.8857">&#160;&#160;&#160;&#160;&#160;&#160;</text><text fill="#000000" font-family="sans-serif" font-size="14" lengthAdjust="spacing" textLength="24" x="327" y="302.8857">&#160;&#160;&#160;&#160;&#160;&#160;</text><line style="stroke:#000000;stroke-width:0.5;" x1="231" x2="351" y1="257.2969" y2="257.2969"/><line style="stroke:#000000;stroke-width:0.5;" x1="231" x2="351" y1="273.5938" y2="273.5938"/><line style="stroke:#000000;stroke-width:0.5;" x1="231" x2="351" y1="289.8906" y2="289.8906"/><line style="stroke:#000000;stroke-width:0.5;" x1="231" x2="351" y1="306.1875" y2="306.1875"/><line style="stroke:#000000;stroke-width:0.5;" x1="231" x2="231" y1="257.2969" y2="306.1875"/><line style="stroke:#000000;stroke-width:0.5;" x1="255" x2="255" y1="257.2969" y2="306.1875"/><line style="stroke:#000000;stroke-width:0.5;" x1="279" x2="279" y1="257.2969" y2="306.1875"/><line style="stroke:#000000;stroke-width:0.5;" x1="303" x2="303" y1="257.2969" y2="306.1875"/><line style="stroke:#000000;stroke-width:0.5;" x1="327" x2="327" y1="257.2969" y2="306.1875"/><line style="stroke:#000000;stroke-width:0.5;" x1="351" x2="351" y1="257.2969" y2="306.1875"/></g><!--entity orderService--><g id="elem_orderService"><rect fill="#F1F1F1" height="36.2969" rx="2.5" ry="2.5" style="stroke:#181818;stroke-width:0.5;" width="118" x="144" y="7"/><text fill="#000000" font-family="sans-serif" font-size="14" lengthAdjust="spacing" textLength="98" x="154" y="29.9951">Order Service</text></g><!--entity pollingPublisher--><g id="elem_pollingPublisher"><rect fill="#F1F1F1" height="52.5938" rx="2.5" ry="2.5" style="stroke:#181818;stroke-width:0.5;" width="85" x="549.5" y="247"/><text fill="#000000" font-family="sans-serif" font-size="14" lengthAdjust="spacing" textLength="47" x="568.5" y="269.9951">Polling</text><text fill="#000000" font-family="sans-serif" font-size="14" lengthAdjust="spacing" textLength="65" x="559.5" y="286.292">Publisher</text></g><!--entity messageBroker--><g id="elem_messageBroker"><rect fill="#F1F1F1" height="52.5938" rx="2.5" ry="2.5" style="stroke:#181818;stroke-width:0.5;" width="82" x="736" y="247"/><text fill="#000000" font-family="sans-serif" font-size="14" lengthAdjust="spacing" textLength="62" x="746" y="269.9951">Message</text><text fill="#000000" font-family="sans-serif" font-size="14" lengthAdjust="spacing" textLength="48" x="753" y="286.292">Broker</text></g><!--link orderTbl to outboxTbl--><!--link orderService to orderTbl--><g id="link_orderService_orderTbl"><path d="M185.31,43.36 C177.74,51.69 169.41,62.19 164,73 C139.85,121.21 127.48,182.14 121.4,223.91 " fill="none" id="orderService-to-orderTbl" style="stroke:#181818;stroke-width:1.0;"/><polygon fill="#181818" points="120.69,228.9,125.9091,220.5477,121.3891,223.9491,117.9877,219.4291,120.69,228.9" style="stroke:#181818;stroke-width:1.0;"/><text fill="#000000" font-family="sans-serif" font-size="13" font-weight="bold" lengthAdjust="spacing" textLength="14" x="165" y="86.0669">1.</text><text fill="#000000" font-family="sans-serif" font-size="13" lengthAdjust="spacing" textLength="47" x="183" y="86.0669">INSERT</text><text fill="#000000" font-family="sans-serif" font-size="13" lengthAdjust="spacing" textLength="53" x="165" y="101.1997">UPDATE</text><text fill="#000000" font-family="sans-serif" font-size="13" lengthAdjust="spacing" textLength="49" x="165" y="116.3325">DELETE</text></g><!--link orderService to outboxTbl--><g id="link_orderService_outboxTbl"><path d="M216.59,43.04 C222.9,51.63 230.08,62.44 235,73 C257.83,122.05 273.17,182.31 281.93,223.69 " fill="none" id="orderService-to-outboxTbl" style="stroke:#181818;stroke-width:1.0;"/><polygon fill="#181818" points="282.97,228.65,285.0301,219.019,281.9399,223.7573,277.2017,220.6671,282.97,228.65" style="stroke:#181818;stroke-width:1.0;"/><text fill="#000000" font-family="sans-serif" font-size="13" font-weight="bold" lengthAdjust="spacing" textLength="14" x="253" y="101.0669">2.</text><text fill="#000000" font-family="sans-serif" font-size="13" lengthAdjust="spacing" textLength="47" x="271" y="101.0669">INSERT</text></g><!--link pollingPublisher to outboxTbl--><g id="link_pollingPublisher_outboxTbl"><path d="M549.18,273.5 C501.67,273.5 424.1,273.5 366.36,273.5 " fill="none" id="pollingPublisher-to-outboxTbl" style="stroke:#181818;stroke-width:1.0;"/><polygon fill="#181818" points="361.19,273.5,370.19,277.5,366.19,273.5,370.19,269.5,361.19,273.5" style="stroke:#181818;stroke-width:1.0;"/><text fill="#000000" font-family="sans-serif" font-size="13" font-weight="bold" lengthAdjust="spacing" textLength="14" x="379.25" y="251.5669">3.</text><text fill="#000000" font-family="sans-serif" font-size="13" lengthAdjust="spacing" textLength="33" x="397.25" y="251.5669">Read</text><text fill="#000000" font-family="monospace" font-size="13" lengthAdjust="spacing" textLength="48" x="434.25" y="251.5669">OUTBOX</text><text fill="#000000" font-family="sans-serif" font-size="13" lengthAdjust="spacing" textLength="33" x="486.25" y="251.5669">table</text><text fill="#000000" font-family="sans-serif" font-size="13" lengthAdjust="spacing" textLength="152" x="379.25" y="266.6997">on a recurring schedule</text></g><!--link pollingPublisher to outboxTbl--><g id="link_pollingPublisher_outboxTbl"><path d="M549.23,296.5 C538,301.45 525.68,305.95 513.75,308.5 C488.32,313.93 422.42,312.64 396.75,308.5 C386.66,306.87 376.23,304.43 366.03,301.57 " fill="none" id="pollingPublisher-to-outboxTbl-1" style="stroke:#181818;stroke-width:1.0;"/><polygon fill="#181818" points="361.04,300.13,368.5824,306.4634,365.8449,301.513,370.7953,298.7755,361.04,300.13" style="stroke:#181818;stroke-width:1.0;"/><text fill="#000000" font-family="sans-serif" font-size="13" font-weight="bold" lengthAdjust="spacing" textLength="14" x="397.75" y="289.5669">5.</text><text fill="#000000" font-family="sans-serif" font-size="13" lengthAdjust="spacing" textLength="43" x="415.75" y="289.5669">Delete</text><text fill="#000000" font-family="sans-serif" font-size="13" lengthAdjust="spacing" textLength="115" x="397.75" y="304.6997">published records</text></g><!--link pollingPublisher to messageBroker--><g id="link_pollingPublisher_messageBroker"><path d="M634.91,273.5 C663.66,273.5 701.5,273.5 730.9,273.5 " fill="none" id="pollingPublisher-to-messageBroker" style="stroke:#181818;stroke-width:1.0;"/><polygon fill="#181818" points="735.91,273.5,726.91,269.5,730.91,273.5,726.91,277.5,735.91,273.5" style="stroke:#181818;stroke-width:1.0;"/><text fill="#000000" font-family="sans-serif" font-size="13" font-weight="bold" lengthAdjust="spacing" textLength="14" x="652.75" y="251.5669">4.</text><text fill="#000000" font-family="sans-serif" font-size="13" lengthAdjust="spacing" textLength="47" x="670.75" y="251.5669">Publish</text><text fill="#000000" font-family="sans-serif" font-size="13" lengthAdjust="spacing" textLength="59" x="652.75" y="266.6997">message</text></g><!--SRC=[pL9DQ-Cm4BthLmpQMo0b_OBIGw5PcrBeRaBYmaBTmzYQjKLbAKXocxBR_rufzZfDMkYfi1VRl7dp_6RUk18LGODhE9mSdS2J5BvcRW3F9XEeILQrPymzIBr2Ymq8-esjyXcj_QMIbMv8UoZ3W-mRLccQbT41NVhd86UfzAWhHJjAwB50H_270KoD5MI_6sKiN5bwPY-C3IB0Px4AIxAFiYGEw633xm761YsUz5yyo0RTuS_0CulQOUcbqHo-AQdfGA2hINHCs9hknBD2mTscC1hD5acw68qWmo8C4R6_09- -leXu_yvkwmkptl5xcqrdl_uVmm0lUudEZGeHLBcUjuMI8GQxYNNLmGFujkK7EOSLvNfgpKFFRpgiGnWRWXlVrL88qlSNs-tqvVveO3o-688-3pixF0ZxklwvJ1TPhcxdoMMMvYf9Rz8i_Q3ndsZiFDfsilq1O9zy7CaBGW6STp5n3Zx6b2kZ0UF9jjO63N1bkCusvFUHwCxaKVWa2lUKNFNbp_sSnhQ45FbWODNJH7GHXdRi5G00]--></g></svg>